<svg width="21" height="12" viewBox="0 0 21 12" fill="none" xmlns="http://www.w3.org/2000/svg">
<path id="Vector" d="M0.987031 0.696748C1.26832 0.415542 1.64978 0.257568 2.04753 0.257568C2.44528 0.257568 2.82674 0.415542 3.10803 0.696748L10.533 8.12175L17.958 0.696748C18.2409 0.423511 18.6198 0.272319 19.0131 0.275737C19.4064 0.279154 19.7826 0.436908 20.0608 0.71502C20.3389 0.993132 20.4966 1.36935 20.5 1.76265C20.5035 2.15594 20.3523 2.53484 20.079 2.81775L11.5935 11.3032C11.3122 11.5845 10.9308 11.7424 10.533 11.7424C10.1353 11.7424 9.75382 11.5845 9.47253 11.3032L0.987031 2.81775C0.705825 2.53646 0.547852 2.15499 0.547852 1.75725C0.547852 1.3595 0.705825 0.97804 0.987031 0.696748Z" fill="#0E0E0E"/>
</svg>
