<svg width="28" height="28" viewBox="0 0 28 28" fill="none" xmlns="http://www.w3.org/2000/svg">
<path d="M14.0007 3.5C7.58398 3.5 2.33398 7.7 2.33398 12.8333C2.33398 15.4 3.61732 17.7333 5.60065 19.25C5.60065 19.95 5.13398 21.8167 2.33398 24.5C5.13398 24.3833 7.70065 23.3333 9.91732 21.5833C11.2007 21.9333 12.6007 22.1667 14.0007 22.1667C20.4173 22.1667 25.6673 17.9667 25.6673 12.8333C25.6673 7.7 20.4173 3.5 14.0007 3.5ZM14.0007 19.8333C8.86732 19.8333 4.66732 16.6833 4.66732 12.8333C4.66732 8.98333 8.86732 5.83333 14.0007 5.83333C19.134 5.83333 23.334 8.98333 23.334 12.8333C23.334 16.6833 19.134 19.8333 14.0007 19.8333ZM14.234 7.58333C13.184 7.58333 12.3673 7.81667 11.784 8.16667C11.084 8.63333 10.734 9.33333 10.8507 10.15H13.184C13.184 9.8 13.3007 9.56667 13.534 9.45C13.7673 9.33333 14.0007 9.21667 14.3507 9.21667C14.7007 9.21667 15.0507 9.33333 15.284 9.56667C15.5173 9.8 15.634 10.0333 15.634 10.3833C15.634 10.7333 15.5173 10.9667 15.4007 11.2C15.1673 11.4333 14.934 11.6667 14.7007 11.7833C14.1173 12.1333 13.6507 12.4833 13.4173 12.7167C12.9507 13.0667 12.834 13.4167 12.834 14H15.1673C15.1673 13.65 15.284 13.4167 15.284 13.1833C15.4007 12.95 15.634 12.8333 15.8673 12.6C16.4507 12.3667 16.8007 12.0167 17.1507 11.55C17.5007 11.0833 17.6173 10.6167 17.6173 10.15C17.6173 9.33333 17.2673 8.63333 16.684 8.16667C16.2173 7.81667 15.284 7.58333 14.234 7.58333ZM12.834 15.1667V17.5H15.1673V15.1667H12.834Z" fill="white"/>
</svg>
