<svg width="410" height="68" viewBox="0 0 410 68" fill="none" xmlns="http://www.w3.org/2000/svg">
<line x1="406" y1="26.75" x2="406" y2="40.625" stroke="white" stroke-opacity="0.25" stroke-width="8" stroke-linecap="round"/>
<line x1="291.312" y1="26.75" x2="291.312" y2="40.625" stroke="white" stroke-opacity="0.25" stroke-width="8" stroke-linecap="round"/>
<line x1="305.5" y1="19.75" x2="305.5" y2="47.625" stroke="white" stroke-opacity="0.25" stroke-width="8" stroke-linecap="round"/>
<line x1="319.688" y1="15.375" x2="319.688" y2="52" stroke="white" stroke-opacity="0.25" stroke-width="8" stroke-linecap="round"/>
<line x1="333.875" y1="4" x2="333.875" y2="63.375" stroke="white" stroke-opacity="0.25" stroke-width="8" stroke-linecap="round"/>
<line x1="348.066" y1="10.125" x2="348.066" y2="58.125" stroke="white" stroke-opacity="0.25" stroke-width="8" stroke-linecap="round"/>
<line x1="4" y1="-4" x2="34.5179" y2="-4" transform="matrix(-0.030696 0.999529 -0.999859 -0.0168169 273.125 14.875)" stroke="white" stroke-opacity="0.25" stroke-width="8" stroke-linecap="round"/>
<line x1="362.254" y1="19.75" x2="362.254" y2="56.375" stroke="white" stroke-opacity="0.25" stroke-width="8" stroke-linecap="round"/>
<line x1="219.187" y1="10.125" x2="219.188" y2="58.125" stroke="white" stroke-opacity="0.25" stroke-width="8" stroke-linecap="round"/>
<line x1="377.625" y1="4" x2="377.625" y2="63.375" stroke="white" stroke-opacity="0.25" stroke-width="8" stroke-linecap="round"/>
<line x1="233.375" y1="5.75" x2="233.375" y2="58.125" stroke="white" stroke-opacity="0.25" stroke-width="8" stroke-linecap="round"/>
<line x1="391.812" y1="15.375" x2="391.812" y2="52" stroke="white" stroke-opacity="0.25" stroke-width="8" stroke-linecap="round"/>
<line x1="247.566" y1="24.125" x2="247.566" y2="44.125" stroke="white" stroke-opacity="0.25" stroke-width="8" stroke-linecap="round"/>
<line x1="4" y1="26.75" x2="4" y2="40.625" stroke="white" stroke-width="8" stroke-linecap="round"/>
<line x1="160.07" y1="29.375" x2="160.07" y2="38.875" stroke="white" stroke-width="8" stroke-linecap="round"/>
<line x1="18.1875" y1="19.75" x2="18.1875" y2="47.625" stroke="white" stroke-width="8" stroke-linecap="round"/>
<line x1="32.375" y1="15.375" x2="32.375" y2="52" stroke="white" stroke-width="8" stroke-linecap="round"/>
<line x1="176.625" y1="24.125" x2="176.625" y2="43.25" stroke="white" stroke-width="8" stroke-linecap="round"/>
<line x1="46.5664" y1="4" x2="46.5664" y2="63.375" stroke="white" stroke-width="8" stroke-linecap="round"/>
<line x1="190.812" y1="4" x2="190.812" y2="63.375" stroke="white" stroke-width="8" stroke-linecap="round"/>
<line x1="60.7539" y1="10.125" x2="60.7539" y2="58.125" stroke="white" stroke-width="8" stroke-linecap="round"/>
<line x1="205" y1="15.375" x2="205" y2="52" stroke="white" stroke-width="8" stroke-linecap="round"/>
<line x1="74.9414" y1="19.75" x2="74.9414" y2="56.375" stroke="white" stroke-width="8" stroke-linecap="round"/>
<line x1="90.3125" y1="4" x2="90.3125" y2="63.375" stroke="white" stroke-width="8" stroke-linecap="round"/>
<line x1="104.5" y1="15.375" x2="104.5" y2="52" stroke="white" stroke-width="8" stroke-linecap="round"/>
<line x1="118.687" y1="4" x2="118.688" y2="63.375" stroke="white" stroke-width="8" stroke-linecap="round"/>
<line x1="132.875" y1="24.125" x2="132.875" y2="43.25" stroke="white" stroke-width="8" stroke-linecap="round"/>
<line x1="145.883" y1="20.625" x2="145.883" y2="46.75" stroke="white" stroke-width="8" stroke-linecap="round"/>
<line x1="261.754" y1="22.375" x2="261.754" y2="48.5" stroke="white" stroke-opacity="0.25" stroke-width="8" stroke-linecap="round"/>
</svg>
