<svg width="75" height="53" viewBox="0 0 75 53" fill="none" xmlns="http://www.w3.org/2000/svg">
<g clip-path="url(#clip0_7082_65832)">
<path d="M63.1861 10.3812C62.4951 6.86712 58.4402 5.1057 59.7979 0.719727C60.6062 1.30025 61.1728 1.63326 61.4939 2.04481C65.5102 6.98533 69.607 12.0084 73.5408 17.0294C74.183 17.8525 74.8997 19.2472 74.6453 20.0594C74.1373 21.6022 72.5925 21.2574 71.2922 20.9154C67.1469 19.8867 62.919 18.9384 58.692 17.9086C59.862 15.5586 59.862 15.5586 67.0284 16.2165C57.5207 6.96966 42.9115 8.25945 35.8488 19.1798C36.9821 19.8457 38.1163 20.4302 39.2496 21.0963C42.4864 23.0923 44.8187 25.7296 45.9143 29.4932C46.6967 32.1931 46.4214 34.7171 44.2772 36.7292C42.0515 38.7404 39.5265 38.5466 36.9309 37.4552C31.333 35.1858 28.622 30.1796 29.8357 24.2428C30.0076 23.5112 30.0166 22.7776 30.111 21.7189C22.5369 21.056 15.5087 22.438 9.58402 26.9314C0.369005 33.8307 2.3694 43.6384 7.18199 50.1377C7.74268 50.9597 8.54992 51.6218 9.5947 52.8574C7.07073 52.5821 5.78235 51.262 4.57548 49.9429C-0.172463 44.8304 -1.21055 36.3389 2.12545 30.1833C4.29247 26.2964 7.34524 23.317 11.3633 21.4092C17.2671 18.6276 23.4792 17.3172 29.9915 18.1302C30.6426 18.2196 31.2948 18.2275 32.109 18.319C35.6737 13.4706 39.802 9.19989 46.018 7.56346C52.069 6.08806 57.5018 8.51845 63.1861 10.3812ZM33.9333 22.4991C31.2563 28.0919 33.0687 33.2502 38.1038 34.8605C39.3216 35.2829 41.0354 35.1408 42.103 34.5015C43.5813 33.6227 43.44 31.8274 42.8067 30.2707C41.3076 26.1761 38.2377 23.8559 33.9333 22.4991Z" fill="#FFD53F"/>
</g>
<defs>
<clipPath id="clip0_7082_65832">
<rect width="75" height="52.9891" fill="white"/>
</clipPath>
</defs>
</svg>
