<svg width="25" height="25" viewBox="0 0 25 25" fill="none" xmlns="http://www.w3.org/2000/svg">
<g clip-path="url(#clip0_0_24)">
<path d="M12.1902 23.4375C9.36127 23.4375 6.64823 22.2852 4.64789 20.234C2.64755 18.1828 1.52377 15.4008 1.52377 12.5C1.52377 9.59919 2.64755 6.8172 4.64789 4.76602C6.64823 2.71484 9.36127 1.5625 12.1902 1.5625C15.0191 1.5625 17.7321 2.71484 19.7325 4.76602C21.7328 6.8172 22.8566 9.59919 22.8566 12.5C22.8566 15.4008 21.7328 18.1828 19.7325 20.234C17.7321 22.2852 15.0191 23.4375 12.1902 23.4375ZM12.1902 25C15.4232 25 18.5238 23.683 20.8099 21.3388C23.096 18.9946 24.3804 15.8152 24.3804 12.5C24.3804 9.18479 23.096 6.00537 20.8099 3.66117C18.5238 1.31696 15.4232 0 12.1902 0C8.95714 0 5.85652 1.31696 3.57042 3.66117C1.28432 6.00537 0 9.18479 0 12.5C0 15.8152 1.28432 18.9946 3.57042 21.3388C5.85652 23.683 8.95714 25 12.1902 25Z" fill="#0040C3"/>
<path d="M10.6699 17.1875C10.6699 16.9823 10.7093 16.7791 10.7859 16.5896C10.8625 16.4 10.9747 16.2277 11.1162 16.0826C11.2577 15.9376 11.4257 15.8225 11.6106 15.7439C11.7954 15.6654 11.9936 15.625 12.1937 15.625C12.3938 15.625 12.5919 15.6654 12.7768 15.7439C12.9617 15.8225 13.1297 15.9376 13.2712 16.0826C13.4127 16.2277 13.5249 16.4 13.6015 16.5896C13.6781 16.7791 13.7175 16.9823 13.7175 17.1875C13.7175 17.6019 13.5569 17.9993 13.2712 18.2924C12.9854 18.5854 12.5978 18.75 12.1937 18.75C11.7896 18.75 11.402 18.5854 11.1162 18.2924C10.8305 17.9993 10.6699 17.6019 10.6699 17.1875ZM10.8193 7.80469C10.799 7.60756 10.8193 7.40827 10.879 7.21973C10.9387 7.03119 11.0363 6.85763 11.1656 6.71029C11.2949 6.56296 11.453 6.44515 11.6296 6.3645C11.8062 6.28386 11.9973 6.24219 12.1906 6.24219C12.384 6.24219 12.5751 6.28386 12.7517 6.3645C12.9283 6.44515 13.0863 6.56296 13.2157 6.71029C13.345 6.85763 13.4426 7.03119 13.5023 7.21973C13.562 7.40827 13.5823 7.60756 13.562 7.80469L13.0287 13.2844C13.0108 13.4996 12.9147 13.7002 12.7596 13.8463C12.6044 13.9924 12.4013 14.0735 12.1906 14.0735C11.98 14.0735 11.7769 13.9924 11.6217 13.8463C11.4665 13.7002 11.3705 13.4996 11.3526 13.2844L10.8193 7.80469Z" fill="#0040C3"/>
</g>
<defs>
<clipPath id="clip0_0_24">
<rect width="24.3804" height="25" fill="white"/>
</clipPath>
</defs>
</svg>
