<svg width="13" height="12" viewBox="0 0 13 12" fill="none" xmlns="http://www.w3.org/2000/svg">
<path id="Vector" fill-rule="evenodd" clip-rule="evenodd" d="M6.83594 12C10.1496 12 12.8359 9.31371 12.8359 6C12.8359 2.68629 10.1496 0 6.83594 0C3.52223 0 0.835938 2.68629 0.835938 6C0.835938 9.31371 3.52223 12 6.83594 12ZM9.10792 5.195C9.3431 4.95982 9.3431 4.57851 9.10792 4.34333C8.87273 4.10814 8.49143 4.10814 8.25624 4.34333L6.22054 6.37903L5.41561 5.5741C5.18043 5.33891 4.79912 5.33891 4.56393 5.5741C4.32875 5.80928 4.32875 6.19059 4.56393 6.42577L5.7947 7.65654C5.90764 7.76948 6.06082 7.83293 6.22054 7.83293C6.38026 7.83293 6.53344 7.76948 6.64638 7.65654L9.10792 5.195Z" fill="#CFDEFF"/>
</svg>
