<svg width="289" height="152" viewBox="0 0 289 152" fill="none" xmlns="http://www.w3.org/2000/svg">
<g clip-path="url(#clip0_0_4)">
<path d="M0 0H289V152H0V0Z" fill="#EE1C25"/>
<path d="M34.6806 56.2399L54.1879 15.2L73.6951 56.2399L21.6758 31.16H86.7L34.6806 56.2399Z" fill="#FFFF00"/>
<path d="M119.29 15.9865L99.2149 19.1064L112.606 8.16343L111.293 22.8912L100.152 9.85269L119.29 15.9865Z" fill="#FFFF00"/>
<path d="M139.55 33.9934L119.321 31.4089L137.716 24.9646L128.36 38.1823L125.302 23.1344L139.55 33.9934Z" fill="#FFFF00"/>
<path d="M136.598 59.2561L119.63 51.1103L140.174 50.4876L123.944 59.8802L129.904 45.2661L136.598 59.2561Z" fill="#FFFF00"/>
<path d="M111.08 75.7596L99.9156 63.6502L119.208 68.64L99.0647 72.908L112.611 61.0421L111.08 75.7596Z" fill="#FFFF00"/>
</g>
<defs>
<clipPath id="clip0_0_4">
<rect width="289" height="152" fill="white"/>
</clipPath>
</defs>
</svg>
