<svg width="20" height="20" viewBox="0 0 20 20" fill="none" xmlns="http://www.w3.org/2000/svg">
<path d="M13.3327 18.3327V16.4577C12.5549 16.2077 11.9021 15.7632 11.3743 15.1243C10.8466 14.4855 10.541 13.7493 10.4577 12.916H12.1243C12.2355 13.5132 12.5168 14.0096 12.9685 14.4052C13.4202 14.8007 13.9582 14.9988 14.5827 14.9993H17.0827C17.4299 14.9993 17.7252 15.121 17.9685 15.3643C18.2118 15.6077 18.3332 15.9027 18.3327 16.2493V18.3327H13.3327ZM15.8327 14.166C15.3743 14.166 14.9821 14.003 14.656 13.6768C14.3299 13.3507 14.1666 12.9582 14.166 12.4993C14.166 12.041 14.3293 11.6488 14.656 11.3227C14.9827 10.9966 15.3749 10.8332 15.8327 10.8327C16.291 10.8327 16.6835 10.996 17.0102 11.3227C17.3368 11.6493 17.4999 12.0416 17.4993 12.4993C17.4993 12.9577 17.3363 13.3502 17.0102 13.6768C16.6841 14.0035 16.2916 14.1666 15.8327 14.166ZM7.49935 11.666C7.49935 9.58268 8.22852 7.81185 9.68685 6.35352C11.1452 4.89518 12.916 4.16602 14.9993 4.16602V5.83268C13.3743 5.83268 11.996 6.39879 10.8643 7.53102C9.73268 8.66324 9.16657 10.0416 9.16602 11.666H7.49935ZM10.8327 11.666C10.8327 10.5132 11.2391 9.53074 12.0518 8.71852C12.8646 7.90629 13.8471 7.4999 14.9993 7.49935V9.16602C14.3049 9.16602 13.7146 9.40907 13.2285 9.89518C12.7424 10.3813 12.4993 10.9716 12.4993 11.666H10.8327ZM1.66602 9.16602V7.08268C1.66602 6.73546 1.78768 6.44046 2.03102 6.19768C2.27435 5.9549 2.56935 5.83324 2.91602 5.83268H5.41602C6.04102 5.83268 6.57935 5.6349 7.03102 5.23935C7.48268 4.84379 7.76379 4.34713 7.87435 3.74935H9.54102C9.45768 4.58268 9.15213 5.31879 8.62435 5.95768C8.09657 6.59657 7.44379 7.04102 6.66602 7.29102V9.16602H1.66602ZM4.16602 4.99935C3.70768 4.99935 3.31546 4.83629 2.98935 4.51018C2.66324 4.18407 2.4999 3.79157 2.49935 3.33268C2.49935 2.87435 2.66268 2.48213 2.98935 2.15602C3.31602 1.8299 3.70824 1.66657 4.16602 1.66602C4.62435 1.66602 5.01685 1.82935 5.34352 2.15602C5.67018 2.48268 5.83324 2.8749 5.83268 3.33268C5.83268 3.79102 5.66963 4.18352 5.34352 4.51018C5.0174 4.83685 4.6249 4.9999 4.16602 4.99935Z" fill="#0040C3"/>
</svg>
