<svg width="25" height="25" viewBox="0 0 25 25" fill="none" xmlns="http://www.w3.org/2000/svg">
<path d="M7.29167 4.16683V10.547C7.29167 10.7554 7.37847 10.9075 7.55208 11.0033C7.72569 11.0991 7.89931 11.0946 8.07292 10.9897L9.89583 9.896L11.7188 10.9897C11.8924 11.0939 12.066 11.0984 12.2396 11.0033C12.4132 10.9081 12.5 10.7561 12.5 10.547V4.16683H7.29167ZM18.75 23.9585C17.309 23.9585 16.0809 23.4505 15.0656 22.4345C14.0503 21.4186 13.5424 20.1904 13.5417 18.7502C13.5417 17.3092 14.0497 16.0811 15.0656 15.0658C16.0816 14.0505 17.3097 13.5425 18.75 13.5418C20.191 13.5418 21.4194 14.0498 22.4354 15.0658C23.4514 16.0818 23.959 17.3099 23.9583 18.7502C23.9583 20.1911 23.4503 21.4196 22.4344 22.4356C21.4184 23.4516 20.1903 23.9592 18.75 23.9585ZM18.2552 20.8595L20.9115 19.1929C21.0851 19.0887 21.1719 18.9411 21.1719 18.7502C21.1719 18.5592 21.0851 18.4116 20.9115 18.3075L18.2552 16.6408C18.0816 16.5366 17.9035 16.5321 17.7208 16.6272C17.5382 16.7224 17.4472 16.8745 17.4479 17.0835V20.4168C17.4479 20.6252 17.5392 20.7772 17.7219 20.8731C17.9045 20.9689 18.0823 20.9644 18.2552 20.8595ZM11.4583 18.7429C11.4583 19.4943 11.5757 20.2217 11.8104 20.9252C12.0451 21.6286 12.3618 22.2925 12.7604 22.9168H5.20833C4.63542 22.9168 4.14514 22.713 3.7375 22.3054C3.32986 21.8977 3.12569 21.4071 3.125 20.8335V4.16683C3.125 3.59391 3.32917 3.10364 3.7375 2.696C4.14583 2.28836 4.63611 2.08419 5.20833 2.0835H17.7083C18.2813 2.0835 18.7719 2.28766 19.1802 2.696C19.5885 3.10433 19.7924 3.59461 19.7917 4.16683V11.5106C19.6167 11.4932 19.442 11.48 19.2677 11.471C19.0934 11.462 18.9188 11.4578 18.7438 11.4585C16.7167 11.4585 14.9958 12.1661 13.5813 13.5814C12.166 14.996 11.4583 16.7165 11.4583 18.7429Z" fill="#0040C3"/>
</svg>
