<svg width="100" height="80" viewBox="0 0 100 80" fill="none" xmlns="http://www.w3.org/2000/svg">
<g clip-path="url(#clip0_7042_3359)">
<path d="M30.5551 36.667L27.7773 43.5559H33.3329L30.5551 36.667Z" fill="#0040C3"/>
<path d="M83.6774 7H39.2903V18.1684H50.3871V22.6357H14.3226C9.60645 22.6357 6 25.5395 6 29.3368V53.9072C6 57.7045 9.60645 60.6083 14.3226 60.6083H17.0968V72L34.5742 60.6083H53.1613V44.9725H83.6774C88.3935 44.9725 92 42.0687 92 38.2715V13.701C92 9.90378 88.3935 7 83.6774 7ZM35.9613 51.4502L34.5742 47.8763H25.9742L24.3097 51.4502H17.6516L26.8065 31.5704H33.4645L42.6194 51.4502H35.9613ZM78.129 33.8041V38.2715C74.5226 38.2715 70.6387 37.378 67.3097 36.0378C63.9806 37.378 60.0968 38.0481 56.2129 38.2715L55.9355 33.8041C57.8774 33.8041 59.8194 33.5808 61.7613 33.134C59.2645 31.1237 57.6 28.6667 56.7677 25.9863H62.5936C63.4258 27.9966 65.0903 29.5601 67.0323 30.9003C70.0839 28.89 72.0258 25.9863 72.3032 22.6357H55.6581V18.1684H63.9806V13.701H69.529V18.1684H78.6839L78.9613 20.4021C79.2387 25.0928 77.0194 29.7835 72.8581 33.134C74.8 33.5808 76.4645 33.8041 78.129 33.8041Z" fill="#0040C3"/>
</g>
<defs>
<clipPath id="clip0_7042_3359">
<rect width="100" height="80" fill="white"/>
</clipPath>
</defs>
</svg>
