<svg width="18" height="18" viewBox="0 0 18 18" fill="none" xmlns="http://www.w3.org/2000/svg">
<g id="devicon:google" clip-path="url(#clip0_1518_8654)">
<path id="Vector" d="M6.27084 0.592441C4.47236 1.21635 2.92136 2.40055 1.84564 3.9711C0.769928 5.54165 0.226205 7.41577 0.294339 9.31817C0.362474 11.2206 1.03887 13.051 2.22418 14.5406C3.4095 16.0301 5.04124 17.1004 6.87975 17.594C8.37027 17.9786 9.93189 17.9955 11.4304 17.6432C12.7879 17.3383 14.0429 16.6861 15.0726 15.7504C16.1442 14.7468 16.9221 13.4701 17.3226 12.0576C17.7577 10.5215 17.8351 8.90611 17.549 7.33541H9.17897V10.8074H14.0263C13.9294 11.3612 13.7218 11.8897 13.4159 12.3614C13.11 12.8331 12.7121 13.2382 12.246 13.5524C11.6542 13.9441 10.9869 14.2076 10.2871 14.3259C9.5853 14.4564 8.86545 14.4564 8.16365 14.3259C7.45231 14.179 6.7794 13.8854 6.18787 13.4638C5.23746 12.7911 4.52382 11.8353 4.14881 10.7329C3.76756 9.60985 3.76756 8.39237 4.14881 7.26932C4.41575 6.48212 4.85705 5.76538 5.43975 5.1726C6.10658 4.48177 6.95081 3.98797 7.87981 3.74536C8.80881 3.50275 9.78669 3.52072 10.7062 3.79728C11.4245 4.01768 12.0813 4.40293 12.6243 4.92228C13.1708 4.37853 13.7165 3.83338 14.2612 3.28682C14.5424 2.99291 14.849 2.71307 15.126 2.41213C14.2971 1.64083 13.3241 1.04062 12.2629 0.645878C10.3303 -0.055855 8.21565 -0.0747134 6.27084 0.592441Z" fill="white"/>
<path id="Vector_2" d="M6.26998 0.593124C8.21463 -0.0744834 10.3292 -0.0561214 12.262 0.645155C13.3234 1.04258 14.2959 1.64567 15.1237 2.41984C14.8425 2.72078 14.5458 3.00203 14.2589 3.29453C13.7133 3.83922 13.1681 4.38203 12.6234 4.92297C12.0805 4.40361 11.4236 4.01836 10.7053 3.79797C9.78613 3.52043 8.80829 3.50143 7.87904 3.74304C6.94979 3.98466 6.10504 4.47755 5.43748 5.16766C4.85478 5.76044 4.41348 6.47718 4.14654 7.26437L1.23138 5.00734C2.27483 2.93813 4.0815 1.35535 6.26998 0.593124Z" fill="white"/>
<path id="Vector_3" d="M0.458368 7.2418C0.614939 6.46523 0.875076 5.71319 1.2318 5.00586L4.14696 7.26852C3.76571 8.39157 3.76571 9.60905 4.14696 10.7321C3.17571 11.4821 2.20399 12.2359 1.2318 12.9934C0.339048 11.2163 0.0667729 9.19157 0.458368 7.2418Z" fill="white"/>
<path id="Vector_4" d="M9.17915 7.33398H17.5492C17.8353 8.90468 17.7579 10.5201 17.3227 12.0562C16.9223 13.4687 16.1444 14.7454 15.0727 15.749C14.132 15.0149 13.187 14.2865 12.2462 13.5524C12.7126 13.2378 13.1107 12.8323 13.4166 12.3601C13.7225 11.8879 13.93 11.3589 14.0265 10.8046H9.17915C9.17775 9.64867 9.17915 8.49133 9.17915 7.33398Z" fill="white"/>
<path id="Vector_5" d="M1.23047 12.9937C2.20266 12.2437 3.17437 11.4899 4.14562 10.7324C4.52139 11.8352 5.23604 12.791 6.1875 13.4634C6.78087 13.8829 7.45523 14.1741 8.1675 14.3184C8.8693 14.4489 9.58914 14.4489 10.2909 14.3184C10.9907 14.2001 11.658 13.9366 12.2498 13.5449C13.1906 14.279 14.1356 15.0074 15.0764 15.7415C14.0469 16.6777 12.7918 17.3304 11.4342 17.6357C9.93573 17.988 8.37411 17.9711 6.88359 17.5865C5.70474 17.2717 4.60361 16.7169 3.64922 15.9566C2.63915 15.1545 1.81411 14.1439 1.23047 12.9937Z" fill="white"/>
</g>
<defs>
<clipPath id="clip0_1518_8654">
<rect width="18" height="18" fill="white"/>
</clipPath>
</defs>
</svg>
