<svg width="25" height="25" viewBox="0 0 25 25" fill="none" xmlns="http://www.w3.org/2000/svg">
<g clip-path="url(#clip0_1518_6820)">
<path d="M8.61051 0.822252C6.14091 1.68881 4.01113 3.33355 2.53401 5.51491C1.05688 7.69626 0.310264 10.2992 0.403823 12.9415C0.497382 15.5838 1.42619 18.1261 3.05381 20.195C4.68143 22.2638 6.92207 23.7503 9.44663 24.4359C11.4933 24.9701 13.6377 24.9935 15.6954 24.5043C17.5594 24.0808 19.2827 23.1749 20.6967 21.8753C22.1682 20.4814 23.2364 18.7082 23.7863 16.7463C24.3837 14.6128 24.4901 12.3692 24.0972 10.1876H12.6038V15.01H19.26C19.127 15.7791 18.8419 16.5132 18.4218 17.1683C18.0018 17.8234 17.4554 18.386 16.8153 18.8225C16.0027 19.3666 15.0864 19.7325 14.1255 19.8968C13.1618 20.0781 12.1733 20.0781 11.2096 19.8968C10.2328 19.6927 9.30883 19.285 8.49658 18.6995C7.19151 17.7651 6.21157 16.4376 5.69662 14.9065C5.17311 13.3466 5.17311 11.6557 5.69662 10.0958C6.06318 9.00249 6.66914 8.00701 7.46928 7.18368C8.38495 6.22419 9.54421 5.53834 10.8199 5.20138C12.0955 4.86442 13.4383 4.88937 14.7009 5.27349C15.6872 5.5796 16.5892 6.11468 17.3348 6.83602C18.0853 6.0808 18.8345 5.32363 19.5825 4.5645C19.9687 4.15629 20.3896 3.76761 20.77 3.34964C19.6318 2.27837 18.2958 1.44473 16.8385 0.896472C14.1847 -0.078173 11.281 -0.104366 8.61051 0.822252Z" fill="white"/>
<path d="M8.61043 0.822208C11.2807 -0.105039 14.1844 -0.0795356 16.8384 0.894475C18.2959 1.44646 19.6313 2.28411 20.768 3.35936C20.3818 3.77733 19.9744 4.16796 19.5805 4.57422C18.8312 5.33074 18.0826 6.08466 17.3347 6.83598C16.5891 6.11463 15.6872 5.57956 14.7008 5.27345C13.4387 4.88798 12.0959 4.86158 10.8199 5.19717C9.54392 5.53275 8.38395 6.21734 7.46727 7.17583C6.66713 7.99915 6.06117 8.99464 5.69461 10.088L1.69164 6.95317C3.12446 4.07922 5.6053 1.88087 8.61043 0.822208Z" fill="#E33629"/>
<path d="M0.629723 10.0587C0.84472 8.98009 1.20193 7.93558 1.69177 6.95316L5.69474 10.0958C5.17123 11.6556 5.17123 13.3466 5.69474 14.9064C4.36106 15.9481 3.02674 16.995 1.69177 18.0471C0.465878 15.5789 0.0920014 12.7667 0.629723 10.0587Z" fill="#F8BD00"/>
<path d="M12.6036 10.1856H24.0969C24.4898 12.3671 24.3835 14.6108 23.786 16.7443C23.2361 18.7062 22.168 20.4794 20.6964 21.8733C19.4046 20.8537 18.1069 19.842 16.8151 18.8224C17.4556 18.3855 18.0022 17.8222 18.4223 17.1664C18.8424 16.5106 19.1272 15.7758 19.2597 15.006H12.6036C12.6016 13.4005 12.6036 11.793 12.6036 10.1856Z" fill="#587DBD"/>
<path d="M1.68922 18.0474C3.02419 17.0057 4.35851 15.9588 5.69219 14.9067C6.20817 16.4384 7.1895 17.7659 8.49601 18.6997C9.3108 19.2825 10.2368 19.6869 11.2149 19.8873C12.1785 20.0685 13.167 20.0685 14.1307 19.8873C15.0916 19.723 16.0079 19.357 16.8206 18.813C18.1124 19.8326 19.41 20.8443 20.7019 21.8639C19.2882 23.1641 17.5648 24.0707 15.7006 24.4948C13.6429 24.984 11.4986 24.9606 9.45186 24.4264C7.8331 23.9892 6.32107 23.2185 5.01055 22.1627C3.62356 21.0486 2.49066 19.6449 1.68922 18.0474Z" fill="#319F43"/>
</g>
<defs>
<clipPath id="clip0_1518_6820">
<rect width="24.321" height="24.6" fill="white" transform="scale(1.01628)"/>
</clipPath>
</defs>
</svg>
