<svg width="16" height="16" viewBox="0 0 16 16" fill="none" xmlns="http://www.w3.org/2000/svg">
<path d="M10.984 3.60522L12.3953 5.01655M11.8913 2.36188L8.07332 6.17989C7.87604 6.37688 7.7415 6.62787 7.68665 6.90122L7.33398 8.66655L9.09932 8.31322C9.37265 8.25855 9.62332 8.12455 9.82065 7.92722L13.6387 4.10922C13.7534 3.99449 13.8444 3.85828 13.9065 3.70838C13.9686 3.55847 14.0005 3.39781 14.0005 3.23555C14.0005 3.0733 13.9686 2.91263 13.9065 2.76273C13.8444 2.61282 13.7534 2.47662 13.6387 2.36188C13.5239 2.24715 13.3877 2.15614 13.2378 2.09405C13.0879 2.03196 12.9272 2 12.765 2C12.6027 2 12.4421 2.03196 12.2922 2.09405C12.1423 2.15614 12.006 2.24715 11.8913 2.36188Z" stroke="#0E0E0E" stroke-linecap="round" stroke-linejoin="round"/>
<path d="M12.667 10.0007V12.0007C12.667 12.3543 12.5265 12.6934 12.2765 12.9435C12.0264 13.1935 11.6873 13.334 11.3337 13.334H4.00033C3.6467 13.334 3.30756 13.1935 3.05752 12.9435C2.80747 12.6934 2.66699 12.3543 2.66699 12.0007V4.66732C2.66699 4.3137 2.80747 3.97456 3.05752 3.72451C3.30756 3.47446 3.6467 3.33398 4.00033 3.33398H6.00033" stroke="#0E0E0E" stroke-linecap="round" stroke-linejoin="round"/>
</svg>
