<svg width="30" height="30" viewBox="0 0 30 30" fill="none" xmlns="http://www.w3.org/2000/svg">
<path d="M23.3998 22.7992H6.5998C5.5798 22.7992 4.7998 22.0192 4.7998 20.9992V8.99922C4.7998 7.97922 5.5798 7.19922 6.5998 7.19922H23.3998C24.4198 7.19922 25.1998 7.97922 25.1998 8.99922V20.9992C25.1998 22.0192 24.4198 22.7992 23.3998 22.7992ZM6.5998 8.39922C6.2398 8.39922 5.9998 8.63922 5.9998 8.99922V20.9992C5.9998 21.3592 6.2398 21.5992 6.5998 21.5992H23.3998C23.7598 21.5992 23.9998 21.3592 23.9998 20.9992V8.99922C23.9998 8.63922 23.7598 8.39922 23.3998 8.39922H6.5998Z" fill="white"/>
<path d="M18.0005 14.3996C16.6805 14.3996 15.6005 13.3196 15.6005 11.9996C15.6005 10.6796 16.6805 9.59961 18.0005 9.59961C19.3205 9.59961 20.4005 10.6796 20.4005 11.9996C20.4005 13.3196 19.3205 14.3996 18.0005 14.3996ZM18.0005 10.7996C17.3405 10.7996 16.8005 11.3396 16.8005 11.9996C16.8005 12.6596 17.3405 13.1996 18.0005 13.1996C18.6605 13.1996 19.2005 12.6596 19.2005 11.9996C19.2005 11.3396 18.6605 10.7996 18.0005 10.7996ZM21.1805 22.6196L11.4005 13.4396L5.82047 18.5996L4.98047 17.7596L11.4005 11.7596L22.0205 21.7796L21.1805 22.6196Z" fill="white"/>
<path d="M24.2395 19.6199L20.9995 16.9799L18.2995 19.1999L17.5195 18.2399L20.9995 15.4199L24.9595 18.6599L24.2395 19.6199Z" fill="white"/>
</svg>
