<svg width="24" height="24" viewBox="0 0 24 24" fill="none" xmlns="http://www.w3.org/2000/svg">
<path d="M2.4548 7.9387C2.7361 7.65749 3.11756 7.49952 3.5153 7.49952C3.91305 7.49952 4.29451 7.65749 4.5758 7.9387L12.0008 15.3637L19.4258 7.9387C19.7087 7.66546 20.0876 7.51427 20.4809 7.51768C20.8742 7.5211 21.2504 7.67886 21.5285 7.95697C21.8066 8.23508 21.9644 8.6113 21.9678 9.00459C21.9712 9.39789 21.82 9.77679 21.5468 10.0597L13.0613 18.5452C12.78 18.8264 12.3986 18.9844 12.0008 18.9844C11.6031 18.9844 11.2216 18.8264 10.9403 18.5452L2.4548 10.0597C2.1736 9.7784 2.01563 9.39694 2.01562 8.9992C2.01562 8.60145 2.1736 8.21999 2.4548 7.9387Z" fill="#B0CAFF"/>
</svg>
