<svg width="24" height="24" viewBox="0 0 24 24" fill="none" xmlns="http://www.w3.org/2000/svg">
<path d="M2.45432 7.93949C2.73561 7.65828 3.11707 7.50031 3.51482 7.50031C3.91256 7.50031 4.29402 7.65828 4.57532 7.93949L12.0003 15.3645L19.4253 7.93949C19.7082 7.66625 20.0871 7.51506 20.4804 7.51847C20.8737 7.52189 21.2499 7.67964 21.528 7.95776C21.8062 8.23587 21.9639 8.61209 21.9673 9.00538C21.9707 9.39868 21.8196 9.77758 21.5463 10.0605L13.0608 18.546C12.7795 18.8272 12.3981 18.9852 12.0003 18.9852C11.6026 18.9852 11.2211 18.8272 10.9398 18.546L2.45432 10.0605C2.17311 9.77919 2.01514 9.39773 2.01514 8.99998C2.01514 8.60224 2.17311 8.22078 2.45432 7.93949Z" fill="#0E0E0E"/>
</svg>
