<svg width="48" height="48" viewBox="0 0 48 48" fill="none" xmlns="http://www.w3.org/2000/svg">
<path d="M18 7.5V15H15V12H6V39H9V40.5C9 42.9675 11.0325 45 13.5 45C15.9675 45 18 42.9675 18 40.5V39H42V15H36V7.5H18ZM21 10.5H33V18H21V10.5ZM9 15H12V36H9V15ZM15 18H18V21H36V18H39V36H15V18ZM19.5 24V27H22.5V24H19.5ZM25.5 24V27H28.5V24H25.5ZM31.5 24V27H34.5V24H31.5ZM19.5 30V33H22.5V30H19.5ZM25.5 30V33H28.5V30H25.5ZM31.5 30V33H34.5V30H31.5ZM12 39H15V40.5C15 41.3325 14.3325 42 13.5 42C12.6675 42 12 41.3325 12 40.5V39Z" fill="#0040C3"/>
</svg>
