<svg width="30" height="30" viewBox="0 0 30 30" fill="none" xmlns="http://www.w3.org/2000/svg">
<path d="M16.1942 22.8337H5.77756C5.4092 22.8337 5.05594 22.6873 4.79547 22.4269C4.535 22.1664 4.38867 21.8131 4.38867 21.4448V7.55588C4.38867 7.18752 4.535 6.83426 4.79547 6.57379C5.05594 6.31332 5.4092 6.16699 5.77756 6.16699H25.222C25.5904 6.16699 25.9436 6.31332 26.2041 6.57379C26.4646 6.83426 26.6109 7.18752 26.6109 7.55588V14.7573C25.6857 13.579 24.34 12.805 22.8563 12.5979C21.3725 12.3907 19.8663 12.7666 18.6538 13.6465C17.4413 14.5264 16.617 15.8419 16.3539 17.3168C16.0908 18.7916 16.4094 20.311 17.2428 21.5559L16.597 22.3475L16.1942 22.8337ZM7.86089 10.3337V11.4448H19.6664V10.3337H7.86089ZM7.86089 14.2225H15.4998V13.1114H7.86089V14.2225ZM7.86089 19.0837H14.8053V17.9725H7.86089V19.0837Z" fill="#0040C3"/>
<path d="M26.4932 18.3821C26.4951 17.6499 26.3151 16.9286 25.9695 16.2831C25.624 15.6376 25.1235 15.0879 24.5132 14.6834C23.9028 14.2789 23.2016 14.0323 22.4724 13.9656C21.7432 13.899 21.0089 14.0143 20.3353 14.3014C19.6617 14.5885 19.0699 15.0383 18.6129 15.6105C18.156 16.1826 17.8483 16.8593 17.7173 17.5797C17.5864 18.3001 17.6363 19.0418 17.8626 19.7382C18.0889 20.4345 18.4846 21.0638 19.014 21.5696L17.6668 23.2154L18.2918 25.7224L20.8335 22.6252C21.638 22.863 22.4942 22.863 23.2988 22.6252L25.8404 25.7224L26.4654 23.2154L25.1182 21.5696C25.5515 21.1592 25.8967 20.665 26.1331 20.1171C26.3695 19.5691 26.492 18.9789 26.4932 18.3821ZM19.0349 18.3821C19.0266 17.7802 19.1975 17.1894 19.5259 16.6849C19.8543 16.1804 20.3253 15.7849 20.8791 15.5489C21.4328 15.3128 22.0443 15.2467 22.6357 15.359C23.2271 15.4714 23.7717 15.7571 24.2003 16.1798C24.6289 16.6025 24.9221 17.1431 25.0426 17.7329C25.1631 18.3227 25.1055 18.935 24.8771 19.4919C24.6487 20.0489 24.2598 20.5253 23.7598 20.8607C23.2599 21.196 22.6716 21.3751 22.0696 21.3752C21.272 21.377 20.506 21.0634 19.9388 20.5027C19.3716 19.9419 19.0491 19.1797 19.0418 18.3821H19.0349Z" fill="#0040C3"/>
</svg>
