<svg width="100" height="100" viewBox="0 0 100 100" fill="none" xmlns="http://www.w3.org/2000/svg">
<path d="M50 29.1667C50 33.5869 48.2441 37.8262 45.1185 40.9518C41.9929 44.0774 37.7536 45.8333 33.3333 45.8333C28.9131 45.8333 24.6738 44.0774 21.5482 40.9518C18.4226 37.8262 16.6667 33.5869 16.6667 29.1667C16.6667 24.7464 18.4226 20.5072 21.5482 17.3816C24.6738 14.2559 28.9131 12.5 33.3333 12.5C37.7536 12.5 41.9929 14.2559 45.1185 17.3816C48.2441 20.5072 50 24.7464 50 29.1667ZM83.3333 33.3333C83.3333 36.6485 82.0164 39.828 79.6722 42.1722C77.328 44.5164 74.1485 45.8333 70.8333 45.8333C67.5181 45.8333 64.3387 44.5164 61.9945 42.1722C59.6503 39.828 58.3333 36.6485 58.3333 33.3333C58.3333 30.0181 59.6503 26.8387 61.9945 24.4945C64.3387 22.1503 67.5181 20.8333 70.8333 20.8333C74.1485 20.8333 77.328 22.1503 79.6722 24.4945C82.0164 26.8387 83.3333 30.0181 83.3333 33.3333ZM8.33334 63.5417C8.33334 61.0553 9.32106 58.6707 11.0792 56.9125C12.8374 55.1544 15.2219 54.1667 17.7083 54.1667H48.9583C50.275 54.1667 51.5292 54.4375 52.6667 54.9292C48.2555 59.8813 45.8229 66.2848 45.8333 72.9167C45.8307 75.5802 46.221 78.2295 46.9917 80.7792C43.575 82.3333 39.125 83.3333 33.3333 83.3333C8.33334 83.3333 8.33334 64.5833 8.33334 64.5833V63.5417ZM72.9208 95.8417C77.9494 95.8405 82.838 94.1857 86.8333 91.1323C90.8286 88.0789 93.709 83.7963 95.0305 78.9446C96.3521 74.0928 96.0414 68.9411 94.1464 64.2833C92.2515 59.6255 88.8774 55.7201 84.5441 53.1689C80.2108 50.6177 75.1588 49.5624 70.1665 50.1654C65.1743 50.7685 60.5189 52.9965 56.9178 56.5062C53.3166 60.0159 50.9696 64.6124 50.2383 69.5874C49.507 74.5625 50.432 79.64 52.8708 84.0375L50.0958 93.1458C49.9848 93.5074 49.9743 93.8923 50.0654 94.2594C50.1565 94.6265 50.3458 94.9618 50.613 95.2295C50.8803 95.4971 51.2153 95.687 51.5822 95.7787C51.9492 95.8704 52.3341 95.8605 52.6958 95.75L61.8083 92.975C65.1 94.8042 68.8917 95.8417 72.9208 95.8417ZM64.5875 70.8417C64.0344 70.8417 63.504 70.622 63.1129 70.2309C62.7218 69.8398 62.5021 69.3093 62.5021 68.7562C62.5021 68.2032 62.7218 67.6727 63.1129 67.2816C63.504 66.8905 64.0344 66.6708 64.5875 66.6708H81.2542C81.8067 66.6708 82.3366 66.8903 82.7273 67.281C83.118 67.6717 83.3375 68.2016 83.3375 68.7542C83.3375 69.3067 83.118 69.8366 82.7273 70.2273C82.3366 70.618 81.8067 70.8375 81.2542 70.8375L64.5875 70.8417ZM72.9208 79.175H64.5875C64.035 79.175 63.5051 78.9555 63.1144 78.5648C62.7237 78.1741 62.5042 77.6442 62.5042 77.0917C62.5042 76.5391 62.7237 76.0092 63.1144 75.6185C63.5051 75.2278 64.035 75.0083 64.5875 75.0083H72.9208C73.4734 75.0083 74.0033 75.2278 74.394 75.6185C74.7847 76.0092 75.0042 76.5391 75.0042 77.0917C75.0042 77.6442 74.7847 78.1741 74.394 78.5648C74.0033 78.9555 73.4734 79.175 72.9208 79.175Z" fill="#1D5BDB"/>
</svg>
