<svg width="28" height="28" viewBox="0 0 28 28" fill="none" xmlns="http://www.w3.org/2000/svg">
<path d="M24.0625 21.7383C24.6641 22.0391 25.2064 22.4082 25.6895 22.8457C26.1725 23.2832 26.5827 23.7708 26.9199 24.3086C27.2572 24.8464 27.5215 25.4297 27.7129 26.0586C27.9043 26.6875 28 27.3346 28 28H26.25C26.25 27.2799 26.1133 26.6009 25.8398 25.9629C25.5664 25.3249 25.1927 24.7689 24.7188 24.2949C24.2448 23.821 23.6842 23.4427 23.0371 23.1602C22.39 22.8776 21.7109 22.7409 21 22.75C20.2708 22.75 19.5918 22.8867 18.9629 23.1602C18.334 23.4336 17.778 23.8073 17.2949 24.2812C16.8118 24.7552 16.4336 25.3158 16.1602 25.9629C15.8867 26.61 15.75 27.2891 15.75 28H14C14 27.3346 14.0911 26.6875 14.2734 26.0586C14.4557 25.4297 14.7201 24.8464 15.0664 24.3086C15.4128 23.7708 15.8275 23.2832 16.3105 22.8457C16.7936 22.4082 17.3359 22.0391 17.9375 21.7383C17.2539 21.2461 16.7207 20.6309 16.3379 19.8926C15.9551 19.1543 15.7591 18.3568 15.75 17.5C15.75 16.7799 15.8867 16.1009 16.1602 15.4629C16.4336 14.8249 16.8073 14.2689 17.2812 13.7949C17.7552 13.321 18.3112 12.9427 18.9492 12.6602C19.5872 12.3776 20.2708 12.2409 21 12.25C21.7201 12.25 22.3991 12.3867 23.0371 12.6602C23.6751 12.9336 24.2311 13.3073 24.7051 13.7812C25.179 14.2552 25.5573 14.8158 25.8398 15.4629C26.1224 16.11 26.2591 16.7891 26.25 17.5C26.25 18.3568 26.0586 19.1543 25.6758 19.8926C25.293 20.6309 24.7552 21.2461 24.0625 21.7383ZM21 21C21.4831 21 21.9342 20.9089 22.3535 20.7266C22.7728 20.5443 23.1465 20.2936 23.4746 19.9746C23.8027 19.6556 24.0534 19.2865 24.2266 18.8672C24.3997 18.4479 24.4909 17.9922 24.5 17.5C24.5 17.0169 24.4089 16.5658 24.2266 16.1465C24.0443 15.7272 23.7936 15.3535 23.4746 15.0254C23.1556 14.6973 22.7865 14.4466 22.3672 14.2734C21.9479 14.1003 21.4922 14.0091 21 14C20.5169 14 20.0658 14.0911 19.6465 14.2734C19.2272 14.4557 18.8535 14.7064 18.5254 15.0254C18.1973 15.3444 17.9466 15.7135 17.7734 16.1328C17.6003 16.5521 17.5091 17.0078 17.5 17.5C17.5 17.9831 17.5911 18.4342 17.7734 18.8535C17.9557 19.2728 18.2064 19.6465 18.5254 19.9746C18.8444 20.3027 19.2135 20.5534 19.6328 20.7266C20.0521 20.8997 20.5078 20.9909 21 21ZM14 22.0938C13.7083 22.431 13.444 22.7819 13.207 23.1465C12.9701 23.5111 12.7604 23.903 12.5781 24.3223C12.0951 23.821 11.5117 23.4336 10.8281 23.1602C10.1445 22.8867 9.45182 22.75 8.75 22.75H3.5V5.25H1.75V24.5H12.5098C12.3822 24.7826 12.2773 25.0697 12.1953 25.3613C12.1133 25.653 12.0449 25.9492 11.9902 26.25H0V3.5H3.5V1.75H8.75C9.55208 1.75 10.3223 1.87305 11.0605 2.11914C11.7988 2.36523 12.487 2.73438 13.125 3.22656C13.7539 2.73438 14.4375 2.36523 15.1758 2.11914C15.9141 1.87305 16.6888 1.75 17.5 1.75H22.75V3.5H26.25V12.25C25.7214 11.7305 25.138 11.2975 24.5 10.9512V5.25H22.75V10.2949C22.4583 10.2129 22.1667 10.1536 21.875 10.1172C21.5833 10.0807 21.2917 10.0625 21 10.0625V3.5H17.5C16.862 3.5 16.2422 3.60938 15.6406 3.82812C15.0391 4.04688 14.4922 4.37044 14 4.79883V22.0938ZM12.25 21.916V4.79883C11.7578 4.37956 11.2109 4.06055 10.6094 3.8418C10.0078 3.62305 9.38802 3.50911 8.75 3.5H5.25V21H8.75C9.36068 21 9.96224 21.0775 10.5547 21.2324C11.1471 21.3874 11.7122 21.6152 12.25 21.916Z" fill="white"/>
</svg>
