<svg width="82" height="13" viewBox="0 0 82 13" fill="none" xmlns="http://www.w3.org/2000/svg">
<path d="M13.8512 5.40894L10.7834 8.32308L11.5079 12.439C11.5394 12.6189 11.4636 12.8008 11.3119 12.9083C11.2262 12.9693 11.1242 13 11.0223 13C10.944 13 10.8652 12.9818 10.7933 12.9448L7 11.0016L3.20722 12.9443C3.04174 13.0298 2.8403 13.0158 2.68861 12.9079C2.53692 12.8003 2.46107 12.6185 2.49259 12.4385L3.21707 8.3226L0.14876 5.40894C0.0147986 5.28128 -0.0339595 5.09026 0.0241562 4.91701C0.0822718 4.74375 0.236426 4.61657 0.4221 4.59018L4.66208 3.99026L6.55822 0.245844C6.7242 -0.0819482 7.2758 -0.0819482 7.44178 0.245844L9.33792 3.99026L13.5779 4.59018C13.7636 4.61657 13.9177 4.74327 13.9758 4.91701C14.034 5.09074 13.9852 5.2808 13.8512 5.40894Z" fill="#F7BF2E"/>
<path d="M30.8512 5.40894L27.7834 8.32308L28.5079 12.439C28.5394 12.6189 28.4636 12.8008 28.3119 12.9083C28.2262 12.9693 28.1242 13 28.0223 13C27.944 13 27.8652 12.9818 27.7933 12.9448L24 11.0016L20.2072 12.9443C20.0417 13.0298 19.8403 13.0158 19.6886 12.9079C19.5369 12.8003 19.4611 12.6185 19.4926 12.4385L20.2171 8.3226L17.1488 5.40894C17.0148 5.28128 16.966 5.09026 17.0242 4.91701C17.0823 4.74375 17.2364 4.61657 17.4221 4.59018L21.6621 3.99026L23.5582 0.245844C23.7242 -0.0819482 24.2758 -0.0819482 24.4418 0.245844L26.3379 3.99026L30.5779 4.59018C30.7636 4.61657 30.9177 4.74327 30.9758 4.91701C31.034 5.09074 30.9852 5.2808 30.8512 5.40894Z" fill="#F7BF2E"/>
<path d="M47.8512 5.40894L44.7834 8.32308L45.5079 12.439C45.5394 12.6189 45.4636 12.8008 45.3119 12.9083C45.2262 12.9693 45.1242 13 45.0223 13C44.944 13 44.8652 12.9818 44.7933 12.9448L41 11.0016L37.2072 12.9443C37.0417 13.0298 36.8403 13.0158 36.6886 12.9079C36.5369 12.8003 36.4611 12.6185 36.4926 12.4385L37.2171 8.3226L34.1488 5.40894C34.0148 5.28128 33.966 5.09026 34.0242 4.91701C34.0823 4.74375 34.2364 4.61657 34.4221 4.59018L38.6621 3.99026L40.5582 0.245844C40.7242 -0.0819482 41.2758 -0.0819482 41.4418 0.245844L43.3379 3.99026L47.5779 4.59018C47.7636 4.61657 47.9177 4.74327 47.9758 4.91701C48.034 5.09074 47.9852 5.2808 47.8512 5.40894Z" fill="#F7BF2E"/>
<path d="M64.8512 5.40894L61.7834 8.32308L62.5079 12.439C62.5394 12.6189 62.4636 12.8008 62.3119 12.9083C62.2262 12.9693 62.1242 13 62.0223 13C61.944 13 61.8652 12.9818 61.7933 12.9448L58 11.0016L54.2072 12.9443C54.0417 13.0298 53.8403 13.0158 53.6886 12.9079C53.5369 12.8003 53.4611 12.6185 53.4926 12.4385L54.2171 8.3226L51.1488 5.40894C51.0148 5.28128 50.966 5.09026 51.0242 4.91701C51.0823 4.74375 51.2364 4.61657 51.4221 4.59018L55.6621 3.99026L57.5582 0.245844C57.7242 -0.0819482 58.2758 -0.0819482 58.4418 0.245844L60.3379 3.99026L64.5779 4.59018C64.7636 4.61657 64.9177 4.74327 64.9758 4.91701C65.034 5.09074 64.9852 5.2808 64.8512 5.40894Z" fill="#F7BF2E"/>
<path d="M81.8512 5.40894L78.7834 8.32308L79.5079 12.439C79.5394 12.6189 79.4636 12.8008 79.3119 12.9083C79.2262 12.9693 79.1242 13 79.0223 13C78.944 13 78.8652 12.9818 78.7933 12.9448L75 11.0016L71.2072 12.9443C71.0417 13.0298 70.8403 13.0158 70.6886 12.9079C70.5369 12.8003 70.4611 12.6185 70.4926 12.4385L71.2171 8.3226L68.1488 5.40894C68.0148 5.28128 67.966 5.09026 68.0242 4.91701C68.0823 4.74375 68.2364 4.61657 68.4221 4.59018L72.6621 3.99026L74.5582 0.245844C74.7242 -0.0819482 75.2758 -0.0819482 75.4418 0.245844L77.3379 3.99026L81.5779 4.59018C81.7636 4.61657 81.9177 4.74327 81.9758 4.91701C82.034 5.09074 81.9852 5.2808 81.8512 5.40894Z" fill="#F7BF2E"/>
</svg>
