<svg width="36" height="6" viewBox="0 0 36 6" fill="none" xmlns="http://www.w3.org/2000/svg">
<path d="M2.95553 0.345942L3.57839 1.6572C3.59256 1.69048 3.61484 1.71931 3.64302 1.74081C3.6712 1.76231 3.7043 1.77574 3.739 1.77975L5.114 1.99216C5.15381 1.9975 5.19135 2.01453 5.22222 2.04128C5.25309 2.06803 5.27603 2.10339 5.28835 2.14323C5.30068 2.18306 5.30188 2.22573 5.29181 2.26625C5.28175 2.30677 5.26084 2.34347 5.23152 2.37206L4.24043 3.39737C4.21513 3.42201 4.19615 3.45286 4.1852 3.48711C4.17425 3.52135 4.17169 3.55791 4.17775 3.59345L4.41671 5.03542C4.42363 5.07685 4.41925 5.11948 4.40409 5.15845C4.38892 5.19742 4.36356 5.23117 4.33091 5.25585C4.29826 5.28054 4.25961 5.29517 4.21938 5.29809C4.17914 5.301 4.13893 5.29208 4.10332 5.27234L2.86543 4.59016C2.83373 4.57394 2.79889 4.5655 2.76358 4.5655C2.72827 4.5655 2.69343 4.57394 2.66173 4.59016L1.42384 5.27234C1.38823 5.29208 1.34801 5.301 1.30778 5.29809C1.26754 5.29517 1.2289 5.28054 1.19625 5.25585C1.16359 5.23117 1.13824 5.19742 1.12307 5.15845C1.10791 5.11948 1.10353 5.07685 1.11045 5.03542L1.34941 3.57711C1.35547 3.54157 1.3529 3.50501 1.34196 3.47077C1.33101 3.43652 1.31203 3.40567 1.28673 3.38103L0.283887 2.37206C0.254218 2.34269 0.233353 2.30497 0.223819 2.26349C0.214286 2.222 0.216494 2.17852 0.230175 2.13832C0.243855 2.09811 0.268423 2.06291 0.3009 2.03697C0.333378 2.01103 0.372372 1.99546 0.41316 1.99216L1.78816 1.77975C1.82286 1.77574 1.85596 1.76231 1.88414 1.74081C1.91232 1.71931 1.9346 1.69048 1.94877 1.6572L2.57163 0.345942C2.58859 0.307751 2.61568 0.275418 2.64969 0.252758C2.6837 0.230098 2.72322 0.218058 2.76358 0.218058C2.80394 0.218058 2.84346 0.230098 2.87747 0.252758C2.91148 0.275418 2.93857 0.307751 2.95553 0.345942Z" fill="#F7BF2E" stroke="#F7BF2E" stroke-width="0.429092" stroke-linecap="round" stroke-linejoin="round"/>
<path d="M10.5764 0.345942L11.1993 1.6572C11.2134 1.69048 11.2357 1.71931 11.2639 1.74081C11.2921 1.76231 11.3252 1.77574 11.3599 1.77975L12.7349 1.99216C12.7747 1.9975 12.8122 2.01453 12.8431 2.04128C12.874 2.06803 12.8969 2.10339 12.9092 2.14323C12.9215 2.18306 12.9227 2.22573 12.9127 2.26625C12.9026 2.30677 12.8817 2.34347 12.8524 2.37206L11.8613 3.39737C11.836 3.42201 11.817 3.45286 11.8061 3.48711C11.7951 3.52135 11.7926 3.55791 11.7986 3.59345L12.0376 5.03542C12.0445 5.07685 12.0401 5.11948 12.0249 5.15845C12.0098 5.19742 11.9844 5.23117 11.9518 5.25585C11.9191 5.28054 11.8805 5.29517 11.8402 5.29809C11.8 5.301 11.7598 5.29208 11.7242 5.27234L10.4863 4.59016C10.4546 4.57394 10.4197 4.5655 10.3844 4.5655C10.3491 4.5655 10.3143 4.57394 10.2826 4.59016L9.0447 5.27234C9.00909 5.29208 8.96887 5.301 8.92864 5.29809C8.8884 5.29517 8.84976 5.28054 8.81711 5.25585C8.78445 5.23117 8.7591 5.19742 8.74393 5.15845C8.72876 5.11948 8.72439 5.07685 8.73131 5.03542L8.97027 3.57711C8.97633 3.54157 8.97376 3.50501 8.96282 3.47077C8.95187 3.43652 8.93289 3.40567 8.90759 3.38103L7.90475 2.37206C7.87508 2.34269 7.85421 2.30497 7.84468 2.26349C7.83515 2.222 7.83735 2.17852 7.85103 2.13832C7.86471 2.09811 7.88928 2.06291 7.92176 2.03697C7.95424 2.01103 7.99323 1.99546 8.03402 1.99216L9.40901 1.77975C9.44372 1.77574 9.47681 1.76231 9.50499 1.74081C9.53318 1.71931 9.55546 1.69048 9.56963 1.6572L10.1925 0.345942C10.2094 0.307751 10.2365 0.275418 10.2705 0.252758C10.3046 0.230098 10.3441 0.218058 10.3844 0.218058C10.4248 0.218058 10.4643 0.230098 10.4983 0.252758C10.5323 0.275418 10.5594 0.307751 10.5764 0.345942Z" fill="#F7BF2E" stroke="#F7BF2E" stroke-width="0.429092" stroke-linecap="round" stroke-linejoin="round"/>
<path d="M18.1972 0.346066L18.8201 1.65732C18.8343 1.6906 18.8566 1.71943 18.8847 1.74093C18.9129 1.76244 18.946 1.77586 18.9807 1.77987L20.3557 1.99228C20.3955 1.99762 20.4331 2.01466 20.4639 2.04141C20.4948 2.06816 20.5177 2.10351 20.5301 2.14335C20.5424 2.18319 20.5436 2.22585 20.5335 2.26637C20.5235 2.30689 20.5026 2.34359 20.4732 2.37218L19.4821 3.39749C19.4568 3.42214 19.4379 3.45298 19.4269 3.48723C19.416 3.52147 19.4134 3.55803 19.4195 3.59357L19.6584 5.03554C19.6653 5.07698 19.661 5.1196 19.6458 5.15857C19.6306 5.19754 19.6053 5.23129 19.5726 5.25598C19.54 5.28067 19.5013 5.2953 19.4611 5.29821C19.4209 5.30113 19.3806 5.29221 19.345 5.27247L18.1071 4.59029C18.0755 4.57406 18.0406 4.56562 18.0053 4.56562C17.97 4.56562 17.9351 4.57406 17.9034 4.59029L16.6656 5.27247C16.6299 5.29221 16.5897 5.30113 16.5495 5.29821C16.5093 5.2953 16.4706 5.28067 16.438 5.25598C16.4053 5.23129 16.38 5.19754 16.3648 5.15857C16.3496 5.1196 16.3452 5.07698 16.3522 5.03554L16.5911 3.57723C16.5972 3.54169 16.5946 3.50513 16.5837 3.47089C16.5727 3.43664 16.5537 3.4058 16.5285 3.38115L15.5256 2.37218C15.4959 2.34281 15.4751 2.3051 15.4655 2.26361C15.456 2.22212 15.4582 2.17865 15.4719 2.13844C15.4856 2.09824 15.5101 2.06303 15.5426 2.03709C15.5751 2.01115 15.6141 1.99559 15.6549 1.99228L17.0299 1.77987C17.0646 1.77586 17.0977 1.76244 17.1259 1.74093C17.154 1.71943 17.1763 1.6906 17.1905 1.65732L17.8133 0.346066C17.8303 0.307875 17.8574 0.275542 17.8914 0.252882C17.9254 0.230222 17.9649 0.218182 18.0053 0.218182C18.0457 0.218182 18.0852 0.230222 18.1192 0.252882C18.1532 0.275542 18.1803 0.307875 18.1972 0.346066Z" fill="#F7BF2E" stroke="#F7BF2E" stroke-width="0.429092" stroke-linecap="round" stroke-linejoin="round"/>
<path d="M25.8181 0.345942L26.441 1.6572C26.4551 1.69048 26.4774 1.71931 26.5056 1.74081C26.5338 1.76231 26.5669 1.77574 26.6016 1.77975L27.9766 1.99216C28.0164 1.9975 28.0539 2.01453 28.0848 2.04128C28.1157 2.06803 28.1386 2.10339 28.1509 2.14323C28.1633 2.18306 28.1645 2.22573 28.1544 2.26625C28.1443 2.30677 28.1234 2.34347 28.0941 2.37206L27.103 3.39737C27.0777 3.42201 27.0587 3.45286 27.0478 3.48711C27.0368 3.52135 27.0343 3.55791 27.0403 3.59345L27.2793 5.03542C27.2862 5.07685 27.2818 5.11948 27.2667 5.15845C27.2515 5.19742 27.2261 5.23117 27.1935 5.25585C27.1608 5.28054 27.1222 5.29517 27.082 5.29809C27.0417 5.301 27.0015 5.29208 26.9659 5.27234L25.728 4.59016C25.6963 4.57394 25.6615 4.5655 25.6262 4.5655C25.5908 4.5655 25.556 4.57394 25.5243 4.59016L24.2864 5.27234C24.2508 5.29208 24.2106 5.301 24.1704 5.29809C24.1301 5.29517 24.0915 5.28054 24.0588 5.25585C24.0262 5.23117 24.0008 5.19742 23.9856 5.15845C23.9705 5.11948 23.9661 5.07685 23.973 5.03542L24.212 3.57711C24.218 3.54157 24.2155 3.50501 24.2045 3.47077C24.1936 3.43652 24.1746 3.40567 24.1493 3.38103L23.1465 2.37206C23.1168 2.34269 23.0959 2.30497 23.0864 2.26349C23.0769 2.222 23.0791 2.17852 23.0928 2.13832C23.1064 2.09811 23.131 2.06291 23.1635 2.03697C23.196 2.01103 23.2349 1.99546 23.2757 1.99216L24.6507 1.77975C24.6854 1.77574 24.7185 1.76231 24.7467 1.74081C24.7749 1.71931 24.7972 1.69048 24.8113 1.6572L25.4342 0.345942C25.4512 0.307751 25.4783 0.275418 25.5123 0.252758C25.5463 0.230098 25.5858 0.218058 25.6262 0.218058C25.6665 0.218058 25.706 0.230098 25.74 0.252758C25.7741 0.275418 25.8011 0.307751 25.8181 0.345942Z" fill="#F7BF2E" stroke="#F7BF2E" stroke-width="0.429092" stroke-linecap="round" stroke-linejoin="round"/>
<path d="M33.439 0.345942L34.0618 1.6572C34.076 1.69048 34.0983 1.71931 34.1265 1.74081C34.1546 1.76231 34.1877 1.77574 34.2224 1.77975L35.5974 1.99216C35.6372 1.9975 35.6748 2.01453 35.7057 2.04128C35.7365 2.06803 35.7595 2.10339 35.7718 2.14323C35.7841 2.18306 35.7853 2.22573 35.7752 2.26625C35.7652 2.30677 35.7443 2.34347 35.715 2.37206L34.7239 3.39737C34.6986 3.42201 34.6796 3.45286 34.6686 3.48711C34.6577 3.52135 34.6551 3.55791 34.6612 3.59345L34.9001 5.03542C34.9071 5.07685 34.9027 5.11948 34.8875 5.15845C34.8724 5.19742 34.847 5.23117 34.8143 5.25586C34.7817 5.28054 34.7431 5.29517 34.7028 5.29809C34.6626 5.30101 34.6224 5.29208 34.5868 5.27234L33.3489 4.59016C33.3172 4.57394 33.2823 4.5655 33.247 4.5655C33.2117 4.5655 33.1769 4.57394 33.1452 4.59016L31.9073 5.27234C31.8717 5.29208 31.8315 5.30101 31.7912 5.29809C31.751 5.29517 31.7123 5.28054 31.6797 5.25586C31.647 5.23117 31.6217 5.19742 31.6065 5.15845C31.5913 5.11948 31.587 5.07685 31.5939 5.03542L31.8328 3.57711C31.8389 3.54157 31.8363 3.50501 31.8254 3.47077C31.8144 3.43652 31.7955 3.40567 31.7702 3.38103L30.7673 2.37206C30.7377 2.34269 30.7168 2.30497 30.7073 2.26349C30.6977 2.222 30.6999 2.17852 30.7136 2.13832C30.7273 2.09811 30.7519 2.06291 30.7843 2.03697C30.8168 2.01103 30.8558 1.99546 30.8966 1.99216L32.2716 1.77975C32.3063 1.77574 32.3394 1.76231 32.3676 1.74081C32.3958 1.71931 32.418 1.69048 32.4322 1.6572L33.0551 0.345942C33.072 0.307751 33.0991 0.275418 33.1331 0.252758C33.1671 0.230098 33.2067 0.218058 33.247 0.218058C33.2874 0.218058 33.3269 0.230098 33.3609 0.252758C33.3949 0.275418 33.422 0.307751 33.439 0.345942Z" fill="#F7BF2E" stroke="#F7BF2E" stroke-width="0.429092" stroke-linecap="round" stroke-linejoin="round"/>
</svg>
