<svg width="71" height="11" viewBox="0 0 71 11" fill="none" xmlns="http://www.w3.org/2000/svg">
<path d="M5.82896 0.682151L7.05738 3.26824C7.08532 3.33388 7.12927 3.39074 7.18485 3.43314C7.24043 3.47555 7.3057 3.50202 7.37414 3.50993L10.0859 3.92886C10.1645 3.93939 10.2385 3.97299 10.2994 4.02574C10.3603 4.0785 10.4055 4.14823 10.4298 4.2268C10.4541 4.30536 10.4565 4.38951 10.4366 4.46943C10.4168 4.54934 10.3755 4.62172 10.3177 4.6781L8.36306 6.70025C8.31318 6.74885 8.27573 6.80969 8.25415 6.87722C8.23256 6.94476 8.2275 7.01686 8.23945 7.08695L8.71073 9.93084C8.72437 10.0126 8.71575 10.0966 8.68583 10.1735C8.65592 10.2503 8.60592 10.3169 8.54152 10.3656C8.47712 10.4143 8.40091 10.4431 8.32155 10.4489C8.2422 10.4546 8.16289 10.437 8.09266 10.3981L5.65127 9.0527C5.58875 9.0207 5.52003 9.00406 5.45039 9.00406C5.38075 9.00406 5.31203 9.0207 5.24952 9.0527L2.80813 10.3981C2.73789 10.437 2.65858 10.4546 2.57923 10.4489C2.49988 10.4431 2.42366 10.4143 2.35926 10.3656C2.29486 10.3169 2.24486 10.2503 2.21495 10.1735C2.18504 10.0966 2.17641 10.0126 2.19006 9.93084L2.66134 7.05473C2.67328 6.98463 2.66823 6.91254 2.64664 6.845C2.62505 6.77746 2.58761 6.71662 2.53772 6.66802L0.559888 4.6781C0.501373 4.62017 0.460223 4.5458 0.441422 4.46398C0.42262 4.38216 0.426974 4.29641 0.453955 4.21712C0.480937 4.13782 0.529389 4.06839 0.593442 4.01723C0.657495 3.96607 0.7344 3.93537 0.814843 3.92886L3.52664 3.50993C3.59509 3.50202 3.66036 3.47555 3.71593 3.43314C3.77151 3.39074 3.81546 3.33388 3.8434 3.26824L5.07182 0.682151C5.10528 0.606831 5.15869 0.543063 5.22577 0.498373C5.29285 0.453683 5.37079 0.429936 5.45039 0.429936C5.52999 0.429936 5.60793 0.453683 5.67501 0.498373C5.74209 0.543063 5.79551 0.606831 5.82896 0.682151Z" fill="#F7BF2E" stroke="#F7BF2E" stroke-width="0.858183" stroke-linecap="round" stroke-linejoin="round"/>
<path d="M20.859 0.682151L22.0874 3.26824C22.1153 3.33388 22.1593 3.39074 22.2149 3.43314C22.2705 3.47555 22.3357 3.50202 22.4042 3.50993L25.116 3.92886C25.1945 3.93939 25.2685 3.97299 25.3294 4.02574C25.3903 4.0785 25.4355 4.14823 25.4598 4.2268C25.4841 4.30536 25.4865 4.38951 25.4667 4.46943C25.4468 4.54934 25.4056 4.62172 25.3477 4.6781L23.3931 6.70025C23.3432 6.74885 23.3058 6.80969 23.2842 6.87722C23.2626 6.94476 23.2575 7.01686 23.2695 7.08695L23.7408 9.93084C23.7544 10.0126 23.7458 10.0966 23.7159 10.1735C23.6859 10.2503 23.6359 10.3169 23.5715 10.3656C23.5071 10.4143 23.4309 10.4431 23.3516 10.4489C23.2722 10.4546 23.1929 10.437 23.1227 10.3981L20.6813 9.0527C20.6188 9.0207 20.5501 9.00406 20.4804 9.00406C20.4108 9.00406 20.3421 9.0207 20.2795 9.0527L17.8382 10.3981C17.7679 10.437 17.6886 10.4546 17.6093 10.4489C17.5299 10.4431 17.4537 10.4143 17.3893 10.3656C17.3249 10.3169 17.2749 10.2503 17.245 10.1735C17.2151 10.0966 17.2064 10.0126 17.2201 9.93084L17.6914 7.05473C17.7033 6.98463 17.6983 6.91254 17.6767 6.845C17.6551 6.77746 17.6176 6.71662 17.5677 6.66802L15.5899 4.6781C15.5314 4.62017 15.4903 4.5458 15.4714 4.46398C15.4526 4.38216 15.457 4.29641 15.484 4.21712C15.511 4.13782 15.5594 4.06839 15.6235 4.01723C15.6875 3.96607 15.7644 3.93537 15.8449 3.92886L18.5567 3.50993C18.6251 3.50202 18.6904 3.47555 18.746 3.43314C18.8015 3.39074 18.8455 3.33388 18.8734 3.26824L20.1018 0.682151C20.1353 0.606831 20.1887 0.543063 20.2558 0.498373C20.3229 0.453683 20.4008 0.429936 20.4804 0.429936C20.56 0.429936 20.638 0.453683 20.705 0.498373C20.7721 0.543063 20.8255 0.606831 20.859 0.682151Z" fill="#F7BF2E" stroke="#F7BF2E" stroke-width="0.858183" stroke-linecap="round" stroke-linejoin="round"/>
<path d="M35.889 0.682151L37.1174 3.26824C37.1454 3.33388 37.1893 3.39074 37.2449 3.43314C37.3005 3.47555 37.3657 3.50202 37.4342 3.50993L40.146 3.92886C40.2245 3.93939 40.2985 3.97299 40.3594 4.02574C40.4203 4.0785 40.4656 4.14823 40.4899 4.2268C40.5142 4.30536 40.5165 4.38951 40.4967 4.46943C40.4768 4.54934 40.4356 4.62172 40.3778 4.6781L38.4231 6.70025C38.3732 6.74885 38.3358 6.80969 38.3142 6.87722C38.2926 6.94476 38.2876 7.01686 38.2995 7.08695L38.7708 9.93084C38.7844 10.0126 38.7758 10.0966 38.7459 10.1735C38.716 10.2503 38.666 10.3169 38.6016 10.3656C38.5372 10.4143 38.461 10.4431 38.3816 10.4489C38.3023 10.4546 38.2229 10.437 38.1527 10.3981L35.7113 9.0527C35.6488 9.0207 35.5801 9.00406 35.5104 9.00406C35.4408 9.00406 35.3721 9.0207 35.3096 9.0527L32.8682 10.3981C32.7979 10.437 32.7186 10.4546 32.6393 10.4489C32.5599 10.4431 32.4837 10.4143 32.4193 10.3656C32.3549 10.3169 32.3049 10.2503 32.275 10.1735C32.2451 10.0966 32.2365 10.0126 32.2501 9.93084L32.7214 7.05473C32.7333 6.98463 32.7283 6.91254 32.7067 6.845C32.6851 6.77746 32.6477 6.71662 32.5978 6.66802L30.6199 4.6781C30.5614 4.62017 30.5203 4.5458 30.5015 4.46398C30.4827 4.38216 30.487 4.29641 30.514 4.21712C30.541 4.13782 30.5894 4.06839 30.6535 4.01723C30.7175 3.96607 30.7945 3.93537 30.8749 3.92886L33.5867 3.50993C33.6551 3.50202 33.7204 3.47555 33.776 3.43314C33.8316 3.39074 33.8755 3.33388 33.9035 3.26824L35.1319 0.682151C35.1653 0.606831 35.2187 0.543063 35.2858 0.498373C35.3529 0.453683 35.4308 0.429936 35.5104 0.429936C35.59 0.429936 35.668 0.453683 35.7351 0.498373C35.8021 0.543063 35.8556 0.606831 35.889 0.682151Z" fill="#F7BF2E" stroke="#F7BF2E" stroke-width="0.858183" stroke-linecap="round" stroke-linejoin="round"/>
<path d="M50.919 0.682151L52.1475 3.26824C52.1754 3.33388 52.2194 3.39074 52.2749 3.43314C52.3305 3.47555 52.3958 3.50202 52.4642 3.50993L55.176 3.92886C55.2545 3.93939 55.3286 3.97299 55.3895 4.02574C55.4503 4.0785 55.4956 4.14823 55.5199 4.2268C55.5442 4.30536 55.5466 4.38951 55.5267 4.46943C55.5069 4.54934 55.4656 4.62172 55.4078 4.6781L53.4531 6.70025C53.4033 6.74885 53.3658 6.80969 53.3442 6.87722C53.3226 6.94476 53.3176 7.01686 53.3295 7.08695L53.8008 9.93084C53.8145 10.0126 53.8058 10.0966 53.7759 10.1735C53.746 10.2503 53.696 10.3169 53.6316 10.3656C53.5672 10.4143 53.491 10.4431 53.4116 10.4489C53.3323 10.4546 53.253 10.437 53.1827 10.3981L50.7413 9.0527C50.6788 9.0207 50.6101 9.00406 50.5405 9.00406C50.4708 9.00406 50.4021 9.0207 50.3396 9.0527L47.8982 10.3981C47.828 10.437 47.7487 10.4546 47.6693 10.4489C47.59 10.4431 47.5137 10.4143 47.4493 10.3656C47.3849 10.3169 47.3349 10.2503 47.305 10.1735C47.2751 10.0966 47.2665 10.0126 47.2801 9.93084L47.7514 7.05473C47.7634 6.98463 47.7583 6.91254 47.7367 6.845C47.7151 6.77746 47.6777 6.71662 47.6278 6.66802L45.65 4.6781C45.5915 4.62017 45.5503 4.5458 45.5315 4.46398C45.5127 4.38216 45.5171 4.29641 45.544 4.21712C45.571 4.13782 45.6195 4.06839 45.6835 4.01723C45.7476 3.96607 45.8245 3.93537 45.9049 3.92886L48.6167 3.50993C48.6852 3.50202 48.7504 3.47555 48.806 3.43314C48.8616 3.39074 48.9055 3.33388 48.9335 3.26824L50.1619 0.682151C50.1954 0.606831 50.2488 0.543063 50.3159 0.498373C50.3829 0.453683 50.4609 0.429936 50.5405 0.429936C50.6201 0.429936 50.698 0.453683 50.7651 0.498373C50.8322 0.543063 50.8856 0.606831 50.919 0.682151Z" fill="#F7BF2E" stroke="#F7BF2E" stroke-width="0.858183" stroke-linecap="round" stroke-linejoin="round"/>
<path d="M65.9491 0.682151L67.1775 3.26824C67.2054 3.33388 67.2494 3.39074 67.305 3.43314C67.3605 3.47555 67.4258 3.50203 67.4943 3.50993L70.2061 3.92886C70.2846 3.93939 70.3586 3.97299 70.4195 4.02574C70.4804 4.0785 70.5256 4.14823 70.5499 4.2268C70.5742 4.30536 70.5766 4.38951 70.5567 4.46943C70.5369 4.54934 70.4956 4.62172 70.4378 4.6781L68.4832 6.70025C68.4333 6.74885 68.3958 6.80969 68.3743 6.87722C68.3527 6.94476 68.3476 7.01686 68.3596 7.08695L68.8308 9.93084C68.8445 10.0126 68.8359 10.0966 68.8059 10.1735C68.776 10.2503 68.726 10.3169 68.6616 10.3656C68.5972 10.4143 68.521 10.4431 68.4417 10.4489C68.3623 10.4546 68.283 10.437 68.2128 10.3981L65.7714 9.0527C65.7089 9.0207 65.6401 9.00406 65.5705 9.00406C65.5009 9.00406 65.4321 9.0207 65.3696 9.0527L62.9282 10.3981C62.858 10.437 62.7787 10.4546 62.6993 10.4489C62.62 10.4431 62.5438 10.4143 62.4794 10.3656C62.415 10.3169 62.365 10.2503 62.3351 10.1735C62.3051 10.0966 62.2965 10.0126 62.3102 9.93084L62.7814 7.05473C62.7934 6.98463 62.7883 6.91254 62.7667 6.845C62.7452 6.77746 62.7077 6.71662 62.6578 6.66802L60.68 4.6781C60.6215 4.62017 60.5803 4.5458 60.5615 4.46398C60.5427 4.38216 60.5471 4.29641 60.5741 4.21712C60.601 4.13783 60.6495 4.06839 60.7136 4.01723C60.7776 3.96607 60.8545 3.93537 60.935 3.92886L63.6467 3.50993C63.7152 3.50203 63.7805 3.47555 63.836 3.43314C63.8916 3.39074 63.9356 3.33388 63.9635 3.26824L65.1919 0.682151C65.2254 0.606831 65.2788 0.543063 65.3459 0.498373C65.413 0.453683 65.4909 0.429936 65.5705 0.429936C65.6501 0.429936 65.728 0.453683 65.7951 0.498373C65.8622 0.543063 65.9156 0.606831 65.9491 0.682151Z" fill="#F7BF2E" stroke="#F7BF2E" stroke-width="0.858183" stroke-linecap="round" stroke-linejoin="round"/>
</svg>
