<svg width="36" height="6" viewBox="0 0 36 6" fill="none" xmlns="http://www.w3.org/2000/svg">
<path d="M2.95558 0.34594L3.57844 1.65719C3.59261 1.69047 3.61489 1.7193 3.64307 1.7408C3.67125 1.76231 3.70435 1.77573 3.73905 1.77974L5.11404 1.99215C5.15386 1.99749 5.19139 2.01453 5.22226 2.04128C5.25314 2.06803 5.27607 2.10338 5.2884 2.14322C5.30072 2.18305 5.30192 2.22572 5.29186 2.26624C5.28179 2.30676 5.26088 2.34346 5.23156 2.37205L4.24047 3.39736C4.21518 3.422 4.19619 3.45285 4.18525 3.48709C4.1743 3.52134 4.17174 3.55789 4.1778 3.59343L4.41675 5.0354C4.42367 5.07684 4.4193 5.11946 4.40413 5.15843C4.38896 5.1974 4.36361 5.23115 4.33096 5.25584C4.2983 5.28052 4.25966 5.29516 4.21943 5.29807C4.17919 5.30099 4.13898 5.29207 4.10337 5.27233L2.86548 4.59015C2.83378 4.57392 2.79894 4.56548 2.76363 4.56548C2.72832 4.56548 2.69348 4.57392 2.66178 4.59015L1.4239 5.27233C1.38828 5.29207 1.34807 5.30099 1.30784 5.29807C1.2676 5.29516 1.22896 5.28052 1.1963 5.25584C1.16365 5.23115 1.1383 5.1974 1.12313 5.15843C1.10796 5.11946 1.10359 5.07684 1.11051 5.0354L1.34947 3.57709C1.35552 3.54155 1.35296 3.505 1.34202 3.47075C1.33107 3.43651 1.31208 3.40566 1.28679 3.38102L0.283948 2.37205C0.254279 2.34268 0.233414 2.30496 0.223881 2.26348C0.214347 2.22199 0.216555 2.17851 0.230236 2.13831C0.243917 2.09811 0.268484 2.0629 0.300961 2.03696C0.333439 2.01102 0.372433 1.99546 0.41322 1.99215L1.78821 1.77974C1.82292 1.77573 1.85601 1.76231 1.88419 1.7408C1.91237 1.7193 1.93466 1.69047 1.94882 1.65719L2.57168 0.34594C2.58864 0.30775 2.61573 0.275417 2.64974 0.252757C2.68375 0.230097 2.72327 0.218057 2.76363 0.218057C2.80399 0.218057 2.84351 0.230097 2.87752 0.252757C2.91153 0.275417 2.93862 0.30775 2.95558 0.34594Z" fill="#F7BF2E" stroke="#F7BF2E" stroke-width="0.429092" stroke-linecap="round" stroke-linejoin="round"/>
<path d="M10.5764 0.34594L11.1993 1.65719C11.2134 1.69047 11.2357 1.7193 11.2639 1.7408C11.2921 1.76231 11.3252 1.77573 11.3599 1.77974L12.7349 1.99215C12.7747 1.99749 12.8122 2.01453 12.8431 2.04128C12.874 2.06803 12.8969 2.10338 12.9092 2.14322C12.9216 2.18305 12.9228 2.22572 12.9127 2.26624C12.9026 2.30676 12.8817 2.34346 12.8524 2.37205L11.8613 3.39736C11.836 3.422 11.817 3.45285 11.8061 3.48709C11.7951 3.52134 11.7926 3.55789 11.7986 3.59343L12.0376 5.0354C12.0445 5.07684 12.0401 5.11946 12.025 5.15843C12.0098 5.1974 11.9844 5.23115 11.9518 5.25584C11.9191 5.28052 11.8805 5.29516 11.8403 5.29807C11.8 5.30099 11.7598 5.29207 11.7242 5.27233L10.4863 4.59015C10.4546 4.57392 10.4198 4.56548 10.3845 4.56548C10.3492 4.56548 10.3143 4.57392 10.2826 4.59015L9.04473 5.27233C9.00912 5.29207 8.9689 5.30099 8.92867 5.29807C8.88843 5.29516 8.84979 5.28052 8.81714 5.25584C8.78448 5.23115 8.75913 5.1974 8.74396 5.15843C8.7288 5.11946 8.72442 5.07684 8.73134 5.0354L8.9703 3.57709C8.97636 3.54155 8.97379 3.505 8.96285 3.47075C8.9519 3.43651 8.93292 3.40566 8.90762 3.38102L7.90478 2.37205C7.87511 2.34268 7.85425 2.30496 7.84471 2.26348C7.83518 2.22199 7.83739 2.17851 7.85107 2.13831C7.86475 2.09811 7.88932 2.0629 7.92179 2.03696C7.95427 2.01102 7.99327 1.99546 8.03405 1.99215L9.40904 1.77974C9.44375 1.77573 9.47684 1.76231 9.50502 1.7408C9.5332 1.7193 9.55549 1.69047 9.56966 1.65719L10.1925 0.34594C10.2095 0.30775 10.2366 0.275417 10.2706 0.252757C10.3046 0.230097 10.3441 0.218057 10.3845 0.218057C10.4248 0.218057 10.4643 0.230097 10.4984 0.252757C10.5324 0.275417 10.5595 0.30775 10.5764 0.34594Z" fill="#F7BF2E" stroke="#F7BF2E" stroke-width="0.429092" stroke-linecap="round" stroke-linejoin="round"/>
<path d="M18.1972 0.34594L18.8201 1.65719C18.8343 1.69047 18.8566 1.7193 18.8847 1.7408C18.9129 1.76231 18.946 1.77573 18.9807 1.77974L20.3557 1.99215C20.3955 1.99749 20.4331 2.01453 20.4639 2.04128C20.4948 2.06803 20.5177 2.10338 20.5301 2.14322C20.5424 2.18305 20.5436 2.22572 20.5335 2.26624C20.5235 2.30676 20.5025 2.34346 20.4732 2.37205L19.4821 3.39736C19.4568 3.422 19.4379 3.45285 19.4269 3.48709C19.416 3.52134 19.4134 3.55789 19.4195 3.59343L19.6584 5.0354C19.6653 5.07684 19.661 5.11946 19.6458 5.15843C19.6306 5.1974 19.6053 5.23115 19.5726 5.25584C19.54 5.28052 19.5013 5.29516 19.4611 5.29807C19.4209 5.30099 19.3806 5.29207 19.345 5.27233L18.1071 4.59015C18.0755 4.57392 18.0406 4.56548 18.0053 4.56548C17.97 4.56548 17.9351 4.57392 17.9034 4.59015L16.6656 5.27233C16.6299 5.29207 16.5897 5.30099 16.5495 5.29807C16.5093 5.29516 16.4706 5.28052 16.438 5.25584C16.4053 5.23115 16.38 5.1974 16.3648 5.15843C16.3496 5.11946 16.3453 5.07684 16.3522 5.0354L16.5911 3.57709C16.5972 3.54155 16.5946 3.505 16.5837 3.47075C16.5727 3.43651 16.5537 3.40566 16.5285 3.38102L15.5256 2.37205C15.4959 2.34268 15.4751 2.30496 15.4655 2.26348C15.456 2.22199 15.4582 2.17851 15.4719 2.13831C15.4856 2.09811 15.5101 2.0629 15.5426 2.03696C15.5751 2.01102 15.6141 1.99546 15.6549 1.99215L17.0299 1.77974C17.0646 1.77573 17.0977 1.76231 17.1259 1.7408C17.154 1.7193 17.1763 1.69047 17.1905 1.65719L17.8133 0.34594C17.8303 0.30775 17.8574 0.275417 17.8914 0.252757C17.9254 0.230097 17.9649 0.218057 18.0053 0.218057C18.0457 0.218057 18.0852 0.230097 18.1192 0.252757C18.1532 0.275417 18.1803 0.30775 18.1972 0.34594Z" fill="#F7BF2E" stroke="#F7BF2E" stroke-width="0.429092" stroke-linecap="round" stroke-linejoin="round"/>
<path d="M25.8181 0.34594L26.4409 1.65719C26.4551 1.69047 26.4774 1.7193 26.5056 1.7408C26.5338 1.76231 26.5668 1.77573 26.6016 1.77974L27.9765 1.99215C28.0164 1.99749 28.0539 2.01453 28.0848 2.04128C28.1156 2.06803 28.1386 2.10338 28.1509 2.14322C28.1632 2.18305 28.1644 2.22572 28.1544 2.26624C28.1443 2.30676 28.1234 2.34346 28.0941 2.37205L27.103 3.39736C27.0777 3.422 27.0587 3.45285 27.0477 3.48709C27.0368 3.52134 27.0342 3.55789 27.0403 3.59343L27.2793 5.0354C27.2862 5.07684 27.2818 5.11946 27.2666 5.15843C27.2515 5.1974 27.2261 5.23115 27.1935 5.25584C27.1608 5.28052 27.1222 5.29516 27.0819 5.29807C27.0417 5.30099 27.0015 5.29207 26.9659 5.27233L25.728 4.59015C25.6963 4.57392 25.6614 4.56548 25.6261 4.56548C25.5908 4.56548 25.556 4.57392 25.5243 4.59015L24.2864 5.27233C24.2508 5.29207 24.2106 5.30099 24.1703 5.29807C24.1301 5.29516 24.0915 5.28052 24.0588 5.25584C24.0261 5.23115 24.0008 5.1974 23.9856 5.15843C23.9705 5.11946 23.9661 5.07684 23.973 5.0354L24.212 3.57709C24.218 3.54155 24.2155 3.505 24.2045 3.47075C24.1936 3.43651 24.1746 3.40566 24.1493 3.38102L23.1464 2.37205C23.1168 2.34268 23.0959 2.30496 23.0864 2.26348C23.0768 2.22199 23.0791 2.17851 23.0927 2.13831C23.1064 2.09811 23.131 2.0629 23.1635 2.03696C23.1959 2.01102 23.2349 1.99546 23.2757 1.99215L24.6507 1.77974C24.6854 1.77573 24.7185 1.76231 24.7467 1.7408C24.7749 1.7193 24.7972 1.69047 24.8113 1.65719L25.4342 0.34594C25.4511 0.30775 25.4782 0.275417 25.5122 0.252757C25.5463 0.230097 25.5858 0.218057 25.6261 0.218057C25.6665 0.218057 25.706 0.230097 25.74 0.252757C25.774 0.275417 25.8011 0.30775 25.8181 0.34594Z" fill="#F7BF2E" stroke="#F7BF2E" stroke-width="0.429092" stroke-linecap="round" stroke-linejoin="round"/>
<path d="M33.4389 0.34594L34.0618 1.65719C34.0759 1.69047 34.0982 1.7193 34.1264 1.7408C34.1546 1.76231 34.1877 1.77573 34.2224 1.77974L35.5974 1.99215C35.6372 1.99749 35.6747 2.01453 35.7056 2.04128C35.7365 2.06803 35.7594 2.10338 35.7717 2.14322C35.7841 2.18305 35.7853 2.22572 35.7752 2.26624C35.7651 2.30676 35.7442 2.34346 35.7149 2.37205L34.7238 3.39736C34.6985 3.422 34.6795 3.45285 34.6686 3.48709C34.6576 3.52134 34.6551 3.55789 34.6611 3.59343L34.9001 5.0354C34.907 5.07684 34.9026 5.11946 34.8875 5.15843C34.8723 5.1974 34.8469 5.23115 34.8143 5.25584C34.7816 5.28052 34.743 5.29516 34.7028 5.29807C34.6625 5.30099 34.6223 5.29207 34.5867 5.27233L33.3488 4.59015C33.3171 4.57392 33.2823 4.56548 33.247 4.56548C33.2117 4.56548 33.1768 4.57392 33.1451 4.59015L31.9072 5.27233C31.8716 5.29207 31.8314 5.30099 31.7912 5.29807C31.7509 5.29516 31.7123 5.28052 31.6796 5.25584C31.647 5.23115 31.6216 5.1974 31.6065 5.15843C31.5913 5.11946 31.5869 5.07684 31.5938 5.0354L31.8328 3.57709C31.8389 3.54155 31.8363 3.505 31.8253 3.47075C31.8144 3.43651 31.7954 3.40566 31.7701 3.38102L30.7673 2.37205C30.7376 2.34268 30.7167 2.30496 30.7072 2.26348C30.6977 2.22199 30.6999 2.17852 30.7136 2.13831C30.7272 2.09811 30.7518 2.0629 30.7843 2.03696C30.8168 2.01102 30.8558 1.99546 30.8966 1.99215L32.2715 1.77974C32.3062 1.77573 32.3393 1.76231 32.3675 1.7408C32.3957 1.7193 32.418 1.69047 32.4322 1.65719L33.055 0.34594C33.072 0.30775 33.0991 0.275417 33.1331 0.252757C33.1671 0.230097 33.2066 0.218057 33.247 0.218057C33.2873 0.218057 33.3268 0.230097 33.3609 0.252757C33.3949 0.275417 33.422 0.30775 33.4389 0.34594Z" fill="#F7BF2E" stroke="#F7BF2E" stroke-width="0.429092" stroke-linecap="round" stroke-linejoin="round"/>
</svg>
