<svg width="20" height="20" viewBox="0 0 20 20" fill="none" xmlns="http://www.w3.org/2000/svg">
<path d="M10 18C10.87 18 11.71 17.86 12.494 17.604C12.1068 17.1005 11.7799 16.5535 11.52 15.974C11.024 16.675 10.486 17 10 17C9.343 17 8.593 16.41 7.978 15.092C7.74392 14.5794 7.55714 14.0466 7.42 13.5H11.004C11.016 13.158 11.063 12.823 11.141 12.5H7.206C7.06704 11.674 6.99813 10.8377 7 10C7 9.117 7.073 8.275 7.206 7.5H12.794C12.914 8.204 12.986 8.963 12.998 9.758C13.3 9.552 13.629 9.383 13.984 9.258C13.9582 8.66914 13.8991 8.0822 13.807 7.5H16.54C16.75 8.049 16.893 8.631 16.959 9.236C17.333 9.363 17.68 9.538 17.996 9.753C17.9475 8.18201 17.4373 6.66012 16.5291 5.37734C15.6208 4.09455 14.3549 3.10772 12.8893 2.54003C11.4236 1.97235 9.82322 1.84898 8.28789 2.18532C6.75256 2.52165 5.35031 3.3028 4.25623 4.43123C3.16215 5.55965 2.4247 6.98536 2.13596 8.53036C1.84723 10.0753 2.01999 11.6712 2.63269 13.1186C3.24538 14.566 4.27086 15.8008 5.5811 16.669C6.89133 17.5371 8.42826 18 10 18ZM10 3C10.657 3 11.407 3.59 12.022 4.908C12.239 5.374 12.428 5.91 12.581 6.5H7.419C7.572 5.91 7.761 5.374 7.979 4.908C8.592 3.59 9.342 3 10 3ZM7.072 4.485C6.77671 5.13182 6.54787 5.80695 6.389 6.5H3.936C4.78024 5.04087 6.12122 3.93415 7.714 3.382C7.473 3.712 7.258 4.086 7.072 4.485ZM6.192 7.5C6.06258 8.32702 5.99838 9.16292 6 10C6 10.87 6.067 11.712 6.193 12.5H3.46C3.15503 11.7018 2.99911 10.8545 3 10C3 9.12 3.163 8.276 3.46 7.5H6.192ZM6.389 13.5C6.565 14.243 6.796 14.922 7.072 15.515C7.258 15.914 7.473 16.288 7.714 16.618C6.12122 16.0659 4.78024 14.9591 3.936 13.5H6.389ZM12.286 3.382C13.8788 3.93407 15.2198 5.04081 16.064 6.5H13.61C13.4511 5.80695 13.2223 5.13182 12.927 4.485C12.7489 4.09756 12.5339 3.72819 12.285 3.382M19 13.682C19 11.649 17.535 10.001 15.501 10.001C13.468 10.001 12 11.649 12 13.682C12 15.206 12.982 17.212 15.256 18.918C15.401 19.028 15.601 19.028 15.746 18.918C18.022 17.212 19 15.206 19 13.682ZM17 13.5C17 13.8978 16.842 14.2794 16.5607 14.5607C16.2794 14.842 15.8978 15 15.5 15C15.1022 15 14.7206 14.842 14.4393 14.5607C14.158 14.2794 14 13.8978 14 13.5C14 13.1022 14.158 12.7206 14.4393 12.4393C14.7206 12.158 15.1022 12 15.5 12C15.8978 12 16.2794 12.158 16.5607 12.4393C16.842 12.7206 17 13.1022 17 13.5Z" fill="#0040C3"/>
</svg>
