<svg width="235" height="28" viewBox="0 0 235 28" fill="none" xmlns="http://www.w3.org/2000/svg">
<path d="M232.701 16.2951L230.911 20.8631H230.858L228.99 16.2951H227.302L230.1 22.6805L228.502 26.2319H230.142L234.455 16.2951H232.701ZM220.055 12.5047H218.492V23.0393H220.055V12.5047ZM214.173 12.5047H210.415V23.0393H211.99V19.0515H214.179C216.02 19.1148 217.563 17.6704 217.625 15.8256C217.626 15.8108 217.626 15.7959 217.627 15.7811C217.588 13.9323 216.062 12.4651 214.217 12.5035C214.203 12.5038 214.188 12.5042 214.173 12.5047ZM214.215 17.5809H211.99V13.9936H214.221C215.209 13.9936 216.01 14.7965 216.01 15.787C216.01 16.7778 215.209 17.5809 214.221 17.5809H214.215ZM223.908 16.068C222.738 16.0009 221.64 16.6347 221.11 17.6824L222.506 18.2803C222.789 17.7623 223.351 17.4616 223.938 17.5148C224.764 17.4321 225.501 18.036 225.584 18.8638C225.584 18.8667 225.584 18.8695 225.585 18.872V18.9796C225.084 18.7087 224.525 18.5668 223.956 18.567C222.459 18.567 220.932 19.3924 220.932 20.9586C220.932 22.3698 222.155 23.2785 223.538 23.2785C224.341 23.3295 225.106 22.9344 225.531 22.25H225.59V23.0632H227.118V19.0096C227.118 17.1382 225.722 16.0979 223.92 16.0979L223.908 16.068ZM223.723 21.8436C223.21 21.8436 222.494 21.5804 222.494 20.9468C222.494 20.1338 223.383 19.8229 224.159 19.8229C224.659 19.8094 225.153 19.9312 225.59 20.1755C225.471 21.1209 224.674 21.8333 223.723 21.8436ZM167.161 23.2664C164.072 23.2767 161.549 20.796 161.5 17.7004C161.549 14.6048 164.072 12.1239 167.161 12.1341C168.59 12.1101 169.968 12.664 170.985 13.6706L169.905 14.7407C169.173 14.0217 168.186 13.6218 167.161 13.6287C164.931 13.6287 163.122 15.4407 163.122 17.6764C163.122 19.9117 164.931 21.7239 167.161 21.7239C168.215 21.7673 169.238 21.3613 169.977 20.6059C170.462 20.0813 170.755 19.4065 170.806 18.6927H167.161V17.2159H172.291C172.347 17.5297 172.373 17.8479 172.369 18.1667C172.42 19.4902 171.946 20.7802 171.05 21.7538C170.027 22.7896 168.613 23.3395 167.161 23.2664ZM180.302 19.6793C180.383 21.6389 178.863 23.293 176.907 23.3733C174.952 23.4537 173.302 21.9304 173.222 19.9706C173.218 19.8735 173.218 19.7764 173.222 19.6793C173.141 17.7196 174.661 16.0655 176.617 15.9851C178.572 15.9046 180.222 17.428 180.302 19.3878C180.306 19.4849 180.306 19.5822 180.302 19.6793ZM178.751 19.6793C178.856 18.578 178.05 17.6005 176.951 17.4961C175.852 17.3914 174.877 18.1994 174.773 19.3005C174.761 19.4266 174.761 19.5535 174.773 19.6793C174.668 20.7807 175.474 21.758 176.573 21.8623C177.672 21.967 178.647 21.159 178.751 20.0579C178.763 19.932 178.763 19.805 178.751 19.6793ZM188.236 19.6793C188.236 21.6372 186.652 23.2246 184.699 23.2246C182.745 23.2246 181.161 21.6374 181.161 19.6793C181.161 17.7212 182.745 16.1338 184.699 16.1338C186.652 16.1338 188.236 17.7212 188.236 19.6793ZM186.691 19.6793C186.796 18.578 185.989 17.6005 184.891 17.4961C183.792 17.3914 182.817 18.1994 182.712 19.3005C182.7 19.4266 182.7 19.5535 182.712 19.6793C182.608 20.7807 183.414 21.758 184.513 21.8623C185.611 21.967 186.587 21.159 186.691 20.0579C186.703 19.932 186.703 19.805 186.691 19.6793ZM195.979 16.3132V22.7524C195.979 25.3949 194.41 26.4832 192.561 26.4832C191.175 26.4949 189.918 25.6693 189.376 24.3907L190.73 23.7927C191.017 24.539 191.722 25.0408 192.519 25.0664C193.712 25.0664 194.44 24.3309 194.44 22.9618V22.4476H194.38C193.907 22.977 193.229 23.2754 192.519 23.2665C190.543 23.2665 188.94 21.6606 188.94 19.6794C188.94 17.6983 190.543 16.0921 192.519 16.0921C193.233 16.0763 193.919 16.3679 194.404 16.8933H194.464V16.2953H195.979V16.3132ZM194.589 19.6971C194.679 18.5814 193.85 17.6036 192.737 17.513C192.716 17.5113 192.695 17.51 192.674 17.5091C191.529 17.547 190.63 18.509 190.668 19.6573C190.669 19.6706 190.669 19.6839 190.67 19.6971C190.617 20.8351 191.494 21.8006 192.63 21.8539C192.645 21.8548 192.66 21.8553 192.674 21.8558C193.777 21.8128 194.637 20.882 194.594 19.7768C194.593 19.7502 194.591 19.7237 194.589 19.6971ZM198.741 12.5168V23.0455H197.166V12.5168H198.741ZM204.945 20.8631L206.174 21.6761C205.507 22.6728 204.388 23.2696 203.191 23.2664C201.277 23.294 199.703 21.7611 199.676 19.8426C199.675 19.7882 199.676 19.7336 199.677 19.6793C199.52 17.8633 200.862 16.2636 202.674 16.1062C204.201 15.9736 205.617 16.9146 206.09 18.3757L206.251 18.7884L201.479 20.7673C201.783 21.4525 202.473 21.8837 203.221 21.8557C203.928 21.8445 204.579 21.4696 204.945 20.8631ZM201.181 19.5717L204.39 18.2444C204.136 17.7462 203.611 17.4476 203.054 17.4849C201.971 17.5326 201.131 18.451 201.179 19.536C201.179 19.548 201.18 19.5599 201.181 19.5717Z" fill="white"/>
<path d="M143.736 12.9489L133.637 23.7602C134.048 25.248 135.561 26.1138 137.017 25.6942C137.237 25.6305 137.45 25.5385 137.648 25.4212L149.011 18.8083L143.736 12.9489Z" fill="#EA4335"/>
<path d="M153.946 11.1111L149.032 8.23537L143.501 13.195L149.055 18.793L153.931 15.9479C155.238 15.2487 155.743 13.599 155.059 12.2633C154.806 11.7709 154.413 11.369 153.931 11.1111H153.946Z" fill="#FBBC04"/>
<path d="M133.635 3.246C133.574 3.47658 133.544 3.71452 133.545 3.95341V23.054C133.546 23.2927 133.576 23.5305 133.635 23.7614L144.08 13.227L133.635 3.246Z" fill="#4285F4"/>
<path d="M143.812 13.5031L149.034 8.23586L137.686 1.59219C137.259 1.33671 136.774 1.20143 136.279 1.20001C135.051 1.19752 133.972 2.03025 133.638 3.23772L143.812 13.5031Z" fill="#34A853"/>
<path d="M164.143 8.71667C162.532 8.71667 161.5 7.504 161.5 5.61074C161.5 3.75057 162.528 2.56667 164.143 2.56667C165.391 2.56667 166.339 3.32984 166.555 4.51362H165.799C165.559 3.70933 164.955 3.25145 164.143 3.25145C162.956 3.25145 162.24 4.13413 162.24 5.60667C162.24 7.10389 162.968 8.032 164.143 8.032C165.167 8.032 165.871 7.34734 165.871 6.34899V6.24171H164.243V5.59012H166.591V6.15517C166.591 7.76375 165.683 8.71667 164.143 8.71667Z" fill="white"/>
<path d="M171.087 8.61744H167.512V2.66545H171.087V3.33369H168.232V5.24349H170.939V5.90335H168.232V7.94919H171.087V8.61744Z" fill="white"/>
<path d="M173.494 8.61744V3.33369H171.674V2.66545H176.033V3.33369H174.213V8.61744H173.494Z" fill="white"/>
<path d="M178.474 8.61744V2.66545H179.194V8.61744H178.474Z" fill="white"/>
<path d="M180.313 8.61744V2.66545H181.012L184.172 7.33872H184.208V2.66545H184.92V8.61744H184.22L181.06 3.96071H181.024V8.61744H180.313Z" fill="white"/>
<path d="M192.816 5.64371C192.816 7.53277 191.792 8.71667 190.157 8.71667C188.521 8.71667 187.497 7.53289 187.497 5.64371C187.497 3.75452 188.521 2.56667 190.157 2.56667C191.792 2.56667 192.816 3.75464 192.816 5.64371ZM188.237 5.64371C188.237 7.10797 188.977 8.032 190.157 8.032C191.336 8.032 192.076 7.10809 192.076 5.64371C192.076 4.17537 191.336 3.25145 190.157 3.25145C188.977 3.25145 188.237 4.17537 188.237 5.64371Z" fill="white"/>
<path d="M193.712 8.61744V2.66545H194.412L197.571 7.33872H197.607V2.66545H198.319V8.61744H197.619L194.46 3.96071H194.424V8.61744H193.712Z" fill="white"/>
<path d="M9.85283 5.67092C9.68094 4.27219 10.3676 2.78781 11.1318 1.87572C11.9996 0.842875 13.511 0.0519118 14.7136 0C14.8685 1.45905 14.3013 2.89151 13.4677 3.94266C12.6009 4.97563 11.2092 5.77475 9.85283 5.67092Z" fill="white"/>
<path d="M19.7812 18.0453C19.7641 18.1317 19.2834 19.8256 18.0899 21.5357C17.0843 23.0473 16.0457 24.5235 14.3795 24.5489C12.7646 24.5835 12.2236 23.5851 10.3684 23.5851C8.50517 23.5851 7.92105 24.5234 6.37443 24.5835C4.78564 24.6444 3.58403 22.969 2.54427 21.4756C0.474915 18.4185 -1.13198 12.8612 1.02394 9.08339C2.0637 7.22598 3.97816 6.03527 6.0144 6.00079C7.59401 5.97533 9.07119 7.08654 10.0425 7.08654C10.9958 7.08654 12.8158 5.74875 14.6881 5.94887C15.4704 5.97533 17.7027 6.27025 19.1456 8.38898C19.034 8.45807 16.492 9.9699 16.5181 13.0778C16.5524 16.7948 19.7389 18.0279 19.7812 18.0453Z" fill="white"/>
<path d="M33.8674 11.1116H31.3514L27.2861 24.1768H29.3833L30.5035 20.3377H34.6117L35.793 24.1768H37.9494L33.8674 11.1116ZM30.8633 18.7275L31.9165 15.3223C32.19 14.2434 32.3864 13.4211 32.5156 12.8638H32.5578C32.8664 14.1554 33.0798 14.9681 33.1911 15.3223L34.2612 18.7275H30.8633Z" fill="white"/>
<path d="M47.3046 15.8811C46.5851 15.006 45.6954 14.564 44.6172 14.564C43.2475 14.564 42.2204 15.1292 41.5451 16.2528H41.51L41.3987 14.7575H39.6192C39.6703 15.8191 39.6964 16.8453 39.6964 17.854V28H41.7245V23.0547C42.2545 23.9487 43.1194 24.3906 44.3256 24.3906C45.439 24.3906 46.3798 23.9835 47.1333 23.1522C47.9811 22.2234 48.3999 20.9586 48.3999 19.3578C48.3998 17.9162 48.04 16.7656 47.3046 15.8811ZM45.6954 21.8338C45.2675 22.4356 44.6772 22.7452 43.9147 22.7452C43.2644 22.7452 42.7344 22.5072 42.3315 22.038C41.9296 21.5689 41.7242 20.9849 41.7242 20.3043V18.7293C41.7242 18.5615 41.7584 18.3492 41.8185 18.0933C41.9378 17.5352 42.2123 17.093 42.6142 16.7481C43.0249 16.4126 43.4789 16.2356 43.9748 16.2356C44.7112 16.2356 45.3015 16.5453 45.7384 17.1644C46.1402 17.7568 46.3376 18.5086 46.3376 19.4285C46.3377 20.4274 46.1231 21.2239 45.6954 21.8338Z" fill="white"/>
<path d="M57.778 15.8811C57.0596 15.006 56.1697 14.564 55.0907 14.564C53.7219 14.564 52.6947 15.1292 52.0184 16.2528H51.9845L51.8734 14.7575H50.0928C50.1448 15.8191 50.17 16.8453 50.17 17.854V28H52.1979V23.0547C52.729 23.9487 53.5939 24.3906 54.8003 24.3906C55.9125 24.3906 56.8542 23.9835 57.6068 23.1522C58.4545 22.2234 58.8745 20.9586 58.8745 19.3578C58.8743 17.9162 58.5144 16.7656 57.778 15.8811ZM56.1697 21.8338C55.75 22.4356 55.1507 22.7452 54.3892 22.7452C53.7388 22.7452 53.2078 22.5072 52.806 22.038C52.4031 21.5689 52.1976 20.9849 52.1976 20.3043V18.7293C52.1976 18.5615 52.2329 18.3492 52.292 18.0933C52.4202 17.5352 52.6858 17.093 53.0884 16.7481C53.4993 16.4126 53.9522 16.2356 54.4493 16.2356C55.1847 16.2356 55.7758 16.5453 56.2118 17.1644C56.6146 17.7568 56.8112 18.5086 56.8112 19.4285C56.8112 20.4274 56.6057 21.2239 56.1697 21.8338Z" fill="white"/>
<path d="M69.8227 18.2423C70.3447 18.8521 70.6013 19.6134 70.6013 20.5154C70.6013 21.6297 70.2245 22.5317 69.4802 23.2309C68.6585 23.9909 67.5121 24.372 66.0403 24.372C64.6784 24.372 63.5922 24.0978 62.7705 23.558L63.2416 21.8151C64.1314 22.3548 65.1075 22.629 66.1685 22.629C66.9299 22.629 67.5293 22.4518 67.9481 22.0989C68.3758 21.7447 68.5902 21.2674 68.5902 20.6751C68.5902 20.1439 68.4099 19.7016 68.0682 19.3388C67.7174 18.9765 67.1353 18.64 66.3218 18.3304C64.0883 17.4726 62.9839 16.2249 62.9839 14.5887C62.9839 13.5189 63.3778 12.6427 64.1563 11.9531C64.9359 11.2716 65.9709 10.9267 67.2635 10.9267C68.4098 10.9267 69.3688 11.1309 70.1302 11.5462L69.6172 13.2445C68.8978 12.8469 68.0933 12.6427 67.1865 12.6427C66.4759 12.6427 65.9109 12.828 65.5091 13.1825C65.1754 13.5096 65.004 13.899 65.004 14.3681C65.004 14.8807 65.2015 15.3148 65.5863 15.6419C65.92 15.9516 66.5361 16.2871 67.426 16.6498C68.5133 17.101 69.3086 17.6311 69.8227 18.2423Z" fill="white"/>
<path d="M75.0763 14.7565H77.3098V16.3317H75.0763V20.9048C75.0763 22.0638 75.4701 22.6468 76.2577 22.6468C76.6165 22.6468 76.9161 22.6116 77.1564 22.5494L77.2156 24.1422C76.8139 24.2924 76.2918 24.3722 75.6416 24.3722C74.8369 24.3722 74.2207 24.1153 73.7668 23.6109C73.3139 23.1069 73.0905 22.2576 73.0905 21.0729V16.3225H71.7647V14.7566H73.0905V13.0325L75.0763 12.4132V14.7565Z" fill="white"/>
<path d="M86.1931 15.9526C85.3804 15.0322 84.3012 14.572 82.9668 14.572C81.5799 14.572 80.4767 15.0413 79.6551 15.9704C78.8413 16.8983 78.4307 18.0931 78.4307 19.5526C78.4307 20.9495 78.8245 22.1085 79.62 23.0196C80.4165 23.931 81.4858 24.3906 82.8214 24.3906C84.2083 24.3906 85.3204 23.9135 86.159 22.9574C86.9546 22.0285 87.3575 20.8436 87.3575 19.393C87.3575 17.9867 86.9718 16.8371 86.1931 15.9526ZM84.7041 21.6837C84.2591 22.4449 83.651 22.8252 82.8814 22.8252C82.0939 22.8252 81.4777 22.4531 81.0406 21.7014C80.682 21.0914 80.5017 20.3488 80.5017 19.481C80.5017 18.5885 80.6731 17.8366 81.0406 17.217C81.4605 16.4653 82.0849 16.0936 82.8985 16.0936C83.6861 16.0936 84.2932 16.4653 84.7209 17.217C85.0807 17.8366 85.2601 18.5706 85.2601 19.4374C85.2601 20.3041 85.072 21.0468 84.7041 21.6837Z" fill="white"/>
<path d="M93.9384 14.5992L93.9463 16.5976C93.7498 16.5627 93.5354 16.5449 93.305 16.5449C92.5944 16.5449 92.0385 16.8192 91.6527 17.3764C91.319 17.8623 91.1476 18.491 91.1476 19.2334V24.1783H89.1197V17.7213C89.1197 16.6329 89.1026 15.6429 89.0596 14.7574H90.8231L90.9003 16.5627H90.9604C91.1738 15.9431 91.5074 15.4391 91.9693 15.067C92.4234 14.7315 92.9113 14.564 93.4334 14.564C93.6215 14.5639 93.7929 14.5813 93.9384 14.5992Z" fill="white"/>
<path d="M103.001 19.02C103.001 17.8434 102.727 16.8618 102.188 16.0477C101.52 15.0399 100.519 14.5355 99.2092 14.5355C97.8743 14.5355 96.8134 15.0399 96.0258 16.0477C95.2722 16.9944 94.8965 18.18 94.8965 19.5955C94.8965 21.0371 95.2983 22.196 96.1029 23.0533C96.9074 23.9121 98.0197 24.3449 99.4316 24.3449C100.605 24.3449 101.623 24.1501 102.488 23.7605L102.171 22.3108C101.435 22.6029 100.613 22.7531 99.7141 22.7531C98.9016 22.7531 98.2422 22.5315 97.7291 22.0985C97.1641 21.6119 96.8735 20.895 96.8473 19.9662H102.924C102.975 19.7107 103.001 19.3918 103.001 19.02ZM96.8553 18.472C96.9153 17.8434 97.1207 17.2957 97.4545 16.844C97.8653 16.2787 98.4045 15.995 99.0638 15.995C99.7831 15.995 100.322 16.2869 100.673 16.8712C100.946 17.3215 101.084 17.8611 101.067 18.4805L96.8553 18.472Z" fill="white"/>
<path d="M31.8138 0.682915C33.9056 0.682915 35.1441 1.91545 35.1441 4.03928C35.1441 6.16807 33.9104 7.41911 31.8138 7.41911H29.332V0.682915H31.8138ZM30.4241 6.51367H31.7114C33.2034 6.51367 34.0274 5.64065 34.0274 4.04872C34.0274 2.46162 33.1985 1.58424 31.7114 1.58424H30.4241V6.51367Z" fill="white"/>
<path d="M35.8281 4.96363C35.8281 3.38585 36.7984 2.41956 38.2612 2.41956C39.7239 2.41956 40.6943 3.38585 40.6943 4.96363C40.6943 6.54613 39.7289 7.51242 38.2612 7.51242C36.7936 7.51242 35.8281 6.54613 35.8281 4.96363ZM39.6216 4.96363C39.6216 3.87601 39.0852 3.25048 38.2612 3.25048C37.4372 3.25048 36.9007 3.87613 36.9007 4.96363C36.9007 6.05609 37.4371 6.68161 38.2612 6.68161C39.09 6.68172 39.6216 6.05609 39.6216 4.96363Z" fill="white"/>
<path d="M46.851 7.41931H45.7541L44.6764 3.74081H44.6521L43.5844 7.41931H42.497L41.0879 2.50839H42.141L43.0772 6.37367H43.0966L44.1644 2.50839H45.1785L46.2511 6.37367H46.2755L47.2117 2.50839H48.2552L46.851 7.41931Z" fill="white"/>
<path d="M48.9014 2.50818H49.9058V3.32979H49.9301C50.208 2.76959 50.7541 2.42422 51.544 2.42422C52.6753 2.42422 53.3237 3.11519 53.3237 4.24019V7.41909H52.2659V4.43604C52.2659 3.69862 51.905 3.29253 51.1736 3.29253C50.4325 3.29253 49.9546 3.79648 49.9546 4.5576V7.41921H48.9015V2.50818H48.9014Z" fill="white"/>
<path d="M54.374 0.682915H55.4273V7.41911H54.374V0.682915Z" fill="white"/>
<path d="M56.2822 4.96363C56.2822 3.38585 57.2527 2.41956 58.7154 2.41956C60.1782 2.41956 61.1485 3.38585 61.1485 4.96363C61.1485 6.54613 60.1831 7.51242 58.7154 7.51242C57.2478 7.51242 56.2822 6.54613 56.2822 4.96363ZM60.0756 4.96363C60.0756 3.87601 59.5393 3.25048 58.7153 3.25048C57.8913 3.25048 57.355 3.87613 57.355 4.96363C57.355 6.05609 57.8912 6.68161 58.7153 6.68161C59.5443 6.68172 60.0756 6.05609 60.0756 4.96363Z" fill="white"/>
<path d="M61.7578 6.02342C61.7578 5.16443 62.4453 4.63689 63.6643 4.57157L65.0685 4.49222V4.11395C65.0685 3.56767 64.6832 3.24105 64.0396 3.24105C63.4302 3.24105 63.0499 3.52133 62.9573 3.95996H61.9628C62.0213 3.07314 62.8111 2.41956 64.0789 2.41956C65.3222 2.41956 66.1169 3.04991 66.1169 4.03472V7.41915H65.1077V6.61145H65.0834C64.7858 7.15774 64.1374 7.5031 63.4645 7.5031C62.46 7.5031 61.7578 6.90576 61.7578 6.02342ZM65.0686 5.57984V5.1925L63.8057 5.26713C63.1768 5.30923 62.8208 5.57524 62.8208 5.99548C62.8208 6.42515 63.1913 6.70507 63.7571 6.70507C64.4933 6.70495 65.0686 6.21939 65.0686 5.57984Z" fill="white"/>
<path d="M66.9024 4.96348C66.9024 3.41352 67.7604 2.42872 69.0477 2.42872C69.7839 2.42872 70.3691 2.78352 70.6566 3.32497H70.6761V0.682915H71.7343V7.41911H70.7103V6.58359H70.6909C70.3887 7.14367 69.8035 7.50307 69.0574 7.50307C67.7604 7.50295 66.9024 6.51355 66.9024 4.96348ZM67.9798 4.96348C67.9798 5.99993 68.5016 6.6488 69.3353 6.6488C70.1448 6.6488 70.686 5.99049 70.686 4.96348C70.686 3.9459 70.1448 3.27851 69.3353 3.27851C68.5017 3.27851 67.9798 3.93198 67.9798 4.96348Z" fill="white"/>
<path d="M74.6094 4.96363C74.6094 3.38585 75.5795 2.41956 77.0425 2.41956C78.5052 2.41956 79.4757 3.38585 79.4757 4.96363C79.4757 6.54613 78.51 7.51242 77.0425 7.51242C75.5749 7.51242 74.6094 6.54613 74.6094 4.96363ZM78.4028 4.96363C78.4028 3.87601 77.8665 3.25048 77.0425 3.25048C76.2185 3.25048 75.682 3.87613 75.682 4.96363C75.682 6.05609 76.2184 6.68161 77.0425 6.68161C77.8713 6.68172 78.4028 6.05609 78.4028 4.96363Z" fill="white"/>
<path d="M80.2901 2.50818H81.2946V3.32979H81.3189C81.5969 2.76959 82.1428 2.42422 82.9328 2.42422C84.0642 2.42422 84.7126 3.11519 84.7126 4.24019V7.41909H83.6544V4.43604C83.6544 3.69862 83.2937 3.29253 82.5622 3.29253C81.8211 3.29253 81.3434 3.79648 81.3434 4.5576V7.41921H80.2901V2.50818Z" fill="white"/>
<path d="M89.1156 1.34649V2.50864H90.0908V3.30702H89.1156V6.01452C89.1156 6.43947 89.3107 6.63072 89.7396 6.63072C89.847 6.63072 90.0177 6.62141 90.086 6.6075V7.40576C89.9688 7.43371 89.7348 7.45245 89.5008 7.45245C88.4621 7.45245 88.0575 7.07431 88.0575 6.12665V3.30714H87.3115V2.50876H88.0575V1.34661H89.1156V1.34649Z" fill="white"/>
<path d="M90.9922 0.682915H92.0356V3.32969H92.0599C92.3428 2.75557 92.9035 2.42412 93.6835 2.42412C94.81 2.42412 95.4829 3.14303 95.4829 4.25412V7.41911H94.4247V4.45009C94.4247 3.72646 94.0444 3.29255 93.3034 3.29255C92.5232 3.29255 92.0454 3.80593 92.0454 4.58097V7.41911H90.9922V0.682915Z" fill="white"/>
<path d="M100.895 5.97661C100.749 6.87298 99.8613 7.51242 98.6862 7.51242C97.1796 7.51242 96.2676 6.53681 96.2676 4.98709C96.2676 3.44669 97.194 2.41956 98.6421 2.41956C100.066 2.41956 100.953 3.38125 100.953 4.87036V5.21596H97.3306V5.27657C97.3306 6.13072 97.867 6.69564 98.7105 6.69564C99.3101 6.69564 99.754 6.40628 99.8953 5.97661H100.895ZM97.3356 4.51084H99.9001C99.8759 3.75939 99.3785 3.23173 98.6421 3.23173C97.906 3.23185 97.3891 3.76871 97.3356 4.51084Z" fill="white"/>
</svg>
