<svg width="308" height="217" viewBox="0 0 308 217" fill="none" xmlns="http://www.w3.org/2000/svg">
<path d="M25.5932 101.663L18.9285 96.2017C20.5301 94.6262 21.3287 92.6054 21.1583 90.5597C20.9879 88.514 19.8615 86.6009 18.0135 85.2184C16.1655 83.8359 13.7381 83.0903 11.2364 83.1369C8.73465 83.1835 6.35112 84.0186 4.58166 85.4685C2.8122 86.9184 1.79304 88.8714 1.7362 90.9213C1.67935 92.9713 2.5892 94.9602 4.27647 96.4745C5.96373 97.9887 8.2985 98.9117 10.7951 99.0513C13.2917 99.191 15.7579 98.5365 17.6806 97.2242L24.3454 102.685L25.5932 101.663ZM3.53028 91.1152C3.53028 89.828 3.99611 88.5697 4.86886 87.4994C5.74161 86.4291 6.98209 85.595 8.43342 85.1024C9.88475 84.6098 11.4818 84.4809 13.0225 84.732C14.5632 84.9832 15.9785 85.603 17.0893 86.5132C18.2001 87.4234 18.9565 88.583 19.263 89.8455C19.5695 91.108 19.4122 92.4165 18.811 93.6058C18.2099 94.795 17.1918 95.8114 15.8857 96.5266C14.5795 97.2417 13.0439 97.6234 11.4729 97.6234C9.36714 97.6215 7.34825 96.9352 5.85922 95.7151C4.37018 94.4949 3.53262 92.8407 3.53028 91.1152Z" fill="white" fill-opacity="0.1"/>
<path d="M34.4198 25.734L27.755 20.2729C29.3566 18.6975 30.1553 16.6767 29.9849 14.631C29.8145 12.5853 28.6881 10.6722 26.8401 9.28964C24.9921 7.9071 22.5647 7.16158 20.063 7.20815C17.5612 7.25473 15.1777 8.08983 13.4082 9.53972C11.6388 10.9896 10.6196 12.9427 10.5628 14.9926C10.5059 17.0425 11.4158 19.0315 13.103 20.5457C14.7903 22.06 17.1251 22.9829 19.6217 23.1226C22.1182 23.2622 24.5844 22.6078 26.5072 21.2955L33.1719 26.7566L34.4198 25.734ZM12.3569 15.1864C12.3569 13.8992 12.8227 12.6409 13.6954 11.5707C14.5682 10.5004 15.8087 9.66622 17.26 9.17363C18.7113 8.68104 20.3083 8.55215 21.8491 8.80327C23.3898 9.0544 24.805 9.67424 25.9158 10.5844C27.0266 11.4946 27.7831 12.6543 28.0896 13.9167C28.396 15.1792 28.2388 16.4878 27.6376 17.677C27.0364 18.8662 26.0184 19.8827 24.7122 20.5978C23.4061 21.3129 21.8704 21.6946 20.2995 21.6946C18.1937 21.6927 16.1748 21.0064 14.6858 19.7863C13.1968 18.5662 12.3592 16.9119 12.3569 15.1864Z" fill="white" fill-opacity="0.1"/>
<path d="M207.391 121.187L200.726 115.726C202.328 114.151 203.127 112.13 202.956 110.084C202.786 108.039 201.659 106.126 199.811 104.743C197.963 103.361 195.536 102.615 193.034 102.662C190.533 102.708 188.149 103.543 186.38 104.993C184.61 106.443 183.591 108.396 183.534 110.446C183.477 112.496 184.387 114.485 186.074 115.999C187.762 117.513 190.096 118.436 192.593 118.576C195.09 118.716 197.556 118.061 199.478 116.749L206.143 122.21L207.391 121.187ZM185.328 110.64C185.328 109.353 185.794 108.094 186.667 107.024C187.54 105.954 188.78 105.12 190.231 104.627C191.683 104.134 193.28 104.006 194.82 104.257C196.361 104.508 197.776 105.128 198.887 106.038C199.998 106.948 200.754 108.108 201.061 109.37C201.367 110.633 201.21 111.941 200.609 113.13C200.008 114.32 198.99 115.336 197.684 116.051C196.377 116.766 194.842 117.148 193.271 117.148C191.165 117.146 189.146 116.46 187.657 115.24C186.168 114.02 185.331 112.365 185.328 110.64Z" fill="white" fill-opacity="0.1"/>
<path d="M119.14 44.5348L112.476 39.0737C114.077 37.4982 114.876 35.4774 114.705 33.4317C114.535 31.386 113.409 29.4729 111.561 28.0904C109.713 26.7078 107.285 25.9623 104.783 26.0089C102.282 26.0554 99.8982 26.8905 98.1287 28.3404C96.3592 29.7903 95.3401 31.7434 95.2832 33.7933C95.2264 35.8432 96.1362 37.8322 97.8235 39.3465C99.5108 40.8607 101.846 41.7836 104.342 41.9233C106.839 42.0629 109.305 41.4085 111.228 40.0962L117.892 45.5573L119.14 44.5348ZM97.0773 33.9871C97.0773 32.6999 97.5432 31.4416 98.4159 30.3714C99.2887 29.3011 100.529 28.4669 101.98 27.9743C103.432 27.4818 105.029 27.3529 106.57 27.604C108.11 27.8551 109.526 28.475 110.636 29.3851C111.747 30.2953 112.504 31.455 112.81 32.7175C113.117 33.9799 112.959 35.2885 112.358 36.4777C111.757 37.6669 110.739 38.6834 109.433 39.3985C108.127 40.1136 106.591 40.4953 105.02 40.4953C102.914 40.4934 100.895 39.8071 99.4063 38.587C97.9172 37.3669 97.0797 35.7126 97.0773 33.9871Z" fill="white" fill-opacity="0.1"/>
<g clip-path="url(#clip0_2576_5500)">
<path d="M196.802 22.1173L190.137 16.6562C191.739 15.0807 192.538 13.06 192.367 11.0143C192.197 8.96857 191.07 7.05546 189.222 5.67292C187.374 4.29038 184.947 3.54485 182.445 3.59143C179.944 3.63801 177.56 4.4731 175.791 5.92299C174.021 7.37289 173.002 9.32594 172.945 11.3759C172.888 13.4258 173.798 15.4148 175.485 16.929C177.173 18.4433 179.507 19.3662 182.004 19.5058C184.501 19.6455 186.967 18.9911 188.89 17.6787L195.554 23.1398L196.802 22.1173ZM174.739 11.5697C174.739 10.2825 175.205 9.0242 176.078 7.95393C176.951 6.88367 178.191 6.04949 179.642 5.5569C181.094 5.06431 182.691 4.93543 184.231 5.18655C185.772 5.43767 187.187 6.05752 188.298 6.9677C189.409 7.87789 190.165 9.03754 190.472 10.3C190.778 11.5625 190.621 12.8711 190.02 14.0603C189.419 15.2495 188.401 16.2659 187.095 16.9811C185.788 17.6962 184.253 18.0779 182.682 18.0779C180.576 18.076 178.557 17.3897 177.068 16.1696C175.579 14.9495 174.742 13.2952 174.739 11.5697Z" fill="white" fill-opacity="0.1"/>
</g>
<path d="M295.652 190.488L288.987 185.027C290.589 183.452 291.387 181.431 291.217 179.385C291.046 177.34 289.92 175.427 288.072 174.044C286.224 172.662 283.797 171.916 281.295 171.963C278.793 172.009 276.41 172.844 274.64 174.294C272.871 175.744 271.852 177.697 271.795 179.747C271.738 181.797 272.648 183.786 274.335 185.3C276.022 186.814 278.357 187.737 280.854 187.877C283.35 188.017 285.816 187.362 287.739 186.05L294.404 191.511L295.652 190.488ZM273.589 179.941C273.589 178.654 274.055 177.395 274.927 176.325C275.8 175.255 277.041 174.421 278.492 173.928C279.943 173.435 281.54 173.307 283.081 173.558C284.622 173.809 286.037 174.429 287.148 175.339C288.259 176.249 289.015 177.409 289.322 178.671C289.628 179.934 289.471 181.242 288.87 182.431C288.268 183.621 287.25 184.637 285.944 185.352C284.638 186.067 283.102 186.449 281.531 186.449C279.426 186.447 277.407 185.761 275.918 184.541C274.429 183.321 273.591 181.666 273.589 179.941Z" fill="white" fill-opacity="0.1"/>
<path d="M59.1297 179.761L52.4649 174.3C54.0665 172.725 54.8652 170.704 54.6948 168.658C54.5243 166.613 53.398 164.7 51.55 163.317C49.702 161.934 47.2746 161.189 44.7729 161.236C42.2711 161.282 39.8876 162.117 38.1181 163.567C36.3487 165.017 35.3295 166.97 35.2727 169.02C35.2158 171.07 36.1257 173.059 37.8129 174.573C39.5002 176.087 41.835 177.01 44.3316 177.15C46.8281 177.29 49.2943 176.635 51.2171 175.323L57.8818 180.784L59.1297 179.761ZM37.0667 169.214C37.0667 167.927 37.5326 166.668 38.4053 165.598C39.2781 164.528 40.5186 163.694 41.9699 163.201C43.4212 162.708 45.0182 162.58 46.559 162.831C48.0997 163.082 49.5149 163.702 50.6257 164.612C51.7365 165.522 52.493 166.682 52.7995 167.944C53.1059 169.207 52.9486 170.515 52.3475 171.704C51.7463 172.894 50.7283 173.91 49.4221 174.625C48.116 175.34 46.5803 175.722 45.0094 175.722C42.9036 175.72 40.8847 175.034 39.3957 173.814C37.9066 172.594 37.0691 170.939 37.0667 169.214Z" fill="white" fill-opacity="0.1"/>
<path d="M305.352 35.1344L298.688 29.6733C300.289 28.0978 301.088 26.077 300.917 24.0313C300.747 21.9856 299.621 20.0725 297.773 18.69C295.925 17.3075 293.497 16.5619 290.995 16.6085C288.494 16.6551 286.11 17.4902 284.341 18.9401C282.571 20.39 281.552 22.343 281.495 24.393C281.438 26.4429 282.348 28.4318 284.036 29.9461C285.723 31.4603 288.058 32.3833 290.554 32.5229C293.051 32.6626 295.517 32.0081 297.44 30.6958L304.104 36.1569L305.352 35.1344ZM283.289 24.5868C283.289 23.2996 283.755 22.0413 284.628 20.971C285.501 19.9008 286.741 19.0666 288.192 18.574C289.644 18.0814 291.241 17.9525 292.782 18.2036C294.322 18.4548 295.738 19.0746 296.848 19.9848C297.959 20.895 298.716 22.0546 299.022 23.3171C299.329 24.5796 299.171 25.8881 298.57 27.0774C297.969 28.2666 296.951 29.283 295.645 29.9982C294.339 30.7133 292.803 31.095 291.232 31.095C289.126 31.0931 287.107 30.4068 285.618 29.1867C284.129 27.9666 283.292 26.3123 283.289 24.5868Z" fill="white" fill-opacity="0.1"/>
<path d="M171.21 186.992L164.545 181.531C166.147 179.955 166.946 177.935 166.775 175.889C166.605 173.843 165.478 171.93 163.63 170.548C161.782 169.165 159.355 168.419 156.853 168.466C154.351 168.513 151.968 169.348 150.199 170.798C148.429 172.247 147.41 174.201 147.353 176.25C147.296 178.3 148.206 180.289 149.893 181.804C151.581 183.318 153.915 184.241 156.412 184.38C158.909 184.52 161.375 183.866 163.297 182.553L169.962 188.014L171.21 186.992ZM149.147 176.444C149.147 175.157 149.613 173.899 150.486 172.829C151.358 171.758 152.599 170.924 154.05 170.432C155.502 169.939 157.099 169.81 158.639 170.061C160.18 170.312 161.595 170.932 162.706 171.842C163.817 172.752 164.573 173.912 164.88 175.175C165.186 176.437 165.029 177.746 164.428 178.935C163.827 180.124 162.809 181.141 161.503 181.856C160.196 182.571 158.661 182.952 157.09 182.952C154.984 182.951 152.965 182.264 151.476 181.044C149.987 179.824 149.149 178.17 149.147 176.444Z" fill="white" fill-opacity="0.1"/>
<defs>
<clipPath id="clip0_2576_5500">
<rect width="28.229" height="23.1307" fill="white" transform="translate(171.208) scale(1.00041)"/>
</clipPath>
</defs>
</svg>
