<svg width="10" height="6" viewBox="0 0 10 6" fill="none" xmlns="http://www.w3.org/2000/svg">
<path d="M5 5.99999C4.88042 5.99999 4.76442 5.97708 4.65202 5.93128C4.53961 5.88548 4.44634 5.82441 4.3722 5.74808L0.246636 1.53435C0.0822119 1.36641 0 1.15267 0 0.893127C0 0.633586 0.0822119 0.419846 0.246636 0.251907C0.411061 0.0839689 0.620329 0 0.874439 0C1.12855 0 1.33782 0.0839689 1.50224 0.251907L5 3.82442L8.49776 0.251907C8.66218 0.0839689 8.87145 0 9.12556 0C9.37967 0 9.58894 0.0839689 9.75336 0.251907C9.91779 0.419846 10 0.633586 10 0.893127C10 1.15267 9.91779 1.36641 9.75336 1.53435L5.6278 5.74808C5.53812 5.83968 5.44096 5.90472 5.33632 5.94319C5.23169 5.98166 5.11958 6.0006 5 5.99999Z" fill="white"/>
</svg>
