<svg width="485" height="227" viewBox="0 0 485 227" fill="none" xmlns="http://www.w3.org/2000/svg">
<path d="M94.1082 56.5096L87.2907 50.8081C88.929 49.1632 89.7459 47.0535 89.5716 44.9177C89.3973 42.782 88.2451 40.7847 86.3547 39.3413C84.4643 37.8979 81.9813 37.1195 79.4222 37.1681C76.8631 37.2168 74.4249 38.0886 72.6149 39.6023C70.8049 41.1161 69.7624 43.1551 69.7042 45.2953C69.6461 47.4354 70.5768 49.512 72.3027 51.0929C74.0287 52.6738 76.417 53.6373 78.9708 53.7831C81.5246 53.9289 84.0473 53.2457 86.0142 51.8756L92.8317 57.5771L94.1082 56.5096ZM71.5394 45.4976C71.5394 44.1538 72.0159 42.8401 72.9087 41.7227C73.8015 40.6053 75.0704 39.7344 76.555 39.2201C78.0396 38.7059 79.6732 38.5713 81.2493 38.8335C82.8253 39.0957 84.273 39.7428 85.4093 40.693C86.5456 41.6433 87.3194 42.854 87.6329 44.172C87.9464 45.4901 87.7855 46.8563 87.1705 48.0978C86.5556 49.3394 85.5142 50.4006 84.1781 51.1472C82.842 51.8938 81.2711 52.2923 79.6642 52.2923C77.5101 52.2903 75.4449 51.5738 73.9218 50.3C72.3986 49.0262 71.5418 47.2991 71.5394 45.4976Z" fill="white" fill-opacity="0.1"/>
<path d="M199.815 37.6361L192.997 31.9346C194.635 30.2898 195.452 28.18 195.278 26.0443C195.104 23.9085 193.951 21.9112 192.061 20.4678C190.171 19.0244 187.688 18.2461 185.129 18.2947C182.57 18.3433 180.131 19.2152 178.321 20.7289C176.511 22.2426 175.469 24.2816 175.411 26.4218C175.352 28.562 176.283 30.6385 178.009 32.2194C179.735 33.8003 182.123 34.7639 184.677 34.9097C187.231 35.0554 189.754 34.3722 191.721 33.0021L198.538 38.7036L199.815 37.6361ZM177.246 26.6242C177.246 25.2803 177.722 23.9666 178.615 22.8492C179.508 21.7318 180.777 20.861 182.261 20.3467C183.746 19.8324 185.38 19.6978 186.956 19.96C188.532 20.2222 189.979 20.8693 191.116 21.8196C192.252 22.7698 193.026 23.9805 193.339 25.2986C193.653 26.6166 193.492 27.9828 192.877 29.2244C192.262 30.4659 191.221 31.5271 189.884 32.2737C188.548 33.0204 186.978 33.4189 185.371 33.4189C183.216 33.4169 181.151 32.7003 179.628 31.4265C178.105 30.1527 177.248 28.4256 177.246 26.6242Z" fill="white" fill-opacity="0.1"/>
<path d="M26.1793 158.03L19.3618 152.328C21.0001 150.684 21.817 148.574 21.6427 146.438C21.4684 144.302 20.3162 142.305 18.4258 140.862C16.5354 139.418 14.0524 138.64 11.4933 138.689C8.93422 138.737 6.49605 139.609 4.68602 141.123C2.87599 142.636 1.83347 144.676 1.77532 146.816C1.71717 148.956 2.64788 151.032 4.37383 152.613C6.09978 154.194 8.48808 155.158 11.0419 155.304C13.5957 155.449 16.1185 154.766 18.0853 153.396L24.9029 159.098L26.1793 158.03ZM3.61054 147.018C3.61054 145.674 4.08705 144.36 4.97981 143.243C5.87257 142.126 7.14148 141.255 8.62609 140.741C10.1107 140.226 11.7443 140.092 13.3204 140.354C14.8964 140.616 16.3441 141.263 17.4804 142.213C18.6167 143.164 19.3905 144.374 19.704 145.692C20.0175 147.011 19.8566 148.377 19.2416 149.618C18.6267 150.86 17.5853 151.921 16.2492 152.668C14.9131 153.414 13.3422 153.813 11.7353 153.813C9.58122 153.811 7.51604 153.094 5.99287 151.82C4.46969 150.547 3.61293 148.819 3.61054 147.018Z" fill="white" fill-opacity="0.1"/>
<path d="M151.885 200.509L145.068 194.808C146.706 193.163 147.523 191.053 147.349 188.918C147.174 186.782 146.022 184.785 144.132 183.341C142.241 181.898 139.758 181.119 137.199 181.168C134.64 181.217 132.202 182.089 130.392 183.602C128.582 185.116 127.539 187.155 127.481 189.295C127.423 191.435 128.354 193.512 130.08 195.093C131.806 196.674 134.194 197.637 136.748 197.783C139.302 197.929 141.824 197.246 143.791 195.875L150.609 201.577L151.885 200.509ZM129.317 189.498C129.317 188.154 129.793 186.84 130.686 185.723C131.579 184.605 132.848 183.734 134.332 183.22C135.817 182.706 137.45 182.571 139.026 182.833C140.602 183.096 142.05 183.743 143.186 184.693C144.323 185.643 145.096 186.854 145.41 188.172C145.723 189.49 145.563 190.856 144.948 192.098C144.333 193.339 143.291 194.4 141.955 195.147C140.619 195.894 139.048 196.292 137.441 196.292C135.287 196.29 133.222 195.574 131.699 194.3C130.176 193.026 129.319 191.299 129.317 189.498Z" fill="white" fill-opacity="0.1"/>
<path d="M403.582 173.128L396.765 167.427C398.403 165.782 399.22 163.672 399.046 161.537C398.872 159.401 397.719 157.403 395.829 155.96C393.939 154.517 391.456 153.738 388.896 153.787C386.337 153.836 383.899 154.707 382.089 156.221C380.279 157.735 379.237 159.774 379.178 161.914C379.12 164.054 380.051 166.131 381.777 167.712C383.503 169.293 385.891 170.256 388.445 170.402C390.999 170.548 393.522 169.864 395.488 168.494L402.306 174.196L403.582 173.128ZM381.014 162.116C381.014 160.773 381.49 159.459 382.383 158.341C383.276 157.224 384.545 156.353 386.029 155.839C387.514 155.325 389.147 155.19 390.724 155.452C392.3 155.714 393.747 156.362 394.884 157.312C396.02 158.262 396.794 159.473 397.107 160.791C397.421 162.109 397.26 163.475 396.645 164.717C396.03 165.958 394.988 167.019 393.652 167.766C392.316 168.513 390.745 168.911 389.138 168.911C386.984 168.909 384.919 168.193 383.396 166.919C381.873 165.645 381.016 163.918 381.014 162.116Z" fill="white" fill-opacity="0.1"/>
<path d="M290.824 56.5096L284.007 50.8081C285.645 49.1632 286.462 47.0535 286.288 44.9177C286.114 42.782 284.961 40.7847 283.071 39.3413C281.181 37.8979 278.698 37.1195 276.138 37.1681C273.579 37.2168 271.141 38.0886 269.331 39.6023C267.521 41.1161 266.479 43.1551 266.42 45.2953C266.362 47.4354 267.293 49.512 269.019 51.0929C270.745 52.6738 273.133 53.6373 275.687 53.7831C278.241 53.9289 280.764 53.2457 282.73 51.8756L289.548 57.5771L290.824 56.5096ZM268.256 45.4976C268.256 44.1538 268.732 42.8401 269.625 41.7227C270.518 40.6053 271.787 39.7344 273.271 39.2201C274.756 38.7059 276.389 38.5713 277.965 38.8335C279.542 39.0957 280.989 39.7428 282.126 40.693C283.262 41.6433 284.036 42.854 284.349 44.172C284.663 45.4901 284.502 46.8563 283.887 48.0978C283.272 49.3394 282.23 50.4006 280.894 51.1472C279.558 51.8938 277.987 52.2923 276.38 52.2923C274.226 52.2903 272.161 51.5738 270.638 50.3C269.115 49.0262 268.258 47.2991 268.256 45.4976Z" fill="white" fill-opacity="0.1"/>
<g clip-path="url(#clip0_2576_5472)">
<path d="M371.255 23.0913L364.437 17.3898C366.075 15.7449 366.892 13.6352 366.718 11.4994C366.544 9.36369 365.391 7.36637 363.501 5.92297C361.611 4.47957 359.128 3.70122 356.569 3.74985C354.009 3.79848 351.571 4.67034 349.761 6.18405C347.951 7.69777 346.909 9.7368 346.851 11.877C346.792 14.0171 347.723 16.0937 349.449 17.6746C351.175 19.2555 353.563 20.219 356.117 20.3648C358.671 20.5106 361.194 19.8274 363.16 18.4573L369.978 24.1588L371.255 23.0913ZM348.686 12.0793C348.686 10.7355 349.162 9.42178 350.055 8.3044C350.948 7.18701 352.217 6.31612 353.701 5.80185C355.186 5.28757 356.82 5.15301 358.396 5.41519C359.972 5.67736 361.419 6.3245 362.556 7.27475C363.692 8.22501 364.466 9.43571 364.779 10.7537C365.093 12.0718 364.932 13.438 364.317 14.6795C363.702 15.9211 362.66 16.9823 361.324 17.7289C359.988 18.4755 358.417 18.874 356.81 18.874C354.656 18.872 352.591 18.1555 351.068 16.8817C349.545 15.6079 348.688 13.8808 348.686 12.0793Z" fill="white" fill-opacity="0.1"/>
</g>
<path d="M466.128 188.629L459.311 182.927C460.949 181.282 461.766 179.173 461.591 177.037C461.417 174.901 460.265 172.904 458.375 171.46C456.484 170.017 454.001 169.239 451.442 169.287C448.883 169.336 446.445 170.208 444.635 171.721C442.825 173.235 441.782 175.274 441.724 177.414C441.666 179.555 442.597 181.631 444.323 183.212C446.049 184.793 448.437 185.756 450.991 185.902C453.544 186.048 456.067 185.365 458.034 183.995L464.852 189.696L466.128 188.629ZM443.559 177.617C443.559 176.273 444.036 174.959 444.929 173.842C445.821 172.724 447.09 171.854 448.575 171.339C450.059 170.825 451.693 170.69 453.269 170.953C454.845 171.215 456.293 171.862 457.429 172.812C458.565 173.762 459.339 174.973 459.653 176.291C459.966 177.609 459.805 178.975 459.19 180.217C458.575 181.459 457.534 182.52 456.198 183.266C454.862 184.013 453.291 184.411 451.684 184.411C449.53 184.409 447.465 183.693 445.942 182.419C444.418 181.145 443.562 179.418 443.559 177.617Z" fill="white" fill-opacity="0.1"/>
<path d="M411.878 74.229L405.061 68.5275C406.699 66.8826 407.516 64.7729 407.342 62.6372C407.168 60.5014 406.015 58.5041 404.125 57.0607C402.235 55.6173 399.752 54.8389 397.192 54.8876C394.633 54.9362 392.195 55.8081 390.385 57.3218C388.575 58.8355 387.533 60.8745 387.474 63.0147C387.416 65.1548 388.347 67.2314 390.073 68.8123C391.799 70.3932 394.187 71.3568 396.741 71.5025C399.295 71.6483 401.818 70.9651 403.784 69.595L410.602 75.2965L411.878 74.229ZM389.31 63.217C389.31 61.8732 389.786 60.5595 390.679 59.4421C391.572 58.3247 392.841 57.4538 394.325 56.9396C395.81 56.4253 397.443 56.2907 399.02 56.5529C400.596 56.8151 402.043 57.4622 403.18 58.4125C404.316 59.3627 405.09 60.5734 405.403 61.8915C405.717 63.2095 405.556 64.5757 404.941 65.8173C404.326 67.0588 403.284 68.12 401.948 68.8666C400.612 69.6132 399.041 70.0117 397.434 70.0117C395.28 70.0097 393.215 69.2932 391.692 68.0194C390.169 66.7456 389.312 65.0185 389.31 63.217Z" fill="white" fill-opacity="0.1"/>
<path d="M482.292 58.5761L475.474 52.8746C477.112 51.2297 477.929 49.12 477.755 46.9843C477.581 44.8485 476.428 42.8512 474.538 41.4078C472.648 39.9644 470.165 39.186 467.606 39.2347C465.046 39.2833 462.608 40.1551 460.798 41.6689C458.988 43.1826 457.946 45.2216 457.887 47.3618C457.829 49.5019 458.76 51.5785 460.486 53.1594C462.212 54.7403 464.6 55.7039 467.154 55.8496C469.708 55.9954 472.231 55.3122 474.197 53.9421L481.015 59.6436L482.292 58.5761ZM459.723 47.5641C459.723 46.2203 460.199 44.9066 461.092 43.7892C461.985 42.6718 463.254 41.8009 464.738 41.2867C466.223 40.7724 467.856 40.6378 469.433 40.9C471.009 41.1622 472.456 41.8093 473.593 42.7596C474.729 43.7098 475.503 44.9205 475.816 46.2386C476.13 47.5566 475.969 48.9228 475.354 50.1644C474.739 51.4059 473.697 52.4671 472.361 53.2137C471.025 53.9603 469.454 54.3588 467.847 54.3588C465.693 54.3568 463.628 53.6403 462.105 52.3665C460.582 51.0927 459.725 49.3656 459.723 47.5641Z" fill="white" fill-opacity="0.1"/>
<path d="M345.074 205.238L338.257 199.537C339.895 197.892 340.712 195.782 340.538 193.646C340.363 191.511 339.211 189.513 337.321 188.07C335.43 186.626 332.947 185.848 330.388 185.897C327.829 185.945 325.391 186.817 323.581 188.331C321.771 189.845 320.728 191.884 320.67 194.024C320.612 196.164 321.543 198.24 323.269 199.821C324.995 201.402 327.383 202.366 329.937 202.512C332.491 202.657 335.013 201.974 336.98 200.604L343.798 206.306L345.074 205.238ZM322.505 194.226C322.505 192.882 322.982 191.569 323.875 190.451C324.767 189.334 326.036 188.463 327.521 187.949C329.006 187.434 330.639 187.3 332.215 187.562C333.791 187.824 335.239 188.471 336.375 189.422C337.511 190.372 338.285 191.583 338.599 192.901C338.912 194.219 338.751 195.585 338.136 196.826C337.522 198.068 336.48 199.129 335.144 199.876C333.808 200.622 332.237 201.021 330.63 201.021C328.476 201.019 326.411 200.302 324.888 199.029C323.365 197.755 322.508 196.028 322.505 194.226Z" fill="white" fill-opacity="0.1"/>
<defs>
<clipPath id="clip0_2576_5472">
<rect width="28.8456" height="24.1234" fill="white" transform="translate(345.072) scale(1.00147)"/>
</clipPath>
</defs>
</svg>
