<svg width="28" height="28" viewBox="0 0 28 28" fill="none" xmlns="http://www.w3.org/2000/svg">
<path d="M8.7513 18.668C8.59659 18.668 8.44822 18.7294 8.33882 18.8388C8.22943 18.9482 8.16797 19.0966 8.16797 19.2513C8.16797 19.406 8.22943 19.5544 8.33882 19.6638C8.44822 19.7732 8.59659 19.8346 8.7513 19.8346H19.2513C19.406 19.8346 19.5544 19.7732 19.6638 19.6638C19.7732 19.5544 19.8346 19.406 19.8346 19.2513C19.8346 19.0966 19.7732 18.9482 19.6638 18.8388C19.5544 18.7294 19.406 18.668 19.2513 18.668H8.7513ZM8.16797 21.5846C8.16797 21.4299 8.22943 21.2816 8.33882 21.1722C8.44822 21.0628 8.59659 21.0013 8.7513 21.0013H15.7513C15.906 21.0013 16.0544 21.0628 16.1638 21.1722C16.2732 21.2816 16.3346 21.4299 16.3346 21.5846C16.3346 21.7393 16.2732 21.8877 16.1638 21.9971C16.0544 22.1065 15.906 22.168 15.7513 22.168H8.7513C8.59659 22.168 8.44822 22.1065 8.33882 21.9971C8.22943 21.8877 8.16797 21.7393 8.16797 21.5846Z" fill="white"/>
<path fill-rule="evenodd" clip-rule="evenodd" d="M12.2064 9.10887C12.1621 9.00259 12.0874 8.9118 11.9915 8.84794C11.8957 8.78408 11.7832 8.75 11.668 8.75C11.5529 8.75 11.4403 8.78408 11.3445 8.84794C11.2487 8.9118 11.1739 9.00259 11.1296 9.10887L8.94676 14.3472C8.94328 14.3553 8.93997 14.3635 8.93685 14.3717L8.21293 16.1089C8.15337 16.2517 8.15297 16.4123 8.21182 16.5554C8.27068 16.6985 8.38397 16.8123 8.52676 16.8719C8.66956 16.9314 8.83017 16.9318 8.97326 16.873C9.11635 16.8141 9.2302 16.7008 9.28976 16.558L9.8696 15.1668H13.4664L14.0463 16.558C14.1058 16.7008 14.2197 16.8141 14.3628 16.873C14.5059 16.9318 14.6665 16.9314 14.8093 16.8719C14.9521 16.8123 15.0653 16.6985 15.1242 16.5554C15.1831 16.4123 15.1827 16.2517 15.1231 16.1089L14.3992 14.3717C14.3961 14.3635 14.3927 14.3553 14.3893 14.3472L12.2064 9.10887ZM11.668 10.8501L12.9805 14.0001H10.3555L11.668 10.8501Z" fill="white"/>
<path d="M17.5013 12.25C17.656 12.25 17.8044 12.3115 17.9138 12.4209C18.0232 12.5303 18.0846 12.6786 18.0846 12.8333V14H19.2513C19.406 14 19.5544 14.0615 19.6638 14.1709C19.7732 14.2803 19.8346 14.4286 19.8346 14.5833C19.8346 14.738 19.7732 14.8864 19.6638 14.9958C19.5544 15.1052 19.406 15.1667 19.2513 15.1667H18.0846V16.3333C18.0846 16.488 18.0232 16.6364 17.9138 16.7458C17.8044 16.8552 17.656 16.9167 17.5013 16.9167C17.3466 16.9167 17.1982 16.8552 17.0888 16.7458C16.9794 16.6364 16.918 16.488 16.918 16.3333V15.1667H15.7513C15.5966 15.1667 15.4482 15.1052 15.3388 14.9958C15.2294 14.8864 15.168 14.738 15.168 14.5833C15.168 14.4286 15.2294 14.2803 15.3388 14.1709C15.4482 14.0615 15.5966 14 15.7513 14H16.918V12.8333C16.918 12.6786 16.9794 12.5303 17.0888 12.4209C17.1982 12.3115 17.3466 12.25 17.5013 12.25Z" fill="white"/>
<path fill-rule="evenodd" clip-rule="evenodd" d="M22.1673 8.75065L16.334 2.33398H8.16732C7.54848 2.33398 6.95499 2.57982 6.5174 3.0174C6.07982 3.45499 5.83398 4.04848 5.83398 4.66732V23.334C5.83398 23.9528 6.07982 24.5463 6.5174 24.9839C6.95499 25.4215 7.54848 25.6673 8.16732 25.6673H19.834C20.4528 25.6673 21.0463 25.4215 21.4839 24.9839C21.9215 24.5463 22.1673 23.9528 22.1673 23.334V8.75065ZM15.7507 8.75065C15.7507 8.90536 15.8121 9.05373 15.9215 9.16313C16.0309 9.27253 16.1793 9.33398 16.334 9.33398H21.0007V23.334C21.0007 23.6434 20.8777 23.9402 20.6589 24.1589C20.4402 24.3777 20.1434 24.5007 19.834 24.5007H8.16732C7.8579 24.5007 7.56115 24.3777 7.34236 24.1589C7.12357 23.9402 7.00065 23.6434 7.00065 23.334V4.66732C7.00065 4.3579 7.12357 4.06115 7.34236 3.84236C7.56115 3.62357 7.8579 3.50065 8.16732 3.50065H15.7507V8.75065ZM20.0603 8.16732L16.9173 4.7099V8.16732H20.0603Z" fill="white"/>
</svg>
