<svg width="17" height="17" viewBox="0 0 17 17" fill="none" xmlns="http://www.w3.org/2000/svg">
<path d="M4.36506 11.5656C4.14094 11.7897 4.13027 12.1899 4.37039 12.4247C4.60518 12.6595 5.00539 12.6541 5.2295 12.43L8.49518 9.15899L11.7662 12.43C11.9957 12.6595 12.3905 12.6595 12.6253 12.4247C12.8548 12.1845 12.8601 11.795 12.6253 11.5656L9.35963 8.29454L12.6253 5.02886C12.8601 4.79941 12.8601 4.40454 12.6253 4.16975C12.3852 3.9403 11.9957 3.93496 11.7662 4.16442L8.49518 7.43543L5.2295 4.16442C5.00539 3.9403 4.59985 3.92963 4.37039 4.16975C4.13561 4.40454 4.14094 4.80475 4.36506 5.02886L7.63608 8.29454L4.36506 11.5656Z" fill="#505050"/>
</svg>
