<svg width="17" height="17" viewBox="0 0 17 17" fill="none" xmlns="http://www.w3.org/2000/svg">
<path d="M4.36506 11.5666C4.14094 11.7907 4.13027 12.1909 4.37039 12.4257C4.60518 12.6605 5.00539 12.6551 5.2295 12.431L8.49518 9.15998L11.7662 12.431C11.9957 12.6605 12.3905 12.6605 12.6253 12.4257C12.8548 12.1855 12.8601 11.796 12.6253 11.5666L9.35963 8.29554L12.6253 5.02985C12.8601 4.8004 12.8601 4.40553 12.6253 4.17075C12.3852 3.94129 11.9957 3.93596 11.7662 4.16541L8.49518 7.43643L5.2295 4.16541C5.00539 3.94129 4.59985 3.93062 4.37039 4.17075C4.13561 4.40553 4.14094 4.80574 4.36506 5.02985L7.63608 8.29554L4.36506 11.5666Z" fill="#505050"/>
</svg>
