<svg width="17" height="17" viewBox="0 0 17 17" fill="none" xmlns="http://www.w3.org/2000/svg">
<path d="M4.63607 8.89812H7.89108V12.1531C7.89108 12.484 8.16322 12.7614 8.49939 12.7614C8.83556 12.7614 9.1077 12.484 9.1077 12.1531V8.89812H12.3627C12.6935 8.89812 12.971 8.62598 12.971 8.28981C12.971 7.95363 12.6935 7.68149 12.3627 7.68149H9.1077V4.42648C9.1077 4.09565 8.83556 3.81817 8.49939 3.81817C8.16322 3.81817 7.89108 4.09565 7.89108 4.42648V7.68149H4.63607C4.30523 7.68149 4.02775 7.95363 4.02775 8.28981C4.02775 8.62598 4.30523 8.89812 4.63607 8.89812Z" fill="#505050"/>
</svg>
