<svg width="24" height="25" viewBox="0 0 24 25" fill="none" xmlns="http://www.w3.org/2000/svg">
<path d="M17.0502 20.5124C16.0702 21.4733 15.0002 21.3216 13.9702 20.8664C12.8802 20.4012 11.8802 20.3809 10.7302 20.8664C9.29016 21.4935 8.53016 21.3115 7.67016 20.5124C2.79016 15.4247 3.51016 7.67684 9.05016 7.39362C10.4002 7.46443 11.3402 8.14211 12.1302 8.2028C13.3102 7.96005 14.4402 7.26213 15.7002 7.35317C17.2102 7.47454 18.3502 8.08143 19.1002 9.17382C15.9802 11.0653 16.7202 15.2224 19.5802 16.3856C19.0102 17.9028 18.2702 19.4099 17.0402 20.5225L17.0502 20.5124ZM12.0302 7.33294C11.8802 5.07735 13.6902 3.21624 15.7702 3.03418C16.0602 5.64378 13.4302 7.5858 12.0302 7.33294Z" fill="black"/>
</svg>
