<svg width="24" height="24" viewBox="0 0 24 24" fill="none" xmlns="http://www.w3.org/2000/svg">
<g id="ic:baseline-apple">
<path id="Vector" d="M17.0502 20.2535C16.0702 21.2023 15.0002 21.0525 13.9702 20.6031C12.8802 20.1437 11.8802 20.1237 10.7302 20.6031C9.29016 21.2223 8.53016 21.0425 7.67016 20.2535C2.79016 15.2301 3.51016 7.5801 9.05016 7.30046C10.4002 7.37037 11.3402 8.0395 12.1302 8.09942C13.3102 7.85973 14.4402 7.17063 15.7002 7.26052C17.2102 7.38036 18.3502 7.97957 19.1002 9.05816C15.9802 10.9257 16.7202 15.0304 19.5802 16.1789C19.0102 17.6769 18.2702 19.1649 17.0402 20.2635L17.0502 20.2535ZM12.0302 7.24054C11.8802 5.01345 13.6902 3.17586 15.7702 2.99609C16.0602 5.57272 13.4302 7.49022 12.0302 7.24054Z" fill="white"/>
</g>
</svg>
