<svg width="32" height="32" viewBox="0 0 32 32" fill="none" xmlns="http://www.w3.org/2000/svg">
<path d="M16.0001 20.7692L11.2827 16.0505L12.2254 15.0918L15.3334 18.1998V6.6665H16.6667V18.1998L19.7734 15.0932L20.7174 16.0505L16.0001 20.7692ZM8.82008 25.3332C8.20675 25.3332 7.69475 25.1278 7.28408 24.7172C6.87253 24.3056 6.66675 23.7932 6.66675 23.1798V19.9492H8.00008V23.1798C8.00008 23.3843 8.08541 23.5723 8.25608 23.7438C8.42764 23.9145 8.61564 23.9998 8.82008 23.9998H23.1801C23.3845 23.9998 23.5725 23.9145 23.7441 23.7438C23.9147 23.5723 24.0001 23.3843 24.0001 23.1798V19.9492H25.3334V23.1798C25.3334 23.7932 25.1281 24.3052 24.7174 24.7158C24.3059 25.1274 23.7934 25.3332 23.1801 25.3332H8.82008Z" fill="#0E0E0E"/>
</svg>
