<svg width="17" height="17" viewBox="0 0 17 17" fill="none" xmlns="http://www.w3.org/2000/svg">
<path d="M13.4583 13.4584H3.54167V5.66671H13.4583M11.3333 0.708374V2.12504H5.66667V0.708374H4.25V2.12504H3.54167C2.75542 2.12504 2.125 2.75546 2.125 3.54171V13.4584C2.125 13.8341 2.27426 14.1944 2.53993 14.4601C2.80561 14.7258 3.16594 14.875 3.54167 14.875H13.4583C13.8341 14.875 14.1944 14.7258 14.4601 14.4601C14.7257 14.1944 14.875 13.8341 14.875 13.4584V3.54171C14.875 3.16598 14.7257 2.80565 14.4601 2.53997C14.1944 2.2743 13.8341 2.12504 13.4583 2.12504H12.75V0.708374M12.0417 8.50004H8.5V12.0417H12.0417V8.50004Z" fill="#0B0B0B"/>
</svg>
