<svg width="12" height="14" viewBox="0 0 12 14" fill="none" xmlns="http://www.w3.org/2000/svg">
<path id="Vector" d="M11.1689 0.98891C10.2775 1.67098 9.47589 1.82538 8.70446 1.74348C7.89531 1.65822 7.09851 1.31383 6.20983 0.925806L6.17349 0.909694C5.32663 0.539122 4.39063 0.129613 3.40594 0.0255572C2.36983 -0.083869 1.3008 0.14371 0.197486 0.988239C0.135953 1.03535 0.0861898 1.09556 0.0519717 1.1643C0.0177537 1.23305 -1.981e-05 1.30852 1.65694e-08 1.38499V12.5874C2.06344e-08 12.7209 0.0541835 12.849 0.150631 12.9434C0.247078 13.0379 0.377889 13.0909 0.514286 13.0909C0.650683 13.0909 0.781493 13.0379 0.877941 12.9434C0.974388 12.849 1.02857 12.7209 1.02857 12.5874V9.27375C1.84183 8.71319 2.58103 8.58698 3.29554 8.66284C4.10469 8.74743 4.90149 9.09182 5.79017 9.48052L5.82651 9.49596C6.67337 9.8672 7.60937 10.276 8.59406 10.3801C9.63017 10.4895 10.6992 10.2619 11.8025 9.41741C11.864 9.3703 11.9138 9.31009 11.948 9.24135C11.9822 9.1726 12 9.09713 12 9.02066V1.38499C11.9999 1.29067 11.9727 1.19828 11.9216 1.11833C11.8705 1.03839 11.7974 0.974115 11.7108 0.932832C11.6242 0.891548 11.5275 0.874916 11.4317 0.884831C11.3358 0.894746 11.2448 0.930808 11.1689 0.98891Z" fill="#EA4335"/>
</svg>
