<svg width="19" height="19" viewBox="0 0 19 19" fill="none" xmlns="http://www.w3.org/2000/svg">
<g clip-path="url(#clip0_1518_9584)">
<path d="M9.5 17.8125C7.29539 17.8125 5.18107 16.9367 3.62217 15.3778C2.06328 13.8189 1.1875 11.7046 1.1875 9.5C1.1875 7.29539 2.06328 5.18107 3.62217 3.62217C5.18107 2.06328 7.29539 1.1875 9.5 1.1875C11.7046 1.1875 13.8189 2.06328 15.3778 3.62217C16.9367 5.18107 17.8125 7.29539 17.8125 9.5C17.8125 11.7046 16.9367 13.8189 15.3778 15.3778C13.8189 16.9367 11.7046 17.8125 9.5 17.8125ZM9.5 19C12.0196 19 14.4359 17.9991 16.2175 16.2175C17.9991 14.4359 19 12.0196 19 9.5C19 6.98044 17.9991 4.56408 16.2175 2.78249C14.4359 1.00089 12.0196 0 9.5 0C6.98044 0 4.56408 1.00089 2.78249 2.78249C1.00089 4.56408 0 6.98044 0 9.5C0 12.0196 1.00089 14.4359 2.78249 16.2175C4.56408 17.9991 6.98044 19 9.5 19Z" fill="#FFB700"/>
<path d="M8.31519 13.0626C8.31519 12.9066 8.3459 12.7522 8.40558 12.6081C8.46526 12.4641 8.55273 12.3332 8.663 12.2229C8.77327 12.1126 8.90418 12.0251 9.04825 11.9655C9.19232 11.9058 9.34674 11.8751 9.50269 11.8751C9.65863 11.8751 9.81305 11.9058 9.95712 11.9655C10.1012 12.0251 10.2321 12.1126 10.3424 12.2229C10.4526 12.3332 10.5401 12.4641 10.5998 12.6081C10.6595 12.7522 10.6902 12.9066 10.6902 13.0626C10.6902 13.3775 10.5651 13.6796 10.3424 13.9023C10.1197 14.125 9.81763 14.2501 9.50269 14.2501C9.18774 14.2501 8.8857 14.125 8.663 13.9023C8.4403 13.6796 8.31519 13.3775 8.31519 13.0626ZM8.43156 5.93164C8.41575 5.78183 8.43161 5.63036 8.47811 5.48707C8.52462 5.34379 8.60072 5.21187 8.7015 5.0999C8.80228 4.98793 8.92547 4.89839 9.06309 4.8371C9.2007 4.77581 9.34966 4.74414 9.50031 4.74414C9.65096 4.74414 9.79992 4.77581 9.93754 4.8371C10.0752 4.89839 10.1983 4.98793 10.2991 5.0999C10.3999 5.21187 10.476 5.34379 10.5225 5.48707C10.569 5.63036 10.5849 5.78183 10.5691 5.93164L10.1534 10.0962C10.1395 10.2598 10.0646 10.4122 9.94367 10.5233C9.82273 10.6343 9.66451 10.696 9.50031 10.696C9.33611 10.696 9.17789 10.6343 9.05695 10.5233C8.93601 10.4122 8.86115 10.2598 8.84719 10.0962L8.43156 5.93164Z" fill="#FFB700"/>
</g>
<defs>
<clipPath id="clip0_1518_9584">
<rect width="19" height="19" fill="white"/>
</clipPath>
</defs>
</svg>
