<svg width="12" height="13" viewBox="0 0 12 13" fill="none" xmlns="http://www.w3.org/2000/svg">
<path d="M11.9614 3.83701C11.9546 3.29117 11.8602 2.75075 11.6821 2.23994C11.5278 1.80907 11.292 1.41776 10.9899 1.09102C10.6878 0.764277 10.326 0.509284 9.92759 0.342333C9.46135 0.153046 8.9688 0.050695 8.4709 0.0396386C7.82985 0.00864846 7.62661 0 5.99933 0C4.37206 0 4.16348 4.83268e-08 3.5271 0.0396386C3.02943 0.0507763 2.5371 0.153126 2.07108 0.342333C1.67263 0.509167 1.31076 0.764119 1.00864 1.09088C0.706516 1.41763 0.470784 1.809 0.316526 2.23994C0.141158 2.7438 0.046728 3.27639 0.0373167 3.81467C0.00866281 4.5087 0 4.72852 0 6.48847C0 8.24842 -4.96485e-09 8.47328 0.0373167 9.16227C0.0473123 9.70135 0.14127 10.2332 0.316526 10.7384C0.471042 11.1692 0.70695 11.5605 1.00918 11.8871C1.3114 12.2137 1.6733 12.4685 2.07175 12.6353C2.5365 12.8322 3.0289 12.9419 3.52777 12.9596C4.16948 12.9906 4.37272 13 6 13C7.62728 13 7.83585 13 8.47223 12.9596C8.97012 12.949 9.4627 12.8469 9.92892 12.6577C10.3272 12.4905 10.6889 12.2355 10.991 11.9087C11.2931 11.582 11.5289 11.1908 11.6835 10.7601C11.8587 10.2556 11.9527 9.72369 11.9627 9.18389C11.9913 8.49058 12 8.27076 12 6.51009C11.9987 4.75014 11.9987 4.52672 11.9614 3.83701ZM5.99534 9.81666C4.29343 9.81666 2.9147 8.32554 2.9147 6.48487C2.9147 4.6442 4.29343 3.15307 5.99534 3.15307C6.81237 3.15307 7.59594 3.50409 8.17367 4.12893C8.7514 4.75376 9.07597 5.60122 9.07597 6.48487C9.07597 7.36851 8.7514 8.21597 8.17367 8.8408C7.59594 9.46564 6.81237 9.81666 5.99534 9.81666ZM9.19858 3.80674C9.10422 3.80684 9.01077 3.78681 8.92358 3.7478C8.83638 3.70879 8.75716 3.65156 8.69044 3.5794C8.62371 3.50724 8.5708 3.42155 8.53473 3.32725C8.49866 3.23295 8.48014 3.13188 8.48023 3.02983C8.48023 2.92785 8.4988 2.82687 8.53489 2.73265C8.57097 2.63844 8.62386 2.55283 8.69053 2.48072C8.75721 2.40861 8.83636 2.35141 8.92347 2.31238C9.01059 2.27336 9.10396 2.25327 9.19825 2.25327C9.29254 2.25327 9.3859 2.27336 9.47302 2.31238C9.56013 2.35141 9.63929 2.40861 9.70596 2.48072C9.77263 2.55283 9.82552 2.63844 9.8616 2.73265C9.89769 2.82687 9.91626 2.92785 9.91626 3.02983C9.91626 3.45936 9.59507 3.80674 9.19858 3.80674Z" fill="white"/>
<path d="M5.9972 8.64957C7.10239 8.64957 7.99831 7.6806 7.99831 6.48531C7.99831 5.29002 7.10239 4.32104 5.9972 4.32104C4.89202 4.32104 3.99609 5.29002 3.99609 6.48531C3.99609 7.6806 4.89202 8.64957 5.9972 8.64957Z" fill="white"/>
</svg>
