<svg width="37" height="37" viewBox="0 0 37 37" fill="none" xmlns="http://www.w3.org/2000/svg">
<path d="M36.3841 10.8912C36.3639 9.34186 36.0805 7.80791 35.5464 6.35798C35.0833 5.13497 34.376 4.02426 33.4697 3.09682C32.5634 2.16937 31.4779 1.44558 30.2828 0.971699C28.8841 0.434415 27.4064 0.143896 25.9127 0.112513C23.9896 0.0245483 23.3798 0 18.498 0C13.6162 0 12.9904 1.37174e-07 11.0813 0.112513C9.58828 0.144127 8.11131 0.434642 6.71324 0.971699C5.51789 1.44525 4.43229 2.16892 3.52592 3.09641C2.61955 4.0239 1.91235 5.13478 1.44958 6.35798C0.923474 7.78818 0.640184 9.2999 0.61195 10.8278C0.525988 12.7978 0.5 13.4217 0.5 18.4173C0.5 23.4128 0.5 24.0511 0.61195 26.0068C0.641937 27.5369 0.923811 29.0466 1.44958 30.4807C1.91313 31.7035 2.62085 32.8139 3.52753 33.741C4.4342 34.6681 5.5199 35.3915 6.71524 35.8649C8.10949 36.4238 9.58671 36.7351 11.0833 36.7854C13.0084 36.8734 13.6182 36.9 18.5 36.9C23.3818 36.9 24.0076 36.9 25.9167 36.7854C27.4103 36.7554 28.8881 36.4655 30.2868 35.9283C31.4816 35.4539 32.5668 34.7299 33.473 33.8025C34.3793 32.8751 35.0868 31.7647 35.5504 30.542C36.0762 29.1101 36.3581 27.6003 36.3881 26.0681C36.474 24.1002 36.5 23.4762 36.5 18.4786C36.496 13.4831 36.496 12.8489 36.3841 10.8912ZM18.486 27.8642C13.3803 27.8642 9.24411 23.6317 9.24411 18.407C9.24411 13.1824 13.3803 8.94986 18.486 8.94986C20.9371 8.94986 23.2878 9.94624 25.021 11.7198C26.7542 13.4934 27.7279 15.8988 27.7279 18.407C27.7279 20.9152 26.7542 23.3207 25.021 25.0943C23.2878 26.8679 20.9371 27.8642 18.486 27.8642ZM28.0957 10.8053C27.8127 10.8056 27.5323 10.7487 27.2707 10.638C27.0091 10.5272 26.7715 10.3648 26.5713 10.16C26.3711 9.95516 26.2124 9.71195 26.1042 9.44427C25.996 9.1766 25.9404 8.88972 25.9407 8.60005C25.9407 8.31058 25.9964 8.02396 26.1047 7.75653C26.2129 7.4891 26.3716 7.24611 26.5716 7.04143C26.7716 6.83674 27.0091 6.67438 27.2704 6.56361C27.5318 6.45284 27.8119 6.39582 28.0947 6.39582C28.3776 6.39582 28.6577 6.45284 28.9191 6.56361C29.1804 6.67438 29.4179 6.83674 29.6179 7.04143C29.8179 7.24611 29.9766 7.4891 30.0848 7.75653C30.1931 8.02396 30.2488 8.31058 30.2488 8.60005C30.2488 9.81927 29.2852 10.8053 28.0957 10.8053Z" fill="#9A9A9A"/>
<path d="M18.4992 24.3001C21.9786 24.3001 24.7992 21.681 24.7992 18.4501C24.7992 15.2192 21.9786 12.6001 18.4992 12.6001C15.0198 12.6001 12.1992 15.2192 12.1992 18.4501C12.1992 21.681 15.0198 24.3001 18.4992 24.3001Z" fill="#9A9A9A"/>
</svg>
