<svg width="36" height="37" viewBox="0 0 36 37" fill="none" xmlns="http://www.w3.org/2000/svg">
<path d="M35.8841 10.8912C35.8639 9.34186 35.5805 7.80791 35.0464 6.35798C34.5833 5.13497 33.876 4.02426 32.9697 3.09682C32.0634 2.16937 30.9779 1.44558 29.7828 0.971699C28.3841 0.434415 26.9064 0.143896 25.4127 0.112513C23.4896 0.0245483 22.8798 0 17.998 0C13.1162 0 12.4904 1.41561e-07 10.5813 0.112513C9.08828 0.144127 7.61131 0.434642 6.21324 0.971699C5.01789 1.44525 3.93229 2.16892 3.02592 3.09641C2.11955 4.0239 1.41235 5.13478 0.949578 6.35798C0.423474 7.78818 0.140184 9.2999 0.11195 10.8278C0.0259884 12.7978 0 13.4217 0 18.4173C0 23.4128 -1.49012e-08 24.0511 0.11195 26.0068C0.141937 27.5369 0.423811 29.0466 0.949578 30.4807C1.41313 31.7035 2.12085 32.8139 3.02753 33.741C3.9342 34.6681 5.0199 35.3915 6.21524 35.8649C7.60949 36.4238 9.08671 36.7351 10.5833 36.7854C12.5084 36.8734 13.1182 36.9 18 36.9C22.8818 36.9 23.5076 36.9 25.4167 36.7854C26.9103 36.7554 28.3881 36.4655 29.7868 35.9283C30.9816 35.4539 32.0668 34.7299 32.973 33.8025C33.8793 32.8751 34.5868 31.7647 35.0504 30.542C35.5762 29.11 35.8581 27.6003 35.8881 26.0681C35.974 24.1002 36 23.4762 36 18.4786C35.996 13.4831 35.996 12.8489 35.8841 10.8912ZM17.986 27.8642C12.8803 27.8642 8.74411 23.6317 8.74411 18.407C8.74411 13.1824 12.8803 8.94986 17.986 8.94986C20.4371 8.94986 22.7878 9.94624 24.521 11.7198C26.2542 13.4934 27.2279 15.8988 27.2279 18.407C27.2279 20.9152 26.2542 23.3207 24.521 25.0943C22.7878 26.8679 20.4371 27.8642 17.986 27.8642ZM27.5957 10.8053C27.3127 10.8056 27.0323 10.7487 26.7707 10.638C26.5091 10.5272 26.2715 10.3648 26.0713 10.16C25.8711 9.95516 25.7124 9.71195 25.6042 9.44427C25.496 9.1766 25.4404 8.88972 25.4407 8.60005C25.4407 8.31058 25.4964 8.02396 25.6047 7.75653C25.7129 7.4891 25.8716 7.24611 26.0716 7.04143C26.2716 6.83674 26.5091 6.67438 26.7704 6.56361C27.0318 6.45284 27.3119 6.39582 27.5947 6.39582C27.8776 6.39582 28.1577 6.45284 28.4191 6.56361C28.6804 6.67438 28.9179 6.83674 29.1179 7.04143C29.3179 7.24611 29.4766 7.4891 29.5848 7.75653C29.6931 8.02396 29.7488 8.31058 29.7488 8.60005C29.7488 9.81927 28.7852 10.8053 27.5957 10.8053Z" fill="white"/>
</svg>
