<svg width="20" height="20" viewBox="0 0 20 20" fill="none" xmlns="http://www.w3.org/2000/svg">
<path d="M13.3837 2.04506C13.618 2.27947 13.7497 2.59735 13.7497 2.92881C13.7497 3.26027 13.618 3.57815 13.3837 3.81256L7.19619 10.0001L13.3837 16.1876C13.6114 16.4233 13.7374 16.7391 13.7345 17.0668C13.7317 17.3946 13.6002 17.7081 13.3685 17.9398C13.1367 18.1716 12.8232 18.3031 12.4954 18.3059C12.1677 18.3088 11.8519 18.1828 11.6162 17.9551L4.54494 10.8838C4.3106 10.6494 4.17896 10.3315 4.17896 10.0001C4.17896 9.6686 4.3106 9.35072 4.54494 9.11631L11.6162 2.04506C11.8506 1.81072 12.1685 1.67908 12.4999 1.67908C12.8314 1.67908 13.1493 1.81072 13.3837 2.04506Z" fill="#0040C3"/>
</svg>
