<svg width="40" height="37" viewBox="0 0 40 37" fill="none" xmlns="http://www.w3.org/2000/svg">
<path d="M8.39454 4.11294C8.39399 5.20321 7.95124 6.24862 7.16371 7.01917C6.37617 7.78972 5.30836 8.22231 4.19517 8.22177C3.08199 8.22122 2.01462 7.78759 1.22787 7.01626C0.441121 6.24494 -0.000556067 5.1991 5.25418e-07 4.10883C0.000557118 3.01855 0.443302 1.97315 1.23084 1.2026C2.01837 0.432042 3.08618 -0.000544622 4.19937 5.14603e-07C5.31256 0.000545652 6.37993 0.434178 7.16668 1.2055C7.95342 1.97683 8.3951 3.02266 8.39454 4.11294ZM8.52046 11.2659H0.125919V37H8.52046V11.2659ZM21.7838 11.2659H13.4313V37H21.6999V23.4958C21.6999 15.9728 31.7104 15.274 31.7104 23.4958V37H40V20.7003C40 8.01828 25.1836 8.49103 21.6999 14.719L21.7838 11.2659Z" fill="white"/>
</svg>
