<svg width="41" height="37" viewBox="0 0 41 37" fill="none" xmlns="http://www.w3.org/2000/svg">
<path d="M8.89454 4.11294C8.89399 5.20321 8.45124 6.24862 7.66371 7.01917C6.87617 7.78972 5.80836 8.22231 4.69517 8.22177C3.58199 8.22122 2.51462 7.78759 1.72787 7.01626C0.941121 6.24494 0.499444 5.1991 0.500001 4.10883C0.500557 3.01855 0.943302 1.97315 1.73084 1.2026C2.51837 0.432042 3.58618 -0.000544622 4.69937 5.14603e-07C5.81256 0.000545652 6.87993 0.434178 7.66668 1.2055C8.45342 1.97683 8.8951 3.02266 8.89454 4.11294ZM9.02046 11.2659H0.625919V37H9.02046V11.2659ZM22.2838 11.2659H13.9313V37H22.1999V23.4958C22.1999 15.9728 32.2104 15.274 32.2104 23.4958V37H40.5V20.7003C40.5 8.01828 25.6836 8.49103 22.1999 14.719L22.2838 11.2659Z" fill="#9A9A9A"/>
</svg>
