<svg width="30" height="30" viewBox="0 0 30 30" fill="none" xmlns="http://www.w3.org/2000/svg">
<path d="M21.215 7.81332C20.928 7.65364 20.6124 7.55209 20.2861 7.51448C19.9599 7.47688 19.6294 7.50395 19.3136 7.59416C18.9978 7.68436 18.703 7.83593 18.4458 8.04019C18.1886 8.24445 17.9743 8.4974 17.815 8.78457L13.1737 17.1371L10.5175 14.4808C10.2868 14.2421 10.011 14.0516 9.70597 13.9206C9.40096 13.7895 9.07291 13.7206 8.74096 13.7177C8.40901 13.7148 8.07981 13.7781 7.77257 13.9038C7.46533 14.0295 7.1862 14.2151 6.95147 14.4498C6.71674 14.6846 6.53111 14.9637 6.4054 15.2709C6.2797 15.5782 6.21645 15.9074 6.21933 16.2393C6.22222 16.5713 6.29118 16.8993 6.42221 17.2043C6.55323 17.5093 6.74368 17.7852 6.98246 18.0158L11.9825 23.0158C12.455 23.4896 13.0925 23.7496 13.75 23.7496L14.0962 23.7246C14.4794 23.671 14.8449 23.5292 15.164 23.3103C15.4831 23.0914 15.747 22.8015 15.935 22.4633L22.185 11.2133C22.3445 10.9264 22.446 10.6108 22.4836 10.2847C22.5212 9.95852 22.4942 9.62814 22.4042 9.31242C22.3141 8.9967 22.1627 8.70181 21.9587 8.44459C21.7546 8.18738 21.5019 7.97287 21.215 7.81332Z" fill="white" fill-opacity="0.92"/>
</svg>
