<svg width="9" height="12" viewBox="0 0 9 12" fill="none" xmlns="http://www.w3.org/2000/svg">
<path id="Vector" d="M4.08333 5.70835C3.69656 5.70835 3.32563 5.55471 3.05214 5.28122C2.77865 5.00773 2.625 4.63679 2.625 4.25002C2.625 3.86325 2.77865 3.49231 3.05214 3.21882C3.32563 2.94533 3.69656 2.79169 4.08333 2.79169C4.47011 2.79169 4.84104 2.94533 5.11453 3.21882C5.38802 3.49231 5.54167 3.86325 5.54167 4.25002C5.54167 4.44153 5.50395 4.63117 5.43066 4.8081C5.35737 4.98503 5.24995 5.1458 5.11453 5.28122C4.97911 5.41664 4.81835 5.52406 4.64141 5.59735C4.46448 5.67063 4.27484 5.70835 4.08333 5.70835ZM4.08333 0.166687C3.00037 0.166687 1.96175 0.596894 1.19598 1.36267C0.430207 2.12844 0 3.16705 0 4.25002C0 7.31252 4.08333 11.8334 4.08333 11.8334C4.08333 11.8334 8.16667 7.31252 8.16667 4.25002C8.16667 3.16705 7.73646 2.12844 6.97069 1.36267C6.20491 0.596894 5.1663 0.166687 4.08333 0.166687Z" fill="white"/>
</svg>
