<svg width="107" height="109" viewBox="0 0 107 109" fill="none" xmlns="http://www.w3.org/2000/svg">
<path d="M50.941 36.311L43.5337 28.7528C42.8299 28.0347 42.478 27.1864 42.478 26.2077C42.478 25.226 42.8373 24.3685 43.5559 23.6353L50.9589 16.0817C51.6656 15.3606 52.4985 15 53.4577 15C54.4168 15 55.2557 15.3666 55.9743 16.0999L63.3817 23.658C64.0855 24.3761 64.4374 25.2245 64.4374 26.2032C64.4374 27.1848 64.0781 28.0423 63.3594 28.7756L55.9565 36.3292C55.2498 37.0503 54.4168 37.4108 53.4577 37.4108C52.4985 37.4108 51.6597 37.0442 50.941 36.311ZM12.599 88C11.5805 88 10.7253 87.647 10.0334 86.941C9.34446 86.2381 9 85.367 9 84.3277V72.0929C9 70.2749 9.58647 68.713 10.7594 67.4071C11.9353 66.1042 13.3755 65.3922 15.08 65.271H27.9572C29.1569 65.271 30.2957 65.5634 31.3736 66.1482C32.4545 66.7299 33.3453 67.5783 34.0461 68.6933C36.3148 71.9353 39.1403 74.4502 42.5225 76.2378C45.9078 78.0194 49.5528 78.9102 53.4577 78.9102C57.3863 78.9102 61.0551 78.0179 64.4641 76.2333C67.8731 74.4517 70.703 71.9368 72.9539 68.6888C73.6903 67.5768 74.5871 66.7284 75.6442 66.1436C76.7043 65.5649 77.809 65.2756 78.9582 65.2756H91.8309C93.5562 65.3907 95.0157 66.1012 96.2094 67.4071C97.4031 68.71 98 70.2704 98 72.0883V84.3277C98 85.367 97.6555 86.2381 96.9666 86.941C96.2777 87.647 95.4225 88 94.401 88H74.8736C73.8521 88 72.9969 87.647 72.308 86.941C71.6191 86.2381 71.2746 85.367 71.2746 84.3277V76.9605C68.7892 79.0269 66.0231 80.6267 62.9764 81.7599C59.9297 82.89 56.7509 83.4551 53.4399 83.4551C50.2031 83.4551 47.0822 82.8976 44.0771 81.7826C41.0749 80.6706 38.291 79.0829 35.7254 77.0195V84.3277C35.7254 85.367 35.3809 86.2381 34.692 86.941C34.0031 87.647 33.1494 88 32.1308 88H12.599ZM20.4028 57.2311C17.371 57.2311 14.7549 56.11 12.5545 53.8679C10.3571 51.6257 9.25834 48.9564 9.25834 45.8598C9.25834 42.7026 10.3571 40.0211 12.5545 37.8153C14.7519 35.6096 17.368 34.5067 20.4028 34.5067C23.497 34.5067 26.125 35.6096 28.2868 37.8153C30.4486 40.0211 31.5295 42.7026 31.5295 45.8598C31.5295 48.9564 30.4486 51.6257 28.2868 53.8679C26.125 56.11 23.497 57.2311 20.4028 57.2311ZM86.5303 57.2311C83.4985 57.2311 80.8824 56.11 78.682 53.8679C76.4846 51.6257 75.3859 48.9564 75.3859 45.8598C75.3859 42.7026 76.4846 40.0211 78.682 37.8153C80.8794 35.6096 83.4955 34.5067 86.5303 34.5067C89.6246 34.5067 92.2526 35.6096 94.4143 37.8153C96.5761 40.0211 97.657 42.7026 97.657 45.8598C97.657 48.9564 96.5761 51.6257 94.4143 53.8679C92.2526 56.11 89.6246 57.2311 86.5303 57.2311Z" fill="#1D5BDB"/>
</svg>
