<svg width="100" height="82" viewBox="0 0 100 82" fill="none" xmlns="http://www.w3.org/2000/svg">
<g clip-path="url(#clip0_7042_3368)">
<path d="M87.6364 13H12.3636C10.1455 13 8.01814 13.878 6.44965 15.4408C4.88117 17.0036 4 19.1232 4 21.3333V33.8333H12.3636V21.3333H87.6364V79.6667H58.3636V88H87.6364C89.8545 88 91.9819 87.122 93.5503 85.5592C95.1188 83.9964 96 81.8768 96 79.6667V21.3333C96 19.1232 95.1188 17.0036 93.5503 15.4408C91.9819 13.878 89.8545 13 87.6364 13ZM4 75.5V88H16.5455C16.5455 84.6848 15.2237 81.5054 12.871 79.1612C10.5182 76.817 7.32726 75.5 4 75.5ZM4 58.8333V67.1667C6.74582 67.1667 9.46475 67.7055 12.0016 68.7525C14.5384 69.7995 16.8434 71.3341 18.785 73.2686C20.7265 75.2032 22.2667 77.4998 23.3175 80.0274C24.3683 82.555 24.9091 85.2641 24.9091 88H33.2727C33.2727 80.2645 30.1886 72.8459 24.6989 67.3761C19.2092 61.9062 11.7636 58.8333 4 58.8333ZM4 42.1667V50.5C8.94248 50.5 13.8366 51.47 18.4028 53.3545C22.9691 55.2391 27.1181 58.0013 30.6129 61.4835C34.1078 64.9657 36.8801 69.0997 38.7715 73.6494C40.6629 78.1991 41.6364 83.0754 41.6364 88H50C50 62.6667 29.3836 42.1667 4 42.1667ZM45.8182 46.7083V55.0417L60.4545 63L75.0909 55.0417V46.7083L60.4545 54.6667L45.8182 46.7083ZM60.4545 25.5L37.4545 38L60.4545 50.5L83.4545 38L60.4545 25.5Z" fill="#1D5BDB"/>
</g>
<defs>
<clipPath id="clip0_7042_3368">
<rect width="100" height="81.4516" fill="white"/>
</clipPath>
</defs>
</svg>
