<svg width="16" height="16" viewBox="0 0 16 16" fill="none" xmlns="http://www.w3.org/2000/svg">
<path d="M0.926758 12.2401L2.10676 11.0668L3.05342 12.0001L3.76009 11.3001L2.81342 10.3601L3.76009 9.41342L5.40676 11.0668L6.11342 10.3601L4.46676 8.70676L5.40676 7.76676L6.35342 8.70676L7.06009 8.00009L6.11342 7.06009L7.06009 6.11342L8.70676 7.76676L9.41342 7.06009L7.76676 5.40676L8.70676 4.46676L9.64676 5.40676L10.3601 4.70009L9.41342 3.76009L10.3601 2.81342L12.0001 4.46676L12.7134 3.76009L11.0668 2.10676L12.2401 0.926758L15.0734 3.76009L3.76009 15.0734L0.926758 12.2401Z" fill="#0040C3"/>
</svg>
