<svg width="289" height="152" viewBox="0 0 289 152" fill="none" xmlns="http://www.w3.org/2000/svg">
<g clip-path="url(#clip0_0_4)">
<path fill-rule="evenodd" clip-rule="evenodd" d="M0 0H289V152H0V0Z" fill="#00247D"/>
<path d="M221.457 33.9431V38.7467L235.157 33.9431H221.457Z" fill="white"/>
<path d="M224.197 39.7074L221.457 35.8646L235.157 33.9431L224.197 39.7074Z" fill="white"/>
<path d="M221.457 33.9431V38.7467L207.757 33.9431H221.457Z" fill="white"/>
<path d="M218.717 39.7074L221.457 35.8646L207.757 33.9431L218.717 39.7074Z" fill="white"/>
<path d="M224.176 35.9346L218.85 37.2403L229.598 45.2502L224.176 35.9346Z" fill="white"/>
<path d="M218.66 39.3885L221.874 36.4638L229.599 45.265L218.66 39.3885Z" fill="white"/>
<path d="M217.549 36.1132L222.874 37.4189L222.971 26.7975L217.549 36.1132Z" fill="white"/>
<path d="M225.15 35.8497L219.712 36.6572L223.111 26.7975L225.15 35.8497Z" fill="white"/>
<path d="M218.738 35.9346L224.064 37.2403L213.316 45.2502L218.738 35.9346Z" fill="white"/>
<path d="M224.254 39.3885L221.04 36.4638L213.315 45.265L224.254 39.3885Z" fill="white"/>
<path d="M221.457 34.9207V38.0948L230.51 34.9207H221.457Z" fill="#CC142B"/>
<path d="M223.268 38.7297L221.457 36.1903L230.51 34.9207L223.268 38.7297Z" fill="#CC142B"/>
<path d="M221.457 34.9207V38.0948L212.404 34.9207H221.457Z" fill="#CC142B"/>
<path d="M219.646 38.7297L221.457 36.1903L212.404 34.9207L219.646 38.7297Z" fill="#CC142B"/>
<path d="M223.254 36.2368L219.735 37.0996L226.837 42.3925L223.254 36.2368Z" fill="#CC142B"/>
<path d="M219.609 38.5191L221.733 36.5866L226.837 42.4023L219.609 38.5191Z" fill="#CC142B"/>
<path d="M218.875 36.3547L222.394 37.2175L222.458 30.199L218.875 36.3547Z" fill="#CC142B"/>
<path d="M223.898 36.1806L220.304 36.7142L222.55 30.199L223.898 36.1806Z" fill="#CC142B"/>
<path d="M219.66 36.2368L223.179 37.0996L216.077 42.3925L219.66 36.2368Z" fill="#CC142B"/>
<path d="M223.305 38.5191L221.181 36.5866L216.077 42.4023L223.305 38.5191Z" fill="#CC142B"/>
<path d="M257.354 56.8037L260.607 60.3878L266.291 56.1133L257.354 56.8037Z" fill="white"/>
<path d="M262.643 61.1134L258.542 58.2542L265.98 56.1133L262.643 61.1134Z" fill="white"/>
<path d="M254.1 56.1133L257.353 59.6974L245.162 56.8037L254.1 56.1133Z" fill="white"/>
<path d="M255.628 60.7255L254.977 57.6076L245.163 56.7599L255.628 60.7255Z" fill="white"/>
<path d="M258.881 57.8855L255.035 59.4957L264.599 65.727L258.881 57.8855Z" fill="white"/>
<path d="M255.085 61.3923L256.994 58.537L264.6 65.6468L255.085 61.3923Z" fill="white"/>
<path d="M258.32 58.5681L263.442 59.2065L253.877 49.7548L258.32 58.5681Z" fill="white"/>
<path d="M263.688 57.6833L260.492 58.9515L253.877 49.7548L263.688 57.6833Z" fill="white"/>
<path d="M250.109 57.8855L255.231 58.5238L254.553 66.6988L250.109 57.8855Z" fill="white"/>
<path d="M257.185 60.4517L252.164 58.1451L254.67 66.8225L257.185 60.4517Z" fill="white"/>
<path d="M257.352 57.5183L259.365 59.7362L262.882 57.0911L257.352 57.5183Z" fill="#CC142B"/>
<path d="M260.625 60.1851L258.087 58.4158L262.69 57.091L260.625 60.1851Z" fill="#CC142B"/>
<path d="M255.34 57.0909L257.353 59.3088L249.809 57.5182L255.34 57.0909Z" fill="#CC142B"/>
<path d="M256.285 59.945L255.882 58.0156L249.808 57.4911L256.285 59.945Z" fill="#CC142B"/>
<path d="M258.297 58.1877L255.917 59.1841L261.836 63.0401L258.297 58.1877Z" fill="#CC142B"/>
<path d="M255.948 60.3578L257.129 58.5909L261.836 62.9905L255.948 60.3578Z" fill="#CC142B"/>
<path d="M257.951 58.6101L261.12 59.0051L255.202 53.1563L257.951 58.6101Z" fill="#CC142B"/>
<path d="M261.273 58.0625L259.295 58.8473L255.201 53.1563L261.273 58.0625Z" fill="#CC142B"/>
<path d="M252.869 58.1876L256.038 58.5826L255.619 63.6414L252.869 58.1876Z" fill="#CC142B"/>
<path d="M257.247 59.7756L254.14 58.3483L255.691 63.718L257.247 59.7756Z" fill="#CC142B"/>
<path d="M179.646 64.2401L183.302 68.2678L189.69 63.4642L179.646 64.2401Z" fill="white"/>
<path d="M185.591 69.0831L180.982 65.87L189.341 63.4642L185.591 69.0831Z" fill="white"/>
<path d="M175.992 63.4642L179.648 67.4919L165.948 64.2401L175.992 63.4642Z" fill="white"/>
<path d="M177.709 68.6472L176.978 65.1435L165.948 64.1909L177.709 68.6472Z" fill="white"/>
<path d="M181.363 65.4557L177.041 67.2651L187.789 74.2676L181.363 65.4557Z" fill="white"/>
<path d="M177.098 69.3965L179.242 66.1878L187.79 74.1776L177.098 69.3965Z" fill="white"/>
<path d="M180.732 66.2228L186.487 66.9401L175.739 56.3187L180.732 66.2228Z" fill="white"/>
<path d="M186.766 65.2283L183.174 66.6535L175.74 56.3187L186.766 65.2283Z" fill="white"/>
<path d="M171.506 65.4557L177.261 66.173L176.499 75.3597L171.506 65.4557Z" fill="white"/>
<path d="M179.457 68.3395L173.814 65.7474L176.631 75.4988L179.457 68.3395Z" fill="white"/>
<path d="M179.646 64.9543L182.062 67.6158L186.283 64.4416L179.646 64.9543Z" fill="#CC142B"/>
<path d="M183.575 68.1547L180.529 66.0315L186.052 64.4417L183.575 68.1547Z" fill="#CC142B"/>
<path d="M177.229 64.4418L179.644 67.1033L170.592 64.9545L177.229 64.4418Z" fill="#CC142B"/>
<path d="M178.364 67.8667L177.88 65.5514L170.592 64.9219L178.364 67.8667Z" fill="#CC142B"/>
<path d="M180.779 65.7578L177.923 66.9535L185.026 71.5807L180.779 65.7578Z" fill="#CC142B"/>
<path d="M177.962 68.3619L179.38 66.2416L185.028 71.5212L177.962 68.3619Z" fill="#CC142B"/>
<path d="M180.361 66.2645L184.164 66.7385L177.062 59.72L180.361 66.2645Z" fill="#CC142B"/>
<path d="M184.348 65.6075L181.975 66.5492L177.063 59.72L184.348 65.6075Z" fill="#CC142B"/>
<path d="M174.266 65.7578L178.068 66.2318L177.565 72.3023L174.266 65.7578Z" fill="#CC142B"/>
<path d="M179.519 67.6634L175.791 65.9506L177.652 72.3942L179.519 67.6634Z" fill="#CC142B"/>
<path d="M221.457 109.806V115.139L236.666 109.806H221.457Z" fill="white"/>
<path d="M224.499 116.205L221.457 111.939L236.666 109.806L224.499 116.205Z" fill="white"/>
<path d="M221.457 109.806V115.139L206.248 109.806H221.457Z" fill="white"/>
<path d="M218.415 116.205L221.457 111.939L206.248 109.806L218.415 116.205Z" fill="white"/>
<path d="M224.477 112.017L218.565 113.466L230.496 122.359L224.477 112.017Z" fill="white"/>
<path d="M218.353 115.851L221.921 112.605L230.497 122.375L218.353 115.851Z" fill="white"/>
<path d="M217.119 112.215L223.031 113.665L223.139 101.874L217.119 112.215Z" fill="white"/>
<path d="M225.558 111.923L219.52 112.819L223.293 101.874L225.558 111.923Z" fill="white"/>
<path d="M218.438 112.017L224.35 113.466L212.418 122.359L218.438 112.017Z" fill="white"/>
<path d="M224.561 115.851L220.993 112.605L212.418 122.375L224.561 115.851Z" fill="white"/>
<path d="M221.455 110.784V114.487L232.017 110.784H221.455Z" fill="#CC142B"/>
<path d="M223.567 115.228L221.455 112.265L232.017 110.784L223.567 115.228Z" fill="#CC142B"/>
<path d="M221.455 110.784V114.487L210.894 110.784H221.455Z" fill="#CC142B"/>
<path d="M219.343 115.228L221.455 112.265L210.894 110.784L219.343 115.228Z" fill="#CC142B"/>
<path d="M223.553 112.319L219.447 113.326L227.733 119.501L223.553 112.319Z" fill="#CC142B"/>
<path d="M219.3 114.982L221.778 112.727L227.733 119.512L219.3 114.982Z" fill="#CC142B"/>
<path d="M218.443 112.457L222.549 113.464L222.624 105.275L218.443 112.457Z" fill="#CC142B"/>
<path d="M224.304 112.254L220.111 112.876L222.731 105.275L224.304 112.254Z" fill="#CC142B"/>
<path d="M219.359 112.319L223.465 113.326L215.179 119.501L219.359 112.319Z" fill="#CC142B"/>
<path d="M223.612 114.982L221.134 112.727L215.179 119.512L223.612 114.982Z" fill="#CC142B"/>
<path d="M0 0H144.5V76H0V0Z" fill="#012169"/>
<path d="M16.9336 0L72.0242 28.6583L126.889 0H144.5V9.81667L90.3125 38.1583L144.5 66.3417V76H126.438L72.25 47.6583L18.2883 76H0V66.5L53.9617 38.3167L0 10.1333V0H16.9336Z" fill="white"/>
<path d="M95.7312 44.4917L144.5 69.6667V76L83.3133 44.4917H95.7312ZM54.1875 47.6583L55.5422 53.2L12.1922 76H0L54.1875 47.6583ZM144.5 0V0.475L88.2805 30.2417L88.732 23.275L133.211 0H144.5ZM0 0L53.9617 27.8667H40.4148L0 6.65V0Z" fill="#C8102E"/>
<path d="M54.4133 0V76H90.5383V0H54.4133ZM0 25.3333V50.6667H144.5V25.3333H0Z" fill="white"/>
<path d="M0 30.5583V45.7583H144.5V30.5583H0ZM61.6383 0V76H83.3133V0H61.6383Z" fill="#C8102E"/>
</g>
<defs>
<clipPath id="clip0_0_4">
<rect width="289" height="152" fill="white"/>
</clipPath>
</defs>
</svg>
