<svg width="1378" height="303" viewBox="0 0 1378 303" fill="none" xmlns="http://www.w3.org/2000/svg">
<path d="M29 140.586L21.448 133.034C23.2628 130.855 24.1678 128.061 23.9747 125.232C23.7816 122.403 22.5052 119.757 20.4112 117.846C18.3172 115.934 15.5667 114.903 12.732 114.967C9.89717 115.031 7.19635 116.186 5.19133 118.191C3.18632 120.196 2.03149 122.897 1.96708 125.732C1.90267 128.567 2.93363 131.317 4.84551 133.411C6.75738 135.505 9.40296 136.782 12.2319 136.975C15.0608 137.168 17.8553 136.263 20.034 134.448L27.586 142L29 140.586ZM3.99999 126C3.99999 124.22 4.52783 122.48 5.51677 121C6.5057 119.52 7.91131 118.366 9.55584 117.685C11.2004 117.004 13.01 116.826 14.7558 117.173C16.5016 117.52 18.1053 118.377 19.364 119.636C20.6226 120.895 21.4798 122.498 21.8271 124.244C22.1743 125.99 21.9961 127.8 21.3149 129.444C20.6337 131.089 19.4802 132.494 18.0001 133.483C16.5201 134.472 14.78 135 13 135C10.6139 134.997 8.32621 134.048 6.63896 132.361C4.9517 130.674 4.00264 128.386 3.99999 126Z" fill="white" fill-opacity="0.1"/>
<path d="M39 35.586L31.448 28.034C33.2628 25.8553 34.1678 23.0608 33.9747 20.2319C33.7816 17.403 32.5052 14.7574 30.4112 12.8455C28.3172 10.9336 25.5667 9.90267 22.732 9.96708C19.8972 10.0315 17.1963 11.1863 15.1913 13.1913C13.1863 15.1963 12.0315 17.8972 11.9671 20.732C11.9027 23.5667 12.9336 26.3172 14.8455 28.4112C16.7574 30.5052 19.403 31.7816 22.2319 31.9747C25.0608 32.1678 27.8553 31.2628 30.034 29.448L37.586 37L39 35.586ZM14 21C14 19.22 14.5278 17.4799 15.5168 15.9999C16.5057 14.5198 17.9113 13.3663 19.5558 12.6851C21.2004 12.0039 23.01 11.8257 24.7558 12.1729C26.5016 12.5202 28.1053 13.3774 29.364 14.636C30.6226 15.8947 31.4798 17.4984 31.8271 19.2442C32.1743 20.99 31.9961 22.7996 31.3149 24.4441C30.6337 26.0887 29.4802 27.4943 28.0001 28.4832C26.5201 29.4722 24.78 30 23 30C20.6139 29.9973 18.3262 29.0483 16.639 27.361C14.9517 25.6738 14.0026 23.3861 14 21Z" fill="white" fill-opacity="0.1"/>
<path d="M132 184.586L124.448 177.034C126.263 174.855 127.168 172.061 126.975 169.232C126.782 166.403 125.505 163.757 123.411 161.846C121.317 159.934 118.567 158.903 115.732 158.967C112.897 159.031 110.196 160.186 108.191 162.191C106.186 164.196 105.031 166.897 104.967 169.732C104.903 172.567 105.934 175.317 107.846 177.411C109.757 179.505 112.403 180.782 115.232 180.975C118.061 181.168 120.855 180.263 123.034 178.448L130.586 186L132 184.586ZM107 170C107 168.22 107.528 166.48 108.517 165C109.506 163.52 110.911 162.366 112.556 161.685C114.2 161.004 116.01 160.826 117.756 161.173C119.502 161.52 121.105 162.377 122.364 163.636C123.623 164.895 124.48 166.498 124.827 168.244C125.174 169.99 124.996 171.8 124.315 173.444C123.634 175.089 122.48 176.494 121 177.483C119.52 178.472 117.78 179 116 179C113.614 178.997 111.326 178.048 109.639 176.361C107.952 174.674 107.003 172.386 107 170Z" fill="white" fill-opacity="0.1"/>
<path d="M235 160.586L227.448 153.034C229.263 150.855 230.168 148.061 229.975 145.232C229.782 142.403 228.505 139.757 226.411 137.846C224.317 135.934 221.567 134.903 218.732 134.967C215.897 135.031 213.196 136.186 211.191 138.191C209.186 140.196 208.031 142.897 207.967 145.732C207.903 148.567 208.934 151.317 210.846 153.411C212.757 155.505 215.403 156.782 218.232 156.975C221.061 157.168 223.855 156.263 226.034 154.448L233.586 162L235 160.586ZM210 146C210 144.22 210.528 142.48 211.517 141C212.506 139.52 213.911 138.366 215.556 137.685C217.2 137.004 219.01 136.826 220.756 137.173C222.502 137.52 224.105 138.377 225.364 139.636C226.623 140.895 227.48 142.498 227.827 144.244C228.174 145.99 227.996 147.8 227.315 149.444C226.634 151.089 225.48 152.494 224 153.483C222.52 154.472 220.78 155 219 155C216.614 154.997 214.326 154.048 212.639 152.361C210.952 150.674 210.003 148.386 210 146Z" fill="white" fill-opacity="0.1"/>
<path d="M135 61.586L127.448 54.034C129.263 51.8553 130.168 49.0608 129.975 46.2319C129.782 43.403 128.505 40.7574 126.411 38.8455C124.317 36.9336 121.567 35.9027 118.732 35.9671C115.897 36.0315 113.196 37.1863 111.191 39.1913C109.186 41.1963 108.031 43.8972 107.967 46.732C107.903 49.5667 108.934 52.3172 110.846 54.4112C112.757 56.5052 115.403 57.7816 118.232 57.9747C121.061 58.1678 123.855 57.2628 126.034 55.448L133.586 63L135 61.586ZM110 47C110 45.22 110.528 43.4799 111.517 41.9999C112.506 40.5198 113.911 39.3663 115.556 38.6851C117.2 38.0039 119.01 37.8257 120.756 38.1729C122.502 38.5202 124.105 39.3774 125.364 40.636C126.623 41.8947 127.48 43.4984 127.827 45.2442C128.174 46.99 127.996 48.7996 127.315 50.4441C126.634 52.0887 125.48 53.4943 124 54.4832C122.52 55.4722 120.78 56 119 56C116.614 55.9973 114.326 55.0483 112.639 53.361C110.952 51.6738 110.003 49.3861 110 47Z" fill="white" fill-opacity="0.1"/>
<path d="M223 30.586L215.448 23.034C217.262 20.8553 218.167 18.0608 217.974 15.2319C217.781 12.403 216.505 9.75738 214.411 7.84551C212.317 5.93363 209.566 4.90267 206.732 4.96708C203.897 5.03149 201.196 6.18632 199.191 8.19133C197.186 10.1963 196.031 12.8972 195.967 15.732C195.902 18.5667 196.933 21.3172 198.845 23.4112C200.757 25.5052 203.403 26.7816 206.232 26.9747C209.06 27.1678 211.855 26.2628 214.034 24.448L221.586 32L223 30.586ZM198 16C198 14.22 198.527 12.4799 199.516 10.9999C200.505 9.51982 201.911 8.36627 203.555 7.68508C205.2 7.00389 207.01 6.82566 208.755 7.17293C210.501 7.52019 212.105 8.37736 213.364 9.63603C214.622 10.8947 215.479 12.4984 215.827 14.2442C216.174 15.99 215.996 17.7996 215.315 19.4441C214.633 21.0887 213.48 22.4943 212 23.4832C210.52 24.4722 208.78 25 207 25C204.613 24.9973 202.326 24.0483 200.639 22.361C198.951 20.6738 198.002 18.3861 198 16Z" fill="white" fill-opacity="0.1"/>
<path d="M311 279.586L303.448 272.034C305.263 269.855 306.168 267.061 305.975 264.232C305.782 261.403 304.505 258.757 302.411 256.846C300.317 254.934 297.567 253.903 294.732 253.967C291.897 254.031 289.196 255.186 287.191 257.191C285.186 259.196 284.031 261.897 283.967 264.732C283.903 267.567 284.934 270.317 286.846 272.411C288.757 274.505 291.403 275.782 294.232 275.975C297.061 276.168 299.855 275.263 302.034 273.448L309.586 281L311 279.586ZM286 265C286 263.22 286.528 261.48 287.517 260C288.506 258.52 289.911 257.366 291.556 256.685C293.2 256.004 295.01 255.826 296.756 256.173C298.502 256.52 300.105 257.377 301.364 258.636C302.623 259.895 303.48 261.498 303.827 263.244C304.174 264.99 303.996 266.8 303.315 268.444C302.634 270.089 301.48 271.494 300 272.483C298.52 273.472 296.78 274 295 274C292.614 273.997 290.326 273.048 288.639 271.361C286.952 269.674 286.003 267.386 286 265Z" fill="white" fill-opacity="0.1"/>
<path d="M67 248.586L59.448 241.034C61.2628 238.855 62.1678 236.061 61.9747 233.232C61.7816 230.403 60.5052 227.757 58.4112 225.846C56.3172 223.934 53.5667 222.903 50.732 222.967C47.8972 223.031 45.1963 224.186 43.1913 226.191C41.1863 228.196 40.0315 230.897 39.9671 233.732C39.9027 236.567 40.9336 239.317 42.8455 241.411C44.7574 243.505 47.403 244.782 50.2319 244.975C53.0608 245.168 55.8553 244.263 58.034 242.448L65.586 250L67 248.586ZM42 234C42 232.22 42.5278 230.48 43.5168 229C44.5057 227.52 45.9113 226.366 47.5558 225.685C49.2004 225.004 51.01 224.826 52.7558 225.173C54.5016 225.52 56.1053 226.377 57.364 227.636C58.6226 228.895 59.4798 230.498 59.8271 232.244C60.1743 233.99 59.9961 235.8 59.3149 237.444C58.6337 239.089 57.4802 240.494 56.0001 241.483C54.5201 242.472 52.78 243 51 243C48.6139 242.997 46.3262 242.048 44.639 240.361C42.9517 238.674 42.0026 236.386 42 234Z" fill="white" fill-opacity="0.1"/>
<path d="M346 48.586L338.448 41.034C340.263 38.8553 341.168 36.0608 340.975 33.2319C340.782 30.403 339.505 27.7574 337.411 25.8455C335.317 23.9336 332.567 22.9027 329.732 22.9671C326.897 23.0315 324.196 24.1863 322.191 26.1913C320.186 28.1963 319.031 30.8972 318.967 33.732C318.903 36.5667 319.934 39.3172 321.846 41.4112C323.757 43.5052 326.403 44.7816 329.232 44.9747C332.061 45.1678 334.855 44.2628 337.034 42.448L344.586 50L346 48.586ZM321 34C321 32.22 321.528 30.4799 322.517 28.9999C323.506 27.5198 324.911 26.3663 326.556 25.6851C328.2 25.0039 330.01 24.8257 331.756 25.1729C333.502 25.5202 335.105 26.3774 336.364 27.636C337.623 28.8947 338.48 30.4984 338.827 32.2442C339.174 33.99 338.996 35.7996 338.315 37.4441C337.634 39.0887 336.48 40.4943 335 41.4832C333.52 42.4722 331.78 43 330 43C327.614 42.9973 325.326 42.0483 323.639 40.361C321.952 38.6738 321.003 36.3861 321 34Z" fill="white" fill-opacity="0.1"/>
<path d="M194 258.586L186.448 251.034C188.263 248.855 189.168 246.061 188.975 243.232C188.782 240.403 187.505 237.757 185.411 235.846C183.317 233.934 180.567 232.903 177.732 232.967C174.897 233.031 172.196 234.186 170.191 236.191C168.186 238.196 167.031 240.897 166.967 243.732C166.903 246.567 167.934 249.317 169.846 251.411C171.757 253.505 174.403 254.782 177.232 254.975C180.061 255.168 182.855 254.263 185.034 252.448L192.586 260L194 258.586ZM169 244C169 242.22 169.528 240.48 170.517 239C171.506 237.52 172.911 236.366 174.556 235.685C176.2 235.004 178.01 234.826 179.756 235.173C181.502 235.52 183.105 236.377 184.364 237.636C185.623 238.895 186.48 240.498 186.827 242.244C187.174 243.99 186.996 245.8 186.315 247.444C185.634 249.089 184.48 250.494 183 251.483C181.52 252.472 179.78 253 178 253C175.614 252.997 173.326 252.048 171.639 250.361C169.952 248.674 169.003 246.386 169 244Z" fill="white" fill-opacity="0.1"/>
<path d="M948 73.586L940.448 66.034C942.263 63.8553 943.168 61.0608 942.975 58.2319C942.782 55.403 941.505 52.7574 939.411 50.8455C937.317 48.9336 934.567 47.9027 931.732 47.9671C928.897 48.0315 926.196 49.1863 924.191 51.1913C922.186 53.1963 921.031 55.8972 920.967 58.732C920.903 61.5667 921.934 64.3172 923.846 66.4112C925.757 68.5052 928.403 69.7816 931.232 69.9747C934.061 70.1678 936.855 69.2628 939.034 67.448L946.586 75L948 73.586ZM923 59C923 57.22 923.528 55.4799 924.517 53.9999C925.506 52.5198 926.911 51.3663 928.556 50.6851C930.2 50.0039 932.01 49.8257 933.756 50.1729C935.502 50.5202 937.105 51.3774 938.364 52.636C939.623 53.8947 940.48 55.4984 940.827 57.2442C941.174 58.99 940.996 60.7996 940.315 62.4441C939.634 64.0887 938.48 65.4943 937 66.4832C935.52 67.4722 933.78 68 932 68C929.614 67.9973 927.326 67.0483 925.639 65.361C923.952 63.6738 923.003 61.3861 923 59Z" fill="white" fill-opacity="0.1"/>
<path d="M1068 38.586L1060.45 31.034C1062.26 28.8553 1063.17 26.0608 1062.97 23.2319C1062.78 20.403 1061.51 17.7574 1059.41 15.8455C1057.32 13.9336 1054.57 12.9027 1051.73 12.9671C1048.9 13.0315 1046.2 14.1863 1044.19 16.1913C1042.19 18.1963 1041.03 20.8972 1040.97 23.732C1040.9 26.5667 1041.93 29.3172 1043.85 31.4112C1045.76 33.5052 1048.4 34.7816 1051.23 34.9747C1054.06 35.1678 1056.86 34.2628 1059.03 32.448L1066.59 40L1068 38.586ZM1043 24C1043 22.22 1043.53 20.4799 1044.52 18.9999C1045.51 17.5198 1046.91 16.3663 1048.56 15.6851C1050.2 15.0039 1052.01 14.8257 1053.76 15.1729C1055.5 15.5202 1057.11 16.3774 1058.36 17.636C1059.62 18.8947 1060.48 20.4984 1060.83 22.2442C1061.17 23.99 1061 25.7996 1060.31 27.4441C1059.63 29.0887 1058.48 30.4943 1057 31.4832C1055.52 32.4722 1053.78 33 1052 33C1049.61 32.9973 1047.33 32.0483 1045.64 30.361C1043.95 28.6738 1043 26.3861 1043 24Z" fill="white" fill-opacity="0.1"/>
<path d="M1331 107.586L1323.45 100.034C1325.26 97.8553 1326.17 95.0608 1325.97 92.2319C1325.78 89.403 1324.51 86.7574 1322.41 84.8455C1320.32 82.9336 1317.57 81.9027 1314.73 81.9671C1311.9 82.0315 1309.2 83.1863 1307.19 85.1913C1305.19 87.1963 1304.03 89.8972 1303.97 92.732C1303.9 95.5667 1304.93 98.3172 1306.85 100.411C1308.76 102.505 1311.4 103.782 1314.23 103.975C1317.06 104.168 1319.86 103.263 1322.03 101.448L1329.59 109L1331 107.586ZM1306 93C1306 91.22 1306.53 89.4799 1307.52 87.9999C1308.51 86.5198 1309.91 85.3663 1311.56 84.6851C1313.2 84.0039 1315.01 83.8257 1316.76 84.1729C1318.5 84.5202 1320.11 85.3774 1321.36 86.636C1322.62 87.8947 1323.48 89.4984 1323.83 91.2442C1324.17 92.99 1324 94.7996 1323.31 96.4441C1322.63 98.0887 1321.48 99.4943 1320 100.483C1318.52 101.472 1316.78 102 1315 102C1312.61 101.997 1310.33 101.048 1308.64 99.361C1306.95 97.6738 1306 95.3861 1306 93Z" fill="white" fill-opacity="0.1"/>
<path d="M1264 170.586L1256.45 163.034C1258.26 160.855 1259.17 158.061 1258.97 155.232C1258.78 152.403 1257.51 149.757 1255.41 147.846C1253.32 145.934 1250.57 144.903 1247.73 144.967C1244.9 145.031 1242.2 146.186 1240.19 148.191C1238.19 150.196 1237.03 152.897 1236.97 155.732C1236.9 158.567 1237.93 161.317 1239.85 163.411C1241.76 165.505 1244.4 166.782 1247.23 166.975C1250.06 167.168 1252.86 166.263 1255.03 164.448L1262.59 172L1264 170.586ZM1239 156C1239 154.22 1239.53 152.48 1240.52 151C1241.51 149.52 1242.91 148.366 1244.56 147.685C1246.2 147.004 1248.01 146.826 1249.76 147.173C1251.5 147.52 1253.11 148.377 1254.36 149.636C1255.62 150.895 1256.48 152.498 1256.83 154.244C1257.17 155.99 1257 157.8 1256.31 159.444C1255.63 161.089 1254.48 162.494 1253 163.483C1251.52 164.472 1249.78 165 1248 165C1245.61 164.997 1243.33 164.048 1241.64 162.361C1239.95 160.674 1239 158.386 1239 156Z" fill="white" fill-opacity="0.1"/>
<path d="M1164 64.586L1156.45 57.034C1158.26 54.8553 1159.17 52.0608 1158.97 49.2319C1158.78 46.403 1157.51 43.7574 1155.41 41.8455C1153.32 39.9336 1150.57 38.9027 1147.73 38.9671C1144.9 39.0315 1142.2 40.1863 1140.19 42.1913C1138.19 44.1963 1137.03 46.8972 1136.97 49.732C1136.9 52.5667 1137.93 55.3172 1139.85 57.4112C1141.76 59.5052 1144.4 60.7816 1147.23 60.9747C1150.06 61.1678 1152.86 60.2628 1155.03 58.448L1162.59 66L1164 64.586ZM1139 50C1139 48.22 1139.53 46.4799 1140.52 44.9999C1141.51 43.5198 1142.91 42.3663 1144.56 41.6851C1146.2 41.0039 1148.01 40.8257 1149.76 41.1729C1151.5 41.5202 1153.11 42.3774 1154.36 43.636C1155.62 44.8947 1156.48 46.4984 1156.83 48.2442C1157.17 49.99 1157 51.7996 1156.31 53.4441C1155.63 55.0887 1154.48 56.4943 1153 57.4832C1151.52 58.4722 1149.78 59 1148 59C1145.61 58.9973 1143.33 58.0483 1141.64 56.361C1139.95 54.6738 1139 52.3861 1139 50Z" fill="white" fill-opacity="0.1"/>
<path d="M1252 33.586L1244.45 26.034C1246.26 23.8553 1247.17 21.0608 1246.97 18.2319C1246.78 15.403 1245.5 12.7574 1243.41 10.8455C1241.32 8.93363 1238.57 7.90267 1235.73 7.96708C1232.9 8.03149 1230.2 9.18632 1228.19 11.1913C1226.19 13.1963 1225.03 15.8972 1224.97 18.732C1224.9 21.5667 1225.93 24.3172 1227.85 26.4112C1229.76 28.5052 1232.4 29.7816 1235.23 29.9747C1238.06 30.1678 1240.85 29.2628 1243.03 27.448L1250.59 35L1252 33.586ZM1227 19C1227 17.22 1227.53 15.4799 1228.52 13.9999C1229.51 12.5198 1230.91 11.3663 1232.56 10.6851C1234.2 10.0039 1236.01 9.82566 1237.76 10.1729C1239.5 10.5202 1241.1 11.3774 1242.36 12.636C1243.62 13.8947 1244.48 15.4984 1244.83 17.2442C1245.17 18.99 1245 20.7996 1244.31 22.4441C1243.63 24.0887 1242.48 25.4943 1241 26.4832C1239.52 27.4722 1237.78 28 1236 28C1233.61 27.9973 1231.33 27.0483 1229.64 25.361C1227.95 23.6738 1227 21.3861 1227 19Z" fill="white" fill-opacity="0.1"/>
<path d="M1330 252.586L1322.45 245.034C1324.26 242.855 1325.17 240.061 1324.97 237.232C1324.78 234.403 1323.51 231.757 1321.41 229.846C1319.32 227.934 1316.57 226.903 1313.73 226.967C1310.9 227.031 1308.2 228.186 1306.19 230.191C1304.19 232.196 1303.03 234.897 1302.97 237.732C1302.9 240.567 1303.93 243.317 1305.85 245.411C1307.76 247.505 1310.4 248.782 1313.23 248.975C1316.06 249.168 1318.86 248.263 1321.03 246.448L1328.59 254L1330 252.586ZM1305 238C1305 236.22 1305.53 234.48 1306.52 233C1307.51 231.52 1308.91 230.366 1310.56 229.685C1312.2 229.004 1314.01 228.826 1315.76 229.173C1317.5 229.52 1319.11 230.377 1320.36 231.636C1321.62 232.895 1322.48 234.498 1322.83 236.244C1323.17 237.99 1323 239.8 1322.31 241.444C1321.63 243.089 1320.48 244.494 1319 245.483C1317.52 246.472 1315.78 247 1314 247C1311.61 246.997 1309.33 246.048 1307.64 244.361C1305.95 242.674 1305 240.386 1305 238Z" fill="white" fill-opacity="0.1"/>
<path d="M1096 251.586L1088.45 244.034C1090.26 241.855 1091.17 239.061 1090.97 236.232C1090.78 233.403 1089.51 230.757 1087.41 228.846C1085.32 226.934 1082.57 225.903 1079.73 225.967C1076.9 226.031 1074.2 227.186 1072.19 229.191C1070.19 231.196 1069.03 233.897 1068.97 236.732C1068.9 239.567 1069.93 242.317 1071.85 244.411C1073.76 246.505 1076.4 247.782 1079.23 247.975C1082.06 248.168 1084.86 247.263 1087.03 245.448L1094.59 253L1096 251.586ZM1071 237C1071 235.22 1071.53 233.48 1072.52 232C1073.51 230.52 1074.91 229.366 1076.56 228.685C1078.2 228.004 1080.01 227.826 1081.76 228.173C1083.5 228.52 1085.11 229.377 1086.36 230.636C1087.62 231.895 1088.48 233.498 1088.83 235.244C1089.17 236.99 1089 238.8 1088.31 240.444C1087.63 242.089 1086.48 243.494 1085 244.483C1083.52 245.472 1081.78 246 1080 246C1077.61 245.997 1075.33 245.048 1073.64 243.361C1071.95 241.674 1071 239.386 1071 237Z" fill="white" fill-opacity="0.1"/>
<path d="M1375 51.586L1367.45 44.034C1369.26 41.8553 1370.17 39.0608 1369.97 36.2319C1369.78 33.403 1368.51 30.7574 1366.41 28.8455C1364.32 26.9336 1361.57 25.9027 1358.73 25.9671C1355.9 26.0315 1353.2 27.1863 1351.19 29.1913C1349.19 31.1963 1348.03 33.8972 1347.97 36.732C1347.9 39.5667 1348.93 42.3172 1350.85 44.4112C1352.76 46.5052 1355.4 47.7816 1358.23 47.9747C1361.06 48.1678 1363.86 47.2628 1366.03 45.448L1373.59 53L1375 51.586ZM1350 37C1350 35.22 1350.53 33.4799 1351.52 31.9999C1352.51 30.5198 1353.91 29.3663 1355.56 28.6851C1357.2 28.0039 1359.01 27.8257 1360.76 28.1729C1362.5 28.5202 1364.11 29.3774 1365.36 30.636C1366.62 31.8947 1367.48 33.4984 1367.83 35.2442C1368.17 36.99 1368 38.7996 1367.31 40.4441C1366.63 42.0887 1365.48 43.4943 1364 44.4832C1362.52 45.4722 1360.78 46 1359 46C1356.61 45.9973 1354.33 45.0483 1352.64 43.361C1350.95 41.6738 1350 39.3861 1350 37Z" fill="white" fill-opacity="0.1"/>
<path d="M1223 261.586L1215.45 254.034C1217.26 251.855 1218.17 249.061 1217.97 246.232C1217.78 243.403 1216.51 240.757 1214.41 238.846C1212.32 236.934 1209.57 235.903 1206.73 235.967C1203.9 236.031 1201.2 237.186 1199.19 239.191C1197.19 241.196 1196.03 243.897 1195.97 246.732C1195.9 249.567 1196.93 252.317 1198.85 254.411C1200.76 256.505 1203.4 257.782 1206.23 257.975C1209.06 258.168 1211.86 257.263 1214.03 255.448L1221.59 263L1223 261.586ZM1198 247C1198 245.22 1198.53 243.48 1199.52 242C1200.51 240.52 1201.91 239.366 1203.56 238.685C1205.2 238.004 1207.01 237.826 1208.76 238.173C1210.5 238.52 1212.11 239.377 1213.36 240.636C1214.62 241.895 1215.48 243.498 1215.83 245.244C1216.17 246.99 1216 248.8 1215.31 250.444C1214.63 252.089 1213.48 253.494 1212 254.483C1210.52 255.472 1208.78 256 1207 256C1204.61 255.997 1202.33 255.048 1200.64 253.361C1198.95 251.674 1198 249.386 1198 247Z" fill="white" fill-opacity="0.1"/>
</svg>
