<svg width="16" height="16" viewBox="0 0 16 16" fill="none" xmlns="http://www.w3.org/2000/svg">
<path id="Vector" d="M8.54353 1.82722L10.2599 5.18242C10.2989 5.26758 10.3603 5.34135 10.438 5.39637C10.5156 5.45139 10.6068 5.48574 10.7025 5.49599L14.4914 6.03952C14.6011 6.05317 14.7045 6.09676 14.7896 6.16521C14.8747 6.23366 14.9379 6.32413 14.9719 6.42606C15.0058 6.52799 15.0091 6.63717 14.9814 6.74085C14.9537 6.84453 14.896 6.93843 14.8152 7.01158L12.0842 9.63512C12.0145 9.69817 11.9622 9.7771 11.932 9.86473C11.9018 9.95235 11.8948 10.0459 11.9115 10.1368L12.5699 13.8265C12.589 13.9325 12.577 14.0416 12.5352 14.1413C12.4934 14.241 12.4235 14.3274 12.3335 14.3905C12.2435 14.4537 12.1371 14.4912 12.0262 14.4986C11.9153 14.5061 11.8045 14.4832 11.7064 14.4327L8.29526 12.6872C8.20791 12.6457 8.1119 12.6241 8.0146 12.6241C7.91729 12.6241 7.82128 12.6457 7.73393 12.6872L4.32282 14.4327C4.22468 14.4832 4.11387 14.5061 4.003 14.4986C3.89213 14.4912 3.78564 14.4537 3.69566 14.3905C3.60568 14.3274 3.53582 14.241 3.49403 14.1413C3.45223 14.0416 3.44018 13.9325 3.45924 13.8265L4.11772 10.095C4.13441 10.0041 4.12735 9.91054 4.09718 9.82292C4.06702 9.7353 4.01471 9.65637 3.945 9.59331L1.18157 7.01158C1.09981 6.93643 1.04232 6.83993 1.01605 6.73377C0.989778 6.62762 0.995861 6.51637 1.03356 6.4135C1.07126 6.31063 1.13896 6.22054 1.22845 6.15417C1.31795 6.08779 1.4254 6.04796 1.53779 6.03952L5.32672 5.49599C5.42236 5.48574 5.51355 5.45139 5.59121 5.39637C5.66886 5.34135 5.73027 5.26758 5.7693 5.18242L7.48566 1.82722C7.5324 1.7295 7.60703 1.64677 7.70076 1.58879C7.79448 1.53081 7.90338 1.5 8.0146 1.5C8.12581 1.5 8.23471 1.53081 8.32844 1.58879C8.42216 1.64677 8.49679 1.7295 8.54353 1.82722Z" fill="#F7BF2E" stroke="#F7BF2E" stroke-width="1.08333" stroke-linecap="round" stroke-linejoin="round"/>
</svg>
