<svg width="407" height="818" viewBox="0 0 407 818" fill="none" xmlns="http://www.w3.org/2000/svg">
<g filter="url(#filter0_i_1518_7788)">
<path d="M-51.4621 23.0749C-45.3428 22.1087 -41.1563 17.2724 -35.7994 14.4664C-15.2959 3.72651 8.78108 -2.44757 31.0359 -8.01128C98.3272 -24.8341 167.592 -32.6039 236.803 -35.0324C243.519 -35.268 314.826 -41.6472 308.66 -29.7716C302.596 -18.0934 289.862 -9.05172 279.726 -1.31579C213 23.0749 170.709 35.0161 142 48.5005C56.8025 88.5175 29.2062 127.358 -55.5272 168.343C-88.0393 184.069 -125.379 199.404 -153.807 222.146C-159.255 226.505 -149.984 227.192 -146.873 227.407C-131.761 228.449 -116.59 226.804 -101.798 223.82C-56.9323 214.768 -12.486 203.47 32.112 193.212C156.359 164.635 277.576 123.787 404.907 109.877C450.269 104.922 498.424 101.87 544.197 104.856C564.827 106.201 516.42 166.005 513.59 168.941C459.442 225.094 382.555 209.316 308.66 227.407C202.854 253.309 84.2314 259.726 -22.0497 282.5C-47.673 287.991 -90.5243 334.194 -105.743 360.958C-111.586 371.233 -114.896 375.876 -99.287 376.023C59 425 234.5 376 448 376C453.988 375.966 523 383 557.469 343.98C560.953 375.337 507.213 442.791 487 450C369.5 467 214.785 430.942 107 450C39.7639 461.889 4.2112 478.036 -55.5272 514C-66.7554 520.76 -79.2181 544.585 -77.168 560.986C-75.8104 571.847 -22.8953 533.577 -11 560.986C0.895294 588.395 119.586 564.08 187.543 557.04C255.5 550 435 593.5 501 573M-34.7233 729.091C136.481 757.157 314.762 795.105 487 817.5" stroke="#0040C3" stroke-linecap="round" stroke-linejoin="round" stroke-dasharray="4 30"/>
</g>
<defs>
<filter id="filter0_i_1518_7788" x="-154.873" y="-37.4365" width="712.983" height="859.438" filterUnits="userSpaceOnUse" color-interpolation-filters="sRGB">
<feFlood flood-opacity="0" result="BackgroundImageFix"/>
<feBlend mode="normal" in="SourceGraphic" in2="BackgroundImageFix" result="shape"/>
<feColorMatrix in="SourceAlpha" type="matrix" values="0 0 0 0 0 0 0 0 0 0 0 0 0 0 0 0 0 0 127 0" result="hardAlpha"/>
<feOffset dy="4"/>
<feGaussianBlur stdDeviation="10"/>
<feComposite in2="hardAlpha" operator="arithmetic" k2="-1" k3="1"/>
<feColorMatrix type="matrix" values="0 0 0 0 0.850833 0 0 0 0 0.850833 0 0 0 0 0.850833 0 0 0 0.25 0"/>
<feBlend mode="normal" in2="shape" result="effect1_innerShadow_1518_7788"/>
</filter>
</defs>
</svg>
