<svg width="130" height="105" viewBox="0 0 130 105" fill="none" xmlns="http://www.w3.org/2000/svg">
<path opacity="0.2" d="M120.966 25.7002V88.6002C120.966 89.5815 120.541 90.5226 119.784 91.2165C119.028 91.9104 118.002 92.3002 116.932 92.3002H36.2656V70.1002H64.499V47.9002H92.7323V25.7002H120.966Z" fill="#1D5BDB"/>
<path d="M125 25.7C125 26.6813 124.575 27.6224 123.819 28.3163C123.062 29.0102 122.036 29.4 120.967 29.4H96.7667V47.9C96.7667 48.8813 96.3417 49.8224 95.5853 50.5163C94.8289 51.2102 93.803 51.6 92.7333 51.6H68.5333V70.1C68.5333 71.0813 68.1084 72.0224 67.352 72.7163C66.5956 73.4102 65.5697 73.8 64.5 73.8H40.3V92.3C40.3 93.2813 39.8751 94.2224 39.1187 94.9163C38.3623 95.6102 37.3364 96 36.2667 96H8.03333C6.96363 96 5.93773 95.6102 5.18134 94.9163C4.42494 94.2224 4 93.2813 4 92.3C4 91.3187 4.42494 90.3776 5.18134 89.6837C5.93773 88.9898 6.96363 88.6 8.03333 88.6H32.2333V70.1C32.2333 69.1187 32.6583 68.1776 33.4147 67.4837C34.1711 66.7898 35.197 66.4 36.2667 66.4H60.4667V47.9C60.4667 46.9187 60.8916 45.9776 61.648 45.2837C62.4044 44.5898 63.4303 44.2 64.5 44.2H88.7V25.7C88.7 24.7187 89.1249 23.7776 89.8813 23.0837C90.6377 22.3898 91.6636 22 92.7333 22H120.967C122.036 22 123.062 22.3898 123.819 23.0837C124.575 23.7776 125 24.7187 125 25.7Z" fill="#1D5BDB"/>
</svg>
