<svg width="15" height="15" viewBox="0 0 15 15" fill="none" xmlns="http://www.w3.org/2000/svg">
<path d="M12.7805 12.2789L9.2063 6.66563L12.7055 2.8166C12.8283 2.67819 12.8916 2.49697 12.8817 2.31222C12.8717 2.12746 12.7894 1.95407 12.6524 1.82964C12.5155 1.7052 12.335 1.63975 12.1502 1.64748C11.9653 1.6552 11.791 1.73548 11.6649 1.8709L8.42642 5.43574L6.21802 1.96641C6.15456 1.86662 6.06695 1.78445 5.9633 1.72751C5.85965 1.67056 5.74331 1.64068 5.62505 1.64062H2.81255C2.6866 1.64068 2.56297 1.67457 2.4546 1.73875C2.34622 1.80293 2.25708 1.89505 2.19648 2.00547C2.13588 2.11588 2.10606 2.24055 2.11012 2.36644C2.11418 2.49233 2.15199 2.61481 2.21959 2.72109L5.7938 8.33438L2.29224 12.1834C2.22884 12.2515 2.17959 12.3315 2.14734 12.4188C2.11509 12.5061 2.10049 12.5989 2.10437 12.6918C2.10826 12.7848 2.13055 12.8761 2.16997 12.9604C2.20939 13.0446 2.26514 13.1203 2.334 13.1828C2.40286 13.2454 2.48345 13.2937 2.57111 13.3249C2.65877 13.3561 2.75175 13.3696 2.84466 13.3646C2.93757 13.3596 3.02856 13.3362 3.11237 13.2958C3.19617 13.2554 3.27112 13.1987 3.33287 13.1291L6.57369 9.56426L8.78209 13.0336C8.84555 13.1334 8.93316 13.2155 9.03681 13.2725C9.14046 13.3294 9.25679 13.3593 9.37505 13.3594H12.1876C12.3135 13.3593 12.4371 13.3254 12.5455 13.2612C12.6539 13.1971 12.743 13.105 12.8036 12.9945C12.8642 12.8841 12.8941 12.7594 12.89 12.6336C12.8859 12.5077 12.8481 12.3852 12.7805 12.2789ZM9.76119 11.9531L4.09341 3.04688H5.23892L10.9067 11.9531H9.76119Z" fill="#0040C3"/>
</svg>
