<svg width="42" height="42" viewBox="0 0 42 42" fill="none" xmlns="http://www.w3.org/2000/svg">
<path d="M37.4886 29.5453L38.4143 30.4763L37.4868 29.5453H37.4886ZM15.4281 25.7723L16.3521 24.8413L15.4263 25.7723H15.4281ZM8.20756 7.2363L7.28356 6.30705L8.20931 7.23805L8.20756 7.2363ZM29.0991 24.3093L29.8988 23.5166L28.0456 21.6546L27.2511 22.4473L29.0991 24.3093ZM32.5746 23.1841L35.9188 25.0023L37.1701 22.6958L33.8276 20.8793L32.5746 23.1841ZM36.5611 28.6143L34.0761 31.0871L35.9258 32.9473L38.4108 30.4763L36.5611 28.6143ZM32.5606 31.8816C30.0231 32.1196 23.4606 31.9078 16.3521 24.8413L14.5006 26.7016C22.2566 34.4138 29.6398 34.7918 32.8056 34.4961L32.5588 31.8816H32.5606ZM16.3521 24.8413C9.57781 18.1038 8.45431 12.4391 8.31431 9.9803L5.69281 10.1291C5.86781 13.2231 7.25906 19.5021 14.5006 26.7016L16.3521 24.8413ZM18.7583 14.0263L19.2606 13.5258L17.4126 11.6656L16.9103 12.1643L18.7601 14.0246L18.7583 14.0263ZM19.6596 7.16455L17.4546 4.21755L15.3528 5.79255L17.5578 8.7378L19.6596 7.16455ZM10.0328 3.5753L7.28531 6.3053L9.13681 8.1673L11.8826 5.4373L10.0328 3.5753ZM17.8343 13.0953C16.9068 12.1643 16.9068 12.1643 16.9068 12.1678H16.9033L16.8981 12.1748C16.8154 12.2591 16.741 12.3511 16.6758 12.4496C16.5813 12.5896 16.4781 12.7733 16.3906 13.0061C16.1775 13.6069 16.1244 14.2528 16.2366 14.8803C16.4711 16.3941 17.5141 18.3943 20.1846 21.0508L22.0361 19.1888C19.5353 16.7038 18.9403 15.1918 18.8301 14.4778C18.7776 14.1383 18.8318 13.9703 18.8476 13.9318C18.8563 13.9073 18.8598 13.9056 18.8476 13.9213C18.8321 13.9456 18.8146 13.9684 18.7951 13.9896L18.7776 14.0071C18.7719 14.0125 18.7661 14.0177 18.7601 14.0228L17.8326 13.0953H17.8343ZM20.1846 21.0508C22.8568 23.7073 24.8676 24.7433 26.3831 24.9743C27.1583 25.0933 27.7831 24.9988 28.2573 24.8221C28.5225 24.7239 28.7706 24.5845 28.9923 24.4091C29.0224 24.3839 29.0516 24.3576 29.0798 24.3303L29.0921 24.3198L29.0973 24.3146L29.0991 24.3111C29.0991 24.3111 29.1008 24.3093 28.1751 23.3783C27.2476 22.4473 27.2528 22.4456 27.2528 22.4456L27.2563 22.4421L27.2598 22.4386L27.2703 22.4298L27.2878 22.4123C27.3088 22.3934 27.3311 22.3759 27.3543 22.3598C27.3718 22.3476 27.3666 22.3528 27.3421 22.3633C27.2983 22.3791 27.1268 22.4333 26.7821 22.3808C26.0576 22.2688 24.5351 21.6738 22.0361 19.1888L20.1846 21.0508ZM17.4546 4.2158C15.6696 1.8358 12.1626 1.4578 10.0328 3.5753L11.8826 5.4373C12.8136 4.51155 14.4656 4.6078 15.3528 5.79255L17.4528 4.2158H17.4546ZM8.31606 9.98205C8.28106 9.37655 8.55931 8.74305 9.13681 8.16905L7.28356 6.30705C6.34381 7.24155 5.60356 8.56455 5.69281 10.1291L8.31606 9.98205ZM34.0761 31.0871C33.5966 31.5666 33.0786 31.8361 32.5623 31.8833L32.8056 34.4961C34.0918 34.3753 35.1436 33.7278 35.9276 32.9491L34.0761 31.0871ZM19.2606 13.5258C20.9843 11.8126 21.1121 9.1053 19.6613 7.1663L17.5596 8.73955C18.2648 9.6828 18.1598 10.9201 17.4108 11.6673L19.2606 13.5258ZM35.9206 25.0041C37.3503 25.7811 37.5726 27.6116 36.5628 28.6161L38.4143 30.4763C40.7593 28.1436 40.0366 24.2533 37.1718 22.6976L35.9206 25.0041ZM29.8988 23.5183C30.5708 22.8498 31.6523 22.6853 32.5763 23.1858L33.8293 20.8811C31.9323 19.8486 29.5803 20.1338 28.0473 21.6563L29.8988 23.5183Z" fill="#0040C3"/>
</svg>
