<svg width="1440" height="838" viewBox="0 0 1440 838" fill="none" xmlns="http://www.w3.org/2000/svg">
<g clip-path="url(#clip0_7082_63914)">
<rect width="1440" height="838" fill="white"/>
<g filter="url(#filter0_d_7082_63914)">
<ellipse cx="226.5" cy="482" rx="553.5" ry="550" fill="#C7DDFD"/>
<path d="M779.75 482C779.75 785.617 532.053 1031.75 226.5 1031.75C-79.053 1031.75 -326.75 785.617 -326.75 482C-326.75 178.383 -79.053 -67.75 226.5 -67.75C532.053 -67.75 779.75 178.383 779.75 482Z" stroke="#0040C3" stroke-width="0.5"/>
</g>
<path d="M749.75 436C749.75 715.318 522.871 941.75 243 941.75C-36.8708 941.75 -263.75 715.318 -263.75 436C-263.75 156.682 -36.8708 -69.75 243 -69.75C522.871 -69.75 749.75 156.682 749.75 436Z" fill="#E6F0FF" stroke="#0040C3" stroke-width="0.5"/>
</g>
<defs>
<filter id="filter0_d_7082_63914" x="-377" y="-110" width="1207" height="1200" filterUnits="userSpaceOnUse" color-interpolation-filters="sRGB">
<feFlood flood-opacity="0" result="BackgroundImageFix"/>
<feColorMatrix in="SourceAlpha" type="matrix" values="0 0 0 0 0 0 0 0 0 0 0 0 0 0 0 0 0 0 127 0" result="hardAlpha"/>
<feMorphology radius="30" operator="dilate" in="SourceAlpha" result="effect1_dropShadow_7082_63914"/>
<feOffset dy="8"/>
<feGaussianBlur stdDeviation="10"/>
<feComposite in2="hardAlpha" operator="out"/>
<feColorMatrix type="matrix" values="0 0 0 0 0.975833 0 0 0 0 0.983765 0 0 0 0 1 0 0 0 1 0"/>
<feBlend mode="normal" in2="BackgroundImageFix" result="effect1_dropShadow_7082_63914"/>
<feBlend mode="normal" in="SourceGraphic" in2="effect1_dropShadow_7082_63914" result="shape"/>
</filter>
<clipPath id="clip0_7082_63914">
<rect width="1440" height="838" fill="white"/>
</clipPath>
</defs>
</svg>
