<svg width="47" height="47" viewBox="0 0 47 47" fill="none" xmlns="http://www.w3.org/2000/svg">
<g clip-path="url(#clip0_6655_58257)">
<path d="M41.9855 20.9933L11.6705 5.83584C11.2615 5.64637 10.8116 5.56219 10.3618 5.59096C9.91201 5.61974 9.47655 5.76057 9.09506 6.00062C8.71358 6.24067 8.39819 6.57232 8.17761 6.96538C7.95703 7.35845 7.83827 7.80044 7.83212 8.25112V38.5531C7.8283 39.0157 7.94389 39.4715 8.16771 39.8764C8.39154 40.2813 8.71603 40.6216 9.10982 40.8644C9.50361 41.1073 9.95338 41.2444 10.4157 41.2626C10.878 41.2808 11.3371 41.1795 11.7488 40.9683L41.9855 25.8108C42.4334 25.586 42.8099 25.2411 43.0731 24.8145C43.3362 24.388 43.4755 23.8967 43.4755 23.3956C43.4755 22.8944 43.3362 22.4031 43.0731 21.9766C42.8099 21.5501 42.4334 21.2051 41.9855 20.9803V20.9933Z" fill="white"/>
</g>
<defs>
<clipPath id="clip0_6655_58257">
<rect width="47" height="47" fill="white"/>
</clipPath>
</defs>
</svg>
