<svg width="235" height="28" viewBox="0 0 235 28" fill="none" xmlns="http://www.w3.org/2000/svg">
<path d="M232.702 16.2951L230.912 20.8632H230.859L228.991 16.2951H227.303L230.101 22.6806L228.502 26.232H230.143L234.456 16.2951H232.702ZM220.055 12.5047H218.493V23.0394H220.055V12.5047ZM214.174 12.5047H210.416V23.0394H211.991V19.0515H214.18C216.02 19.1148 217.563 17.6705 217.626 15.8257C217.627 15.8108 217.627 15.796 217.628 15.7811C217.589 13.9323 216.063 12.4651 214.218 12.5036C214.203 12.5038 214.189 12.5043 214.174 12.5047ZM214.216 17.581H211.991V13.9936H214.221C215.21 13.9936 216.011 14.7965 216.011 15.7871C216.011 16.7778 215.21 17.581 214.221 17.581H214.216ZM223.909 16.0681C222.739 16.0009 221.641 16.6348 221.111 17.6824L222.507 18.2803C222.79 17.7623 223.352 17.4616 223.939 17.5149C224.765 17.4321 225.502 18.036 225.585 18.8639C225.585 18.8668 225.585 18.8696 225.585 18.872V18.9797C225.085 18.7087 224.526 18.5668 223.957 18.5671C222.46 18.5671 220.933 19.3924 220.933 20.9586C220.933 22.3699 222.155 23.2785 223.539 23.2785C224.342 23.3295 225.107 22.9345 225.532 22.2501H225.591V23.0633H227.118V19.0096C227.118 17.1383 225.723 16.0979 223.921 16.0979L223.909 16.0681ZM223.724 21.8437C223.211 21.8437 222.495 21.5804 222.495 20.9468C222.495 20.1339 223.384 19.8229 224.16 19.8229C224.66 19.8095 225.154 19.9312 225.591 20.1755C225.472 21.1209 224.675 21.8334 223.724 21.8437ZM167.162 23.2665C164.073 23.2768 161.55 20.796 161.501 17.7004C161.55 14.6048 164.073 12.1239 167.162 12.1341C168.591 12.1101 169.969 12.6641 170.985 13.6706L169.906 14.7407C169.173 14.0217 168.187 13.6218 167.162 13.6287C164.931 13.6287 163.123 15.4408 163.123 17.6764C163.123 19.9117 164.931 21.724 167.162 21.724C168.216 21.7674 169.239 21.3613 169.977 20.6059C170.463 20.0813 170.755 19.4066 170.806 18.6927H167.162V17.216H172.292C172.348 17.5297 172.374 17.8479 172.369 18.1667C172.421 19.4902 171.947 20.7802 171.051 21.7538C170.028 22.7896 168.614 23.3396 167.162 23.2665ZM180.303 19.6794C180.383 21.6389 178.863 23.293 176.908 23.3734C174.953 23.4538 173.303 21.9305 173.222 19.9707C173.218 19.8736 173.218 19.7765 173.222 19.6794C173.142 17.7196 174.662 16.0655 176.617 15.9851C178.573 15.9046 180.223 17.4281 180.303 19.3878C180.307 19.4849 180.307 19.5823 180.303 19.6794ZM178.752 19.6794C178.857 18.5781 178.05 17.6005 176.952 17.4961C175.853 17.3914 174.878 18.1995 174.773 19.3006C174.761 19.4267 174.761 19.5535 174.773 19.6794C174.669 20.7807 175.475 21.758 176.574 21.8624C177.673 21.9671 178.648 21.159 178.752 20.058C178.764 19.9321 178.764 19.805 178.752 19.6794ZM188.237 19.6794C188.237 21.6373 186.653 23.2247 184.699 23.2247C182.746 23.2247 181.162 21.6374 181.162 19.6794C181.162 17.7212 182.746 16.1338 184.699 16.1338C186.653 16.1338 188.237 17.7212 188.237 19.6794ZM186.692 19.6794C186.796 18.5781 185.99 17.6005 184.891 17.4961C183.793 17.3914 182.817 18.1995 182.713 19.3006C182.701 19.4267 182.701 19.5535 182.713 19.6794C182.609 20.7807 183.415 21.758 184.514 21.8624C185.612 21.9671 186.588 21.159 186.692 20.058C186.704 19.9321 186.704 19.805 186.692 19.6794ZM195.98 16.3133V22.7524C195.98 25.395 194.411 26.4833 192.562 26.4833C191.176 26.495 189.919 25.6694 189.376 24.3907L190.73 23.7928C191.018 24.5391 191.722 25.0408 192.52 25.0664C193.713 25.0664 194.441 24.3309 194.441 22.9618V22.4477H194.381C193.908 22.977 193.229 23.2755 192.52 23.2666C190.543 23.2666 188.941 21.6607 188.941 19.6795C188.941 17.6983 190.543 16.0922 192.52 16.0922C193.234 16.0764 193.92 16.3679 194.405 16.8933H194.465V16.2954H195.98V16.3133ZM194.59 19.6972C194.68 18.5814 193.851 17.6037 192.738 17.513C192.717 17.5114 192.696 17.5101 192.675 17.5091C191.529 17.547 190.631 18.509 190.669 19.6574C190.67 19.6706 190.67 19.6839 190.671 19.6972C190.618 20.8351 191.495 21.8006 192.631 21.854C192.645 21.8549 192.66 21.8554 192.675 21.8558C193.778 21.8129 194.637 20.882 194.595 19.7768C194.593 19.7503 194.592 19.7237 194.59 19.6972ZM198.742 12.5168V23.0456H197.167V12.5168H198.742ZM204.946 20.8632L206.174 21.6761C205.508 22.6729 204.389 23.2696 203.192 23.2665C201.278 23.2941 199.704 21.7612 199.677 19.8427C199.676 19.7883 199.676 19.7337 199.678 19.6794C199.521 17.8634 200.863 16.2637 202.674 16.1062C204.202 15.9737 205.618 16.9146 206.091 18.3758L206.252 18.7884L201.48 20.7674C201.784 21.4526 202.474 21.8838 203.222 21.8557C203.928 21.8446 204.58 21.4696 204.946 20.8632ZM201.182 19.5717L204.391 18.2444C204.137 17.7463 203.611 17.4476 203.055 17.4849C201.972 17.5326 201.132 18.451 201.18 19.5361C201.18 19.548 201.181 19.5599 201.182 19.5717Z" fill="white"/>
<path d="M143.736 12.9489L133.637 23.7603C134.048 25.248 135.561 26.1138 137.017 25.6943C137.238 25.6306 137.45 25.5386 137.648 25.4212L149.011 18.8084L143.736 12.9489Z" fill="#EA4335"/>
<path d="M153.947 11.1112L149.033 8.23539L143.502 13.195L149.055 18.7931L153.932 15.948C155.239 15.2487 155.744 13.599 155.059 12.2633C154.807 11.7709 154.414 11.369 153.932 11.1112H153.947Z" fill="#FBBC04"/>
<path d="M133.636 3.24599C133.575 3.47658 133.544 3.71452 133.546 3.9534V23.054C133.546 23.2928 133.577 23.5306 133.636 23.7614L144.081 13.227L133.636 3.24599Z" fill="#4285F4"/>
<path d="M143.812 13.5031L149.034 8.23584L137.686 1.59214C137.259 1.33666 136.774 1.20138 136.279 1.19996C135.051 1.19747 133.972 2.0302 133.638 3.23768L143.812 13.5031Z" fill="#34A853"/>
<path d="M164.144 8.71669C162.532 8.71669 161.501 7.50401 161.501 5.61075C161.501 3.75057 162.528 2.56666 164.144 2.56666C165.392 2.56666 166.34 3.32984 166.555 4.51363H165.8C165.56 3.70933 164.956 3.25145 164.144 3.25145C162.956 3.25145 162.241 4.13413 162.241 5.60667C162.241 7.10391 162.968 8.03202 164.144 8.03202C165.168 8.03202 165.872 7.34735 165.872 6.349V6.24172H164.244V5.59013H166.591V6.15518C166.592 7.76376 165.684 8.71669 164.144 8.71669Z" fill="white"/>
<path d="M171.087 8.61743H167.512V2.66542H171.087V3.33366H168.232V5.24347H170.939V5.90333H168.232V7.94918H171.087V8.61743Z" fill="white"/>
<path d="M173.495 8.61743V3.33366H171.675V2.66542H176.034V3.33366H174.215V8.61743H173.495Z" fill="white"/>
<path d="M178.474 8.61743V2.66542H179.195V8.61743H178.474Z" fill="white"/>
<path d="M180.313 8.61743V2.66542H181.013L184.173 7.33871H184.209V2.66542H184.92V8.61743H184.221L181.061 3.96068H181.025V8.61743H180.313Z" fill="white"/>
<path d="M192.817 5.64371C192.817 7.53278 191.793 8.71669 190.157 8.71669C188.522 8.71669 187.498 7.5329 187.498 5.64371C187.498 3.75452 188.522 2.56666 190.157 2.56666C191.793 2.56666 192.817 3.75464 192.817 5.64371ZM188.238 5.64371C188.238 7.10798 188.978 8.03202 190.157 8.03202C191.337 8.03202 192.077 7.1081 192.077 5.64371C192.077 4.17537 191.337 3.25145 190.157 3.25145C188.978 3.25145 188.238 4.17537 188.238 5.64371Z" fill="white"/>
<path d="M193.713 8.61743V2.66542H194.412L197.572 7.33871H197.608V2.66542H198.32V8.61743H197.62L194.46 3.96068H194.424V8.61743H193.713Z" fill="white"/>
<path d="M9.85335 5.67095C9.68147 4.27221 10.3682 2.78782 11.1324 1.87573C12.0001 0.842879 13.5115 0.051912 14.7141 0C14.869 1.45905 14.3019 2.89152 13.4682 3.94268C12.6015 4.97565 11.2097 5.77477 9.85335 5.67095Z" fill="white"/>
<path d="M19.7813 18.0454C19.7642 18.1318 19.2835 19.8257 18.0899 21.5358C17.0844 23.0474 16.0457 24.5236 14.3796 24.549C12.7646 24.5836 12.2236 23.5852 10.3685 23.5852C8.50521 23.5852 7.92108 24.5235 6.37445 24.5836C4.78566 24.6445 3.58405 22.9691 2.54428 21.4757C0.474917 18.4186 -1.13199 12.8612 1.02394 9.08343C2.06371 7.22601 3.97818 6.03529 6.01443 6.00081C7.59404 5.97536 9.07123 7.08657 10.0425 7.08657C10.9959 7.08657 12.8158 5.74877 14.6881 5.9489C15.4704 5.97536 17.7028 6.27028 19.1457 8.38901C19.0341 8.4581 16.4921 9.96995 16.5181 13.0779C16.5525 16.7949 19.739 18.028 19.7813 18.0454Z" fill="white"/>
<path d="M33.867 11.1116H31.351L27.2858 24.1769H29.383L30.5031 20.3378H34.6114L35.7927 24.1769H37.9491L33.867 11.1116ZM30.863 18.7275L31.9162 15.3224C32.1896 14.2435 32.386 13.4212 32.5153 12.8639H32.5574C32.866 14.1555 33.0794 14.9682 33.1908 15.3224L34.2609 18.7275H30.863Z" fill="white"/>
<path d="M47.3038 15.8811C46.5843 15.006 45.6946 14.564 44.6164 14.564C43.2467 14.564 42.2196 15.1292 41.5442 16.2528H41.5092L41.3979 14.7575H39.6183C39.6695 15.8191 39.6956 16.8453 39.6956 17.854V28H41.7237V23.0547C42.2537 23.9487 43.1186 24.3906 44.3249 24.3906C45.4382 24.3906 46.379 23.9836 47.1325 23.1522C47.9803 22.2234 48.3991 20.9586 48.3991 19.3578C48.399 17.9162 48.0392 16.7656 47.3038 15.8811ZM45.6946 21.8338C45.2667 22.4357 44.6764 22.7453 43.9139 22.7453C43.2636 22.7453 42.7336 22.5072 42.3307 22.038C41.9288 21.5689 41.7234 20.9849 41.7234 20.3043V18.7293C41.7234 18.5615 41.7575 18.3492 41.8177 18.0934C41.937 17.5352 42.2115 17.093 42.6134 16.7481C43.0241 16.4126 43.4781 16.2356 43.974 16.2356C44.7104 16.2356 45.3007 16.5453 45.7376 17.1644C46.1394 17.7568 46.3368 18.5086 46.3368 19.4285C46.3369 20.4274 46.1224 21.2239 45.6946 21.8338Z" fill="white"/>
<path d="M57.7777 15.8811C57.0593 15.006 56.1694 14.564 55.0904 14.564C53.7216 14.564 52.6944 15.1292 52.0182 16.2528H51.9842L51.8731 14.7575H50.0925C50.1445 15.8191 50.1697 16.8453 50.1697 17.854V28H52.1976V23.0547C52.7288 23.9487 53.5936 24.3906 54.8 24.3906C55.9122 24.3906 56.8539 23.9836 57.6066 23.1522C58.4542 22.2234 58.8743 20.9586 58.8743 19.3578C58.874 17.9162 58.5141 16.7656 57.7777 15.8811ZM56.1694 21.8338C55.7497 22.4357 55.1505 22.7453 54.389 22.7453C53.7386 22.7453 53.2075 22.5072 52.8058 22.038C52.4029 21.5689 52.1974 20.9849 52.1974 20.3043V18.7293C52.1974 18.5615 52.2326 18.3492 52.2918 18.0934C52.4199 17.5352 52.6855 17.093 53.0881 16.7481C53.4991 16.4126 53.952 16.2356 54.449 16.2356C55.1845 16.2356 55.7756 16.5453 56.2116 17.1644C56.6143 17.7568 56.8109 18.5086 56.8109 19.4285C56.8109 20.4274 56.6054 21.2239 56.1694 21.8338Z" fill="white"/>
<path d="M69.8225 18.2423C70.3445 18.8521 70.6011 19.6135 70.6011 20.5155C70.6011 21.6297 70.2243 22.5318 69.48 23.2309C68.6583 23.9909 67.5119 24.372 66.04 24.372C64.6782 24.372 63.592 24.0978 62.7703 23.558L63.2414 21.8151C64.1312 22.3549 65.1072 22.6291 66.1683 22.6291C66.9297 22.6291 67.5291 22.4518 67.9479 22.0989C68.3756 21.7447 68.59 21.2674 68.59 20.6751C68.59 20.1439 68.4097 19.7016 68.068 19.3389C67.7172 18.9765 67.1351 18.6401 66.3216 18.3305C64.0881 17.4726 62.9837 16.2249 62.9837 14.5887C62.9837 13.5189 63.3776 12.6427 64.156 11.9531C64.9357 11.2715 65.9707 10.9267 67.2633 10.9267C68.4096 10.9267 69.3686 11.1309 70.13 11.5462L69.617 13.2445C68.8976 12.8469 68.0931 12.6427 67.1863 12.6427C66.4757 12.6427 65.9107 12.828 65.5089 13.1825C65.1752 13.5096 65.0038 13.899 65.0038 14.3681C65.0038 14.8807 65.2013 15.3148 65.5861 15.642C65.9198 15.9516 66.5359 16.2871 67.4258 16.6498C68.513 17.101 69.3084 17.6312 69.8225 18.2423Z" fill="white"/>
<path d="M75.0761 14.7565H77.3096V16.3318H75.0761V20.9049C75.0761 22.0639 75.47 22.6468 76.2576 22.6468C76.6163 22.6468 76.9159 22.6117 77.1563 22.5495L77.2154 24.1422C76.8137 24.2924 76.2917 24.3723 75.6414 24.3723C74.8367 24.3723 74.2205 24.1154 73.7666 23.611C73.3137 23.107 73.0903 22.2576 73.0903 21.073V16.3226H71.7645V14.7567H73.0903V13.0325L75.0761 12.4133V14.7565Z" fill="white"/>
<path d="M86.1935 15.9527C85.3808 15.0323 84.3015 14.5721 82.9671 14.5721C81.5803 14.5721 80.477 15.0414 79.6555 15.9704C78.8417 16.8984 78.431 18.0931 78.431 19.5526C78.431 20.9496 78.8249 22.1086 79.6204 23.0196C80.4168 23.9311 81.4861 24.3906 82.8218 24.3906C84.2086 24.3906 85.3207 23.9136 86.1593 22.9574C86.955 22.0286 87.3579 20.8437 87.3579 19.3931C87.3579 17.9867 86.9722 16.8372 86.1935 15.9527ZM84.7044 21.6837C84.2594 22.445 83.6514 22.8252 82.8817 22.8252C82.0942 22.8252 81.478 22.4532 81.0409 21.7015C80.6823 21.0915 80.502 20.3489 80.502 19.4811C80.502 18.5886 80.6734 17.8366 81.0409 17.217C81.4609 16.4654 82.0852 16.0937 82.8989 16.0937C83.6865 16.0937 84.2935 16.4654 84.7212 17.217C85.0811 17.8366 85.2604 18.5707 85.2604 19.4374C85.2604 20.3042 85.0723 21.0469 84.7044 21.6837Z" fill="white"/>
<path d="M93.9383 14.5992L93.9462 16.5976C93.7497 16.5627 93.5353 16.5449 93.3049 16.5449C92.5943 16.5449 92.0384 16.8192 91.6526 17.3764C91.3189 17.8623 91.1475 18.491 91.1475 19.2334V24.1784H89.1195V17.7213C89.1195 16.6329 89.1025 15.6429 89.0595 14.7574H90.823L90.9002 16.5627H90.9603C91.1737 15.9431 91.5073 15.4391 91.9692 15.067C92.4233 14.7315 92.9112 14.564 93.4333 14.564C93.6214 14.5639 93.7928 14.5813 93.9383 14.5992Z" fill="white"/>
<path d="M103 19.0201C103 17.8434 102.727 16.8619 102.188 16.0477C101.52 15.04 100.519 14.5356 99.2091 14.5356C97.8743 14.5356 96.8133 15.04 96.0257 16.0477C95.2721 16.9944 94.8964 18.1801 94.8964 19.5956C94.8964 21.0372 95.2982 22.1961 96.1028 23.0534C96.9073 23.9122 98.0196 24.345 99.4315 24.345C100.605 24.345 101.623 24.1502 102.488 23.7606L102.171 22.3109C101.435 22.603 100.613 22.7532 99.714 22.7532C98.9015 22.7532 98.2422 22.5316 97.729 22.0986C97.164 21.612 96.8734 20.8951 96.8472 19.9662H102.923C102.974 19.7108 103 19.3919 103 19.0201ZM96.8552 18.4721C96.9153 17.8434 97.1207 17.2957 97.4544 16.8441C97.8652 16.2788 98.4044 15.9951 99.0637 15.9951C99.783 15.9951 100.322 16.287 100.673 16.8713C100.946 17.3216 101.084 17.8612 101.067 18.4805L96.8552 18.4721Z" fill="white"/>
<path d="M31.814 0.682864C33.9057 0.682864 35.1442 1.9154 35.1442 4.03924C35.1442 6.16804 33.9105 7.41909 31.814 7.41909H29.3322V0.682864H31.814ZM30.4242 6.51364H31.7115C33.2036 6.51364 34.0275 5.64062 34.0275 4.04868C34.0275 2.46158 33.1987 1.58419 31.7115 1.58419H30.4242V6.51364Z" fill="white"/>
<path d="M35.8283 4.96365C35.8283 3.38586 36.7985 2.41957 38.2613 2.41957C39.7241 2.41957 40.6945 3.38586 40.6945 4.96365C40.6945 6.54616 39.729 7.51245 38.2613 7.51245C36.7937 7.51245 35.8283 6.54616 35.8283 4.96365ZM39.6217 4.96365C39.6217 3.87602 39.0854 3.2505 38.2613 3.2505C37.4374 3.2505 36.9009 3.87614 36.9009 4.96365C36.9009 6.05611 37.4372 6.68163 38.2613 6.68163C39.0902 6.68175 39.6217 6.05611 39.6217 4.96365Z" fill="white"/>
<path d="M46.8512 7.41925H45.7543L44.6766 3.74073H44.6523L43.5845 7.41925H42.4971L41.0881 2.50831H42.1412L43.0774 6.3736H43.0968L44.1646 2.50831H45.1787L46.2513 6.3736H46.2757L47.2119 2.50831H48.2554L46.8512 7.41925Z" fill="white"/>
<path d="M48.9016 2.50816H49.906V3.32977H49.9303C50.2082 2.76957 50.7543 2.4242 51.5442 2.4242C52.6755 2.4242 53.3239 3.11517 53.3239 4.24018V7.4191H52.2661V4.43603C52.2661 3.69861 51.9052 3.29251 51.1738 3.29251C50.4327 3.29251 49.9548 3.79647 49.9548 4.5576V7.41922H48.9017V2.50816H48.9016Z" fill="white"/>
<path d="M54.3743 0.682864H55.4275V7.41909H54.3743V0.682864Z" fill="white"/>
<path d="M56.2825 4.96365C56.2825 3.38586 57.253 2.41957 58.7156 2.41957C60.1784 2.41957 61.1488 3.38586 61.1488 4.96365C61.1488 6.54616 60.1833 7.51245 58.7156 7.51245C57.248 7.51245 56.2825 6.54616 56.2825 4.96365ZM60.0758 4.96365C60.0758 3.87602 59.5396 3.2505 58.7155 3.2505C57.8916 3.2505 57.3552 3.87614 57.3552 4.96365C57.3552 6.05611 57.8914 6.68163 58.7155 6.68163C59.5445 6.68175 60.0758 6.05611 60.0758 4.96365Z" fill="white"/>
<path d="M61.7576 6.02345C61.7576 5.16445 62.4451 4.63691 63.6641 4.57159L65.0683 4.49223V4.11397C65.0683 3.56768 64.683 3.24106 64.0394 3.24106C63.43 3.24106 63.0497 3.52134 62.957 3.95998H61.9625C62.021 3.07316 62.8109 2.41957 64.0787 2.41957C65.322 2.41957 66.1167 3.04993 66.1167 4.03473V7.41918H65.1074V6.61148H65.0832C64.7856 7.15776 64.1372 7.50313 63.4642 7.50313C62.4597 7.50313 61.7576 6.90579 61.7576 6.02345ZM65.0684 5.57986V5.19252L63.8055 5.26715C63.1765 5.30925 62.8206 5.57526 62.8206 5.9955C62.8206 6.42517 63.1911 6.7051 63.7569 6.7051C64.4931 6.70498 65.0684 6.21942 65.0684 5.57986Z" fill="white"/>
<path d="M66.9031 4.96345C66.9031 3.41348 67.7612 2.42868 69.0485 2.42868C69.7847 2.42868 70.3698 2.78347 70.6574 3.32493H70.6769V0.682864H71.7351V7.41909H70.7111V6.58356H70.6917C70.3894 7.14365 69.8043 7.50305 69.0582 7.50305C67.7612 7.50293 66.9031 6.51352 66.9031 4.96345ZM67.9805 4.96345C67.9805 5.9999 68.5024 6.64877 69.336 6.64877C70.1456 6.64877 70.6867 5.99046 70.6867 4.96345C70.6867 3.94586 70.1456 3.27847 69.336 3.27847C68.5025 3.27847 67.9805 3.93195 67.9805 4.96345Z" fill="white"/>
<path d="M74.6097 4.96365C74.6097 3.38586 75.5798 2.41957 77.0429 2.41957C78.5055 2.41957 79.476 3.38586 79.476 4.96365C79.476 6.54616 78.5103 7.51245 77.0429 7.51245C75.5752 7.51245 74.6097 6.54616 74.6097 4.96365ZM78.4032 4.96365C78.4032 3.87602 77.8668 3.2505 77.0429 3.2505C76.2188 3.2505 75.6823 3.87614 75.6823 4.96365C75.6823 6.05611 76.2187 6.68163 77.0429 6.68163C77.8716 6.68175 78.4032 6.05611 78.4032 4.96365Z" fill="white"/>
<path d="M80.2904 2.50816H81.2949V3.32977H81.3193C81.5972 2.76957 82.1431 2.4242 82.9332 2.4242C84.0645 2.4242 84.713 3.11517 84.713 4.24018V7.4191H83.6548V4.43603C83.6548 3.69861 83.294 3.29251 82.5626 3.29251C81.8214 3.29251 81.3438 3.79647 81.3438 4.5576V7.41922H80.2904V2.50816Z" fill="white"/>
<path d="M89.116 1.34644V2.50859H90.0911V3.30698H89.116V6.01448C89.116 6.43944 89.311 6.63069 89.74 6.63069C89.8474 6.63069 90.0181 6.62138 90.0863 6.60747V7.40573C89.9692 7.43368 89.7352 7.45243 89.5012 7.45243C88.4625 7.45243 88.0579 7.07428 88.0579 6.12662V3.30709H87.3119V2.50871H88.0579V1.34656H89.116V1.34644Z" fill="white"/>
<path d="M90.9926 0.682864H92.036V3.32965H92.0603C92.3432 2.75553 92.9039 2.42408 93.6839 2.42408C94.8104 2.42408 95.4833 3.14299 95.4833 4.25408V7.41909H94.4251V4.45005C94.4251 3.72642 94.0447 3.29251 93.3038 3.29251C92.5236 3.29251 92.0457 3.80589 92.0457 4.58093V7.41909H90.9926V0.682864Z" fill="white"/>
<path d="M100.895 5.97663C100.749 6.87301 99.8617 7.51245 98.6866 7.51245C97.18 7.51245 96.268 6.53684 96.268 4.98711C96.268 3.4467 97.1944 2.41957 98.6425 2.41957C100.066 2.41957 100.954 3.38126 100.954 4.87038V5.21598H97.331V5.27659C97.331 6.13075 97.8674 6.69567 98.7109 6.69567C99.3106 6.69567 99.7544 6.40631 99.8957 5.97663H100.895ZM97.336 4.51086H99.9005C99.8764 3.75941 99.3789 3.23175 98.6425 3.23175C97.9064 3.23187 97.3895 3.76872 97.336 4.51086Z" fill="white"/>
</svg>
