<svg width="12" height="13" viewBox="0 0 12 13" fill="none" xmlns="http://www.w3.org/2000/svg">
<path id="Vector" d="M11.4983 5.68213L1.29227 0.584215C1.15459 0.520488 1.00313 0.492176 0.851697 0.501855C0.700262 0.511534 0.553655 0.558897 0.425221 0.639633C0.296788 0.720369 0.190607 0.831913 0.116345 0.964113C0.0420835 1.09631 0.0020987 1.24497 3.08605e-05 1.39655V11.588C-0.00125495 11.7436 0.0376596 11.8969 0.113013 12.0331C0.188367 12.1692 0.297612 12.2837 0.430188 12.3654C0.562765 12.4471 0.714189 12.4932 0.869827 12.4993C1.02546 12.5054 1.18005 12.4713 1.31864 12.4003L11.4983 7.3024C11.6491 7.22679 11.7759 7.11077 11.8645 6.96732C11.9531 6.82386 12 6.65863 12 6.49007C12 6.32152 11.9531 6.15628 11.8645 6.01283C11.7759 5.86938 11.6491 5.75336 11.4983 5.67774V5.68213Z" fill="#9D9D9D"/>
</svg>
