<svg width="120" height="41" viewBox="0 0 120 41" fill="none" xmlns="http://www.w3.org/2000/svg">
<path d="M108.701 23.2951L106.911 27.8631H106.858L104.99 23.2951H103.302L106.1 29.6805L104.501 33.2319H106.142L110.455 23.2951H108.701ZM96.0545 19.5047H94.4916V30.0393H96.0545V19.5047ZM90.1729 19.5047H86.4149V30.0393H87.9897V26.0514H90.179C92.0196 26.1147 93.5625 24.6704 93.6254 22.8256C93.6261 22.8107 93.6264 22.7959 93.6267 22.781C93.5883 20.9323 92.0618 19.465 90.2174 19.5035C90.2025 19.5037 90.1877 19.5042 90.1729 19.5047ZM90.2147 24.5809H87.9896V20.9936H90.2205C91.2088 20.9936 92.0101 21.7965 92.0101 22.787C92.0101 23.7778 91.2088 24.5809 90.2205 24.5809H90.2147ZM99.9081 23.068C98.7383 23.0008 97.6397 23.6347 97.1104 24.6823L98.5063 25.2802C98.7889 24.7622 99.3512 24.4616 99.938 24.5148C100.764 24.4321 101.501 25.036 101.584 25.8638C101.584 25.8667 101.584 25.8695 101.584 25.872V25.9796C101.084 25.7086 100.525 25.5667 99.956 25.567C98.4587 25.567 96.9316 26.3923 96.9316 27.9586C96.9316 29.3698 98.1545 30.2784 99.5383 30.2784C100.341 30.3294 101.106 29.9344 101.531 29.25H101.59V30.0632H103.118V26.0095C103.118 24.1382 101.722 23.0978 99.9201 23.0978L99.9081 23.068ZM99.7233 28.8436C99.2102 28.8436 98.4943 28.5803 98.4943 27.9467C98.4943 27.1338 99.3832 26.8228 100.159 26.8228C100.659 26.8094 101.153 26.9312 101.59 27.1754C101.471 28.1208 100.674 28.8333 99.7233 28.8436ZM43.1609 30.2664C40.072 30.2767 37.5489 27.7959 37.5 24.7003C37.5489 21.6047 40.072 19.1239 43.1609 19.134C44.5898 19.1101 45.968 19.664 46.9846 20.6706L45.9049 21.7407C45.1726 21.0216 44.1862 20.6218 43.1609 20.6287C40.9306 20.6287 39.1224 22.4407 39.1224 24.6763C39.1224 26.9116 40.9306 28.7239 43.1609 28.7239C44.215 28.7673 45.2381 28.3612 45.9765 27.6058C46.4621 27.0813 46.7546 26.4065 46.8057 25.6926H43.1609V24.2159H48.2911C48.347 24.5296 48.373 24.8478 48.3686 25.1666C48.4202 26.4901 47.9461 27.7801 47.0503 28.7537C46.0274 29.7895 44.6131 30.3395 43.1609 30.2664ZM56.3023 26.6793C56.3826 28.6388 54.8627 30.2929 52.9073 30.3733C50.952 30.4537 49.3019 28.9304 49.2216 26.9706C49.2176 26.8735 49.2176 26.7764 49.2216 26.6793C49.1413 24.7195 50.6612 23.0654 52.6165 22.9851C54.5718 22.9046 56.222 24.428 56.3022 26.3878C56.3063 26.4849 56.3063 26.5822 56.3023 26.6793ZM54.7514 26.6793C54.8558 25.578 54.0496 24.6004 52.9509 24.4961C51.8522 24.3914 50.877 25.1994 50.7726 26.3005C50.7606 26.4266 50.7606 26.5534 50.7726 26.6793C50.6683 27.7806 51.4743 28.7579 52.573 28.8623C53.6719 28.967 54.6471 28.159 54.7514 27.0579C54.7633 26.932 54.7633 26.8049 54.7514 26.6793ZM64.2362 26.6793C64.2362 28.6372 62.6524 30.2246 60.6987 30.2246C58.745 30.2246 57.1614 28.6373 57.1614 26.6793C57.1614 24.7212 58.7451 23.1337 60.6987 23.1337C62.6522 23.1337 64.2362 24.7212 64.2362 26.6793ZM62.6911 26.6793C62.7955 25.578 61.9893 24.6004 60.8907 24.4961C59.792 24.3914 58.8166 25.1994 58.7123 26.3005C58.7004 26.4266 58.7004 26.5534 58.7123 26.6793C58.608 27.7806 59.4141 28.7579 60.5128 28.8623C61.6114 28.967 62.5868 28.159 62.691 27.0579C62.7031 26.932 62.7031 26.8049 62.6911 26.6793ZM71.979 23.3132V29.7523C71.979 32.3948 70.4101 33.4832 68.561 33.4832C67.1748 33.4949 65.9178 32.6693 65.3756 31.3906L66.7296 30.7927C67.0167 31.539 67.7216 32.0407 68.5193 32.0663C69.7123 32.0663 70.4401 31.3308 70.4401 29.9617V29.4476H70.3803C69.9069 29.9769 69.2285 30.2754 68.5193 30.2665C66.5426 30.2665 64.94 28.6606 64.94 26.6794C64.94 24.6982 66.5426 23.0921 68.5193 23.0921C69.2329 23.0763 69.9193 23.3678 70.4042 23.8932H70.4638V23.2953H71.979V23.3132ZM70.5891 26.6971C70.6793 25.5814 69.8504 24.6036 68.7372 24.5129C68.7162 24.5113 68.6953 24.51 68.6743 24.509C67.5286 24.547 66.6304 25.5089 66.6683 26.6573C66.6688 26.6705 66.6694 26.6839 66.6699 26.6971C66.6169 27.835 67.4943 28.8005 68.6297 28.8539C68.6446 28.8548 68.6595 28.8553 68.6743 28.8557C69.7771 28.8128 70.6366 27.8819 70.5938 26.7767C70.5926 26.7502 70.5911 26.7236 70.5891 26.6971ZM74.7408 19.5167V30.0455H73.1661V19.5167H74.7408ZM80.9448 27.8631L82.1735 28.676C81.5071 29.6728 80.388 30.2695 79.1909 30.2664C77.2768 30.294 75.7032 28.7611 75.6758 26.8426C75.6751 26.7882 75.6755 26.7336 75.6774 26.6793C75.5203 24.8633 76.8617 23.2636 78.6735 23.1061C80.2006 22.9736 81.617 23.9145 82.0901 25.3757L82.2512 25.7883L77.479 27.7673C77.7831 28.4525 78.473 28.8837 79.2207 28.8556C79.9276 28.8445 80.579 28.4696 80.9448 27.8631ZM77.1807 26.5717L80.3898 25.2443C80.1359 24.7462 79.6106 24.4475 79.0538 24.4848C77.9709 24.5326 77.1314 25.4509 77.1789 26.536C77.1794 26.5479 77.1798 26.5598 77.1807 26.5717Z" fill="white"/>
<path d="M19.7356 19.9489L9.63672 30.7602C10.0476 32.2479 11.5607 33.1137 13.0168 32.6942C13.2374 32.6305 13.4495 32.5385 13.6478 32.4211L25.0108 25.8083L19.7356 19.9489Z" fill="#EA4335"/>
<path d="M29.946 18.1111L25.0319 15.2354L19.501 20.195L25.0545 25.793L29.9309 22.9479C31.238 22.2487 31.7428 20.599 31.0585 19.2632C30.8063 18.7709 30.4128 18.369 29.9309 18.1111H29.946Z" fill="#FBBC04"/>
<path d="M9.63522 10.246C9.57419 10.4766 9.54379 10.7145 9.54495 10.9534V30.0539C9.54553 30.2927 9.57593 30.5305 9.63522 30.7613L20.0802 20.2269L9.63522 10.246Z" fill="#4285F4"/>
<path d="M19.8113 20.5031L25.0338 15.2358L13.6857 8.59214C13.2588 8.33665 12.7733 8.20138 12.2786 8.19996C11.0507 8.19747 9.97112 9.03019 9.63721 10.2377L19.8113 20.5031Z" fill="#34A853"/>
<path d="M40.1434 15.7167C38.5317 15.7167 37.5 14.504 37.5 12.6107C37.5 10.7505 38.5278 9.56665 40.1434 9.56665C41.3911 9.56665 42.339 10.3298 42.5548 11.5136H41.7989C41.5589 10.7093 40.9551 10.2514 40.1432 10.2514C38.9556 10.2514 38.2398 11.1341 38.2398 12.6066C38.2398 14.1039 38.9675 15.032 40.1432 15.032C41.167 15.032 41.8709 14.3473 41.8709 13.349V13.2417H40.2433V12.5901H42.5907V13.1552C42.5908 14.7637 41.6829 15.7167 40.1434 15.7167Z" fill="white"/>
<path d="M47.0864 15.6174H43.5112V9.66541H47.0864V10.3336H44.231V12.2434H46.9383V12.9033H44.231V14.9491H47.0864V15.6174Z" fill="white"/>
<path d="M49.494 15.6174V10.3336H47.6743V9.66541H52.0333V10.3336H50.2138V15.6174H49.494Z" fill="white"/>
<path d="M54.4736 15.6174V9.66541H55.1938V15.6174H54.4736Z" fill="white"/>
<path d="M56.3125 15.6174V9.66541H57.0123L60.1718 14.3387H60.2077V9.66541H60.9195V15.6174H60.2198L57.0604 10.9607H57.0244V15.6174H56.3125Z" fill="white"/>
<path d="M68.8159 12.6437C68.8159 14.5328 67.792 15.7167 66.1565 15.7167C64.5208 15.7167 63.4971 14.5329 63.4971 12.6437C63.4971 10.7545 64.5208 9.56665 66.1565 9.56665C67.7922 9.56665 68.8159 10.7546 68.8159 12.6437ZM64.237 12.6437C64.237 14.108 64.9768 15.032 66.1566 15.032C67.3364 15.032 68.0761 14.1081 68.0761 12.6437C68.0761 11.1754 67.3364 10.2514 66.1566 10.2514C64.9768 10.2514 64.237 11.1754 64.237 12.6437Z" fill="white"/>
<path d="M69.7119 15.6174V9.66541H70.4116L73.571 14.3387H73.6069V9.66541H74.3187V15.6174H73.619L70.4595 10.9607H70.4236V15.6174H69.7119Z" fill="white"/>
</svg>
