<svg width="25" height="22" viewBox="0 0 25 22" fill="none" xmlns="http://www.w3.org/2000/svg">
<path d="M12.4999 0.5C6.08325 0.5 0.833252 4.7 0.833252 9.83333C0.833252 12.4 2.11659 14.7333 4.09992 16.25C4.09992 16.95 3.63325 18.8167 0.833252 21.5C3.63325 21.3833 6.19992 20.3333 8.41659 18.5833C9.69992 18.9333 11.0999 19.1667 12.4999 19.1667C18.9166 19.1667 24.1666 14.9667 24.1666 9.83333C24.1666 4.7 18.9166 0.5 12.4999 0.5ZM12.4999 16.8333C7.36659 16.8333 3.16659 13.6833 3.16659 9.83333C3.16659 5.98333 7.36659 2.83333 12.4999 2.83333C17.6333 2.83333 21.8333 5.98333 21.8333 9.83333C21.8333 13.6833 17.6333 16.8333 12.4999 16.8333ZM12.7333 4.58333C11.6833 4.58333 10.8666 4.81667 10.2833 5.16667C9.58325 5.63333 9.23325 6.33333 9.34992 7.15H11.6833C11.6833 6.8 11.7999 6.56667 12.0333 6.45C12.2666 6.33333 12.4999 6.21667 12.8499 6.21667C13.1999 6.21667 13.5499 6.33333 13.7833 6.56667C14.0166 6.8 14.1333 7.03333 14.1333 7.38333C14.1333 7.73333 14.0166 7.96667 13.8999 8.2C13.6666 8.43333 13.4333 8.66667 13.1999 8.78333C12.6166 9.13333 12.1499 9.48333 11.9166 9.71667C11.4499 10.0667 11.3333 10.4167 11.3333 11H13.6666C13.6666 10.65 13.7833 10.4167 13.7833 10.1833C13.8999 9.95 14.1333 9.83333 14.3666 9.6C14.9499 9.36667 15.2999 9.01667 15.6499 8.55C15.9999 8.08333 16.1166 7.61667 16.1166 7.15C16.1166 6.33333 15.7666 5.63333 15.1833 5.16667C14.7166 4.81667 13.7833 4.58333 12.7333 4.58333ZM11.3333 12.1667V14.5H13.6666V12.1667H11.3333Z" fill="#0040C3"/>
</svg>
