<svg width="100" height="82" viewBox="0 0 100 82" fill="none" xmlns="http://www.w3.org/2000/svg">
<g clip-path="url(#clip0_7042_3374)">
<path d="M65.9939 64.1242C69.8501 61.996 69.3504 53.7955 64.8813 45.7947C62.9642 42.3497 60.6071 39.56 58.25 37.6097C55.4315 39.6866 52.0173 40.8129 48.5074 40.8238C44.9921 40.8161 41.572 39.6896 38.749 37.6097C36.3919 39.56 34.0411 42.3528 32.1177 45.7947C27.6455 53.7924 27.1521 61.996 31.0177 64.1242C32.74 65.0978 34.5565 64.3676 36.4296 62.5764C36.079 64.5062 35.9033 66.4633 35.9048 68.4242C35.9048 77.592 39.4876 85 43.8969 85C46.5557 85 47.8725 82.3008 48.5042 78.1725C49.1328 82.2727 50.4528 85 53.0927 85C57.4832 85 61.0943 77.5889 61.0943 68.4242C61.0943 66.3647 60.8994 64.3988 60.5663 62.5796C62.452 64.3738 64.2622 65.1165 65.9907 64.1304L65.9939 64.1242ZM48.5011 37.7033C50.2842 37.7298 52.0548 37.4038 53.7099 36.7444C55.3649 36.0851 56.8713 35.1054 58.1415 33.8626C59.4117 32.6197 60.4201 31.1384 61.1083 29.5049C61.7965 27.8714 62.1505 26.1184 62.1499 24.3477C62.1493 22.5771 61.794 20.8243 61.1047 19.1912C60.4154 17.5582 59.4058 16.0777 58.1348 14.8357C56.8637 13.5937 55.3566 12.6151 53.7011 11.9569C52.0456 11.2987 50.2748 10.974 48.4917 11.0016C44.9611 11.0564 41.5938 12.4878 39.117 14.9866C36.6402 17.4854 35.2527 20.8512 35.2539 24.3571C35.2551 27.863 36.6451 31.2278 39.1236 33.7249C41.6022 36.222 44.9704 37.651 48.5011 37.7033ZM75.5103 46.1722C78.3821 46.0889 81.1083 44.8976 83.11 42.8512C85.1117 40.8047 86.2314 38.0643 86.2314 35.2116C86.2314 32.359 85.1117 29.6186 83.11 27.5721C81.1083 25.5257 78.3821 24.3344 75.5103 24.2511C72.5817 24.2515 69.7732 25.407 67.7027 27.4634C65.6322 29.5198 64.4692 32.3086 64.4696 35.2163C64.47 38.1241 65.6338 40.9126 67.7049 42.9684C69.776 45.0242 72.5848 46.1789 75.5134 46.1785L75.5103 46.1722ZM88.9614 52.8188C87.3837 49.9854 85.4541 47.695 83.5181 46.0942C81.2023 47.7978 78.3987 48.7217 75.5165 48.731C73.1406 48.731 70.9281 48.0851 68.9921 47.0148C70.5509 50.4254 71.5158 53.8797 71.6949 56.969C71.9903 61.6996 70.5006 65.207 67.5213 66.8452C66.8827 67.1936 66.1885 67.43 65.469 67.5442C65.2899 68.7674 65.1673 70.0406 65.1673 71.3824C65.1673 78.912 68.1058 84.9938 71.7295 84.9938C73.9106 84.9938 74.998 82.7782 75.5134 79.3894C76.0257 82.7595 77.1099 84.9938 79.2848 84.9938C82.8832 84.9938 85.8532 78.9089 85.8532 71.3886C85.8532 69.6942 85.6866 68.0809 85.4132 66.5831C86.9594 68.0591 88.4491 68.6676 89.8697 67.8562C93.0345 66.1088 92.6259 59.3749 88.9583 52.8157L88.9614 52.8188ZM21.4919 46.1722C23.6747 46.171 25.808 45.5272 27.6223 44.3223C29.4366 43.1173 30.8503 41.4053 31.6848 39.4027C32.5192 37.4001 32.7369 35.1968 32.3103 33.0714C31.8837 30.946 30.832 28.9938 29.2881 27.4618C27.7442 25.9298 25.7775 24.8867 23.6366 24.4643C21.4957 24.042 19.2768 24.2593 17.2603 25.089C15.2439 25.9186 13.5204 27.3233 12.3079 29.1254C11.0953 30.9274 10.4482 33.046 10.4482 35.2132C10.449 38.1211 11.6128 40.9097 13.6837 42.9659C15.7546 45.0221 18.5632 46.1776 21.4919 46.1785V46.1722ZM29.4589 66.8359C24.4556 64.0743 23.9967 55.8394 28.0258 47.0085C26.0343 48.1311 23.7851 48.7254 21.4951 48.7341C18.4906 48.7341 15.7375 47.7356 13.4809 46.0942C11.5481 47.6919 9.6216 49.9823 8.03763 52.8125C4.36999 59.378 3.96771 66.1119 7.13565 67.8531C8.5499 68.6582 10.0427 68.056 11.5796 66.5862C11.2973 68.1706 11.1553 69.7765 11.1553 71.3855C11.1553 78.912 14.0938 84.9906 17.7174 84.9906C19.8985 84.9906 20.9859 82.7751 21.5014 79.3894C22.0199 82.7595 23.1042 84.9938 25.2727 84.9938C28.8775 84.9938 31.8411 78.9089 31.8411 71.3886C31.8411 70.0374 31.7154 68.7612 31.5363 67.538C30.8089 67.4241 30.107 67.1855 29.4621 66.8327L29.4589 66.8359Z" fill="#1D5BDB"/>
</g>
<defs>
<clipPath id="clip0_7042_3374">
<rect width="100" height="81.4516" fill="white"/>
</clipPath>
</defs>
</svg>
