<svg width="19" height="18" viewBox="0 0 19 18" fill="none" xmlns="http://www.w3.org/2000/svg">
<path d="M18.4339 17.0586L13.4128 12.0306C14.6194 10.58 15.2211 8.71952 15.0927 6.83605C14.9643 4.95259 14.1157 3.19121 12.7235 1.91831C11.3313 0.645413 9.50254 -0.0409893 7.61779 0.00189494C5.73303 0.0447792 3.93734 0.813648 2.60427 2.14855C1.27121 3.48346 0.503397 5.28163 0.460572 7.16898C0.417746 9.05634 1.1032 10.8876 2.37435 12.2817C3.64549 13.6759 5.40445 14.5256 7.28532 14.6542C9.16618 14.7828 11.0241 14.1803 12.4727 12.972L17.4938 18L18.4339 17.0586ZM1.81219 7.34744C1.81219 6.16232 2.16313 5.00382 2.82064 4.01843C3.47815 3.03304 4.4127 2.26502 5.5061 1.8115C6.59949 1.35797 7.80264 1.23931 8.96338 1.47051C10.1241 1.70172 11.1903 2.27241 12.0272 3.11041C12.864 3.94842 13.4339 5.0161 13.6648 6.17845C13.8957 7.34079 13.7772 8.5456 13.3243 9.6405C12.8714 10.7354 12.1045 11.6712 11.1204 12.3297C10.1364 12.9881 8.97949 13.3395 7.796 13.3395C6.20954 13.3377 4.68855 12.7059 3.56675 11.5825C2.44495 10.4592 1.81395 8.9361 1.81219 7.34744Z" fill="#ABABAB"/>
</svg>
