<svg width="19" height="20" viewBox="0 0 19 20" fill="none" xmlns="http://www.w3.org/2000/svg">
<path id="Vector" d="M15.5 14.12C14.74 14.12 14.06 14.42 13.54 14.89L6.41 10.74C6.46 10.51 6.5 10.28 6.5 10.04C6.5 9.80004 6.46 9.57004 6.41 9.34004L13.46 5.23004C14 5.73004 14.71 6.04004 15.5 6.04004C17.16 6.04004 18.5 4.70004 18.5 3.04004C18.5 1.38004 17.16 0.0400391 15.5 0.0400391C13.84 0.0400391 12.5 1.38004 12.5 3.04004C12.5 3.28004 12.54 3.51004 12.59 3.74004L5.54 7.85004C5 7.35004 4.29 7.04004 3.5 7.04004C1.84 7.04004 0.5 8.38004 0.5 10.04C0.5 11.7 1.84 13.04 3.5 13.04C4.29 13.04 5 12.73 5.54 12.23L12.66 16.39C12.61 16.6 12.58 16.82 12.58 17.04C12.58 18.65 13.89 19.96 15.5 19.96C17.11 19.96 18.42 18.65 18.42 17.04C18.42 15.43 17.11 14.12 15.5 14.12Z" fill="#0040C3"/>
</svg>
