<svg width="17" height="17" viewBox="0 0 17 17" fill="none" xmlns="http://www.w3.org/2000/svg">
<path d="M13.7649 12.0001C13.4281 12.0014 13.0951 12.0707 12.7857 12.2039C12.4764 12.3371 12.1972 12.5314 11.9649 12.7751L5.86985 9.72512C6.01978 9.2705 6.01978 8.77975 5.86985 8.32512L11.9749 5.22012C12.4121 5.68094 13.0051 5.9627 13.6386 6.01065C14.2721 6.0586 14.9007 5.86931 15.4024 5.47957C15.9041 5.08983 16.2429 4.52748 16.3531 3.90183C16.4632 3.27618 16.3368 2.63193 15.9984 2.09429C15.66 1.55665 15.1338 1.16403 14.522 0.992754C13.9103 0.821475 13.2567 0.883769 12.6883 1.16753C12.12 1.45129 11.6774 1.93624 11.4467 2.52812C11.2159 3.12001 11.2135 3.77655 11.4399 4.37012L5.39485 7.44512C5.06838 7.04585 4.6264 6.75732 4.12951 6.61908C3.63262 6.48085 3.10514 6.49969 2.61937 6.673C2.1336 6.84632 1.71333 7.16564 1.41616 7.58718C1.11899 8.00873 0.959473 8.51186 0.959473 9.02762C0.959473 9.54338 1.11899 10.0465 1.41616 10.4681C1.71333 10.8896 2.1336 11.2089 2.61937 11.3822C3.10514 11.5556 3.63262 11.5744 4.12951 11.4362C4.6264 11.2979 5.06838 11.0094 5.39485 10.6101L11.4249 13.6451C11.3227 13.9186 11.2702 14.2082 11.2699 14.5001C11.2699 14.9946 11.4165 15.4779 11.6912 15.889C11.9659 16.3002 12.3563 16.6206 12.8131 16.8098C13.27 16.999 13.7726 17.0485 14.2576 16.9521C14.7425 16.8556 15.188 16.6175 15.5376 16.2679C15.8873 15.9183 16.1254 15.4728 16.2218 14.9878C16.3183 14.5029 16.2688 14.0002 16.0796 13.5434C15.8903 13.0866 15.5699 12.6962 15.1588 12.4214C14.7477 12.1467 14.2643 12.0001 13.7699 12.0001H13.7649Z" fill="#1D5BDB"/>
</svg>
