<svg width="289" height="152" viewBox="0 0 289 152" fill="none" xmlns="http://www.w3.org/2000/svg">
<g clip-path="url(#clip0_0_5)">
<mask id="mask0_0_5" style="mask-type:luminance" maskUnits="userSpaceOnUse" x="0" y="0" width="289" height="153">
<path d="M0 0H289V152.175H0V0Z" fill="white"/>
</mask>
<g mask="url(#mask0_0_5)">
<path fill-rule="evenodd" clip-rule="evenodd" d="M-9.03125 0H316.094V152.175H-9.03125V0Z" fill="white"/>
<path fill-rule="evenodd" clip-rule="evenodd" d="M-9.03125 0H316.094V76.0877H-9.03125V0Z" fill="#DF0000"/>
<path fill-rule="evenodd" clip-rule="evenodd" d="M65.9276 12.7447C57.3741 14.0352 49.7135 17.3525 44.2318 22.1397C38.7502 26.9268 35.7813 32.8922 35.8237 39.0345C35.8661 45.1767 38.9171 51.1217 44.4645 55.8713C50.0119 60.621 57.718 63.886 66.2888 65.1183C61.3788 66.1158 56.2367 66.423 51.1572 66.0222C46.0778 65.6214 41.161 64.5206 36.6889 62.7828C32.2168 61.045 28.2773 58.7045 25.0963 55.8955C21.9154 53.0864 19.5556 49.8642 18.1523 46.4135C15.3651 39.4771 16.6031 32.0481 21.5956 25.7507C26.5881 19.4534 34.9289 14.8 44.7944 12.8081C52.0194 11.3497 58.7026 11.318 65.9727 12.7447H65.9276Z" fill="white"/>
<path fill-rule="evenodd" clip-rule="evenodd" d="M60.0582 34.8735L62.2709 39.629L56.4005 36.7123L50.6205 39.6924L52.7429 34.8735L46.9629 31.9251L54.1427 31.8617L56.4005 27.1062L58.6584 31.8617H65.793L60.0582 34.8735ZM67.9605 51.3592L70.2184 56.1464L64.348 53.2297L58.5229 56.1781L60.6904 51.3909L54.9104 48.4108L62.0902 48.3791L64.3029 43.5919L66.5607 48.3474H73.7857L67.9605 51.3592ZM94.377 51.2324L96.5896 56.0513L90.7193 53.1029L84.9393 56.0513L87.0616 51.2641L81.2816 48.3157L88.4615 48.2523L90.7193 43.4968L92.9771 48.2523H100.112L94.377 51.2324ZM102.234 34.8735L104.447 39.6607L98.5765 36.744L92.7965 39.6924L94.964 34.9052L89.1388 31.9251L96.3638 31.8934L98.5313 27.1062L100.789 31.8617H108.014L102.234 34.8735ZM81.3268 23.9993L83.5846 28.8182L77.7143 25.8698L71.8891 28.8499L74.0566 24.031L68.2766 21.0509L75.4113 21.0192L77.6691 16.2321L79.927 20.9875H87.152L81.3268 23.9993Z" fill="white"/>
</g>
</g>
<defs>
<clipPath id="clip0_0_5">
<rect width="289" height="152" fill="white"/>
</clipPath>
</defs>
</svg>
