<svg width="17" height="17" viewBox="0 0 17 17" fill="none" xmlns="http://www.w3.org/2000/svg">
<path d="M13.4583 13.4583H3.54167V5.66659H13.4583M11.3333 0.708252V2.12492H5.66667V0.708252H4.25V2.12492H3.54167C2.75542 2.12492 2.125 2.75534 2.125 3.54159V13.4583C2.125 13.834 2.27426 14.1943 2.53993 14.46C2.80561 14.7257 3.16594 14.8749 3.54167 14.8749H13.4583C13.8341 14.8749 14.1944 14.7257 14.4601 14.46C14.7257 14.1943 14.875 13.834 14.875 13.4583V3.54159C14.875 3.16586 14.7257 2.80553 14.4601 2.53985C14.1944 2.27417 13.8341 2.12492 13.4583 2.12492H12.75V0.708252M12.0417 8.49992H8.5V12.0416H12.0417V8.49992Z" fill="#0B0B0B"/>
</svg>
