<svg width="17" height="17" viewBox="0 0 17 17" fill="none" xmlns="http://www.w3.org/2000/svg">
<path d="M2.39062 8.50009C2.39062 8.28874 2.47286 8.08605 2.61925 7.93661C2.76564 7.78717 2.96418 7.70321 3.1712 7.70321L12.3165 7.70321L8.89544 4.5784C8.74252 4.43713 8.65059 4.23981 8.63971 4.02956C8.62884 3.81932 8.69991 3.61322 8.83741 3.45629C8.9749 3.29936 9.16764 3.20436 9.37352 3.19204C9.5794 3.17972 9.7817 3.25108 9.93621 3.39052L14.8799 7.90615C14.9619 7.9809 15.0275 8.0725 15.0725 8.17494C15.1174 8.27739 15.1406 8.38837 15.1406 8.50062C15.1406 8.61287 15.1174 8.72385 15.0725 8.82629C15.0275 8.92874 14.9619 9.02034 14.8799 9.09509L9.93621 13.6107C9.85992 13.6812 9.77074 13.7356 9.67379 13.7707C9.57684 13.8059 9.47403 13.8212 9.37129 13.8156C9.26854 13.8101 9.16788 13.7839 9.0751 13.7385C8.98232 13.6931 8.89924 13.6294 8.83064 13.5511C8.76205 13.4728 8.70929 13.3815 8.67541 13.2823C8.64153 13.1831 8.62718 13.0781 8.6332 12.9732C8.63923 12.8684 8.66549 12.7658 8.7105 12.6713C8.7555 12.5768 8.81835 12.4924 8.89544 12.4228L12.3165 9.29696L3.1712 9.29696C2.96418 9.29696 2.76564 9.21301 2.61925 9.06356C2.47286 8.91412 2.39062 8.71143 2.39062 8.50009Z" fill="#0040C3"/>
</svg>
