<svg width="88" height="13" viewBox="0 0 88 13" fill="none" xmlns="http://www.w3.org/2000/svg">
<path d="M7.68955 1.29018L9.2116 4.26555C9.24622 4.34107 9.30067 4.40648 9.36953 4.45527C9.4384 4.50406 9.51927 4.53452 9.60408 4.54362L12.9641 5.02561C13.0614 5.03772 13.1531 5.07638 13.2285 5.13707C13.304 5.19777 13.36 5.278 13.3901 5.36839C13.4202 5.45878 13.4232 5.5556 13.3986 5.64754C13.374 5.73949 13.3229 5.82276 13.2513 5.88763L10.8294 8.21416C10.7676 8.27008 10.7212 8.34007 10.6944 8.41778C10.6677 8.49548 10.6614 8.57843 10.6762 8.65908L11.2601 11.9311C11.277 12.0251 11.2664 12.1218 11.2293 12.2102C11.1922 12.2986 11.1303 12.3752 11.0505 12.4312C10.9707 12.4873 10.8763 12.5205 10.7779 12.5271C10.6796 12.5337 10.5814 12.5134 10.4943 12.4687L7.46938 10.9207C7.39192 10.8839 7.30678 10.8648 7.22049 10.8648C7.1342 10.8648 7.04906 10.8839 6.9716 10.9207L3.94665 12.4687C3.85962 12.5134 3.76136 12.5337 3.66304 12.5271C3.56472 12.5205 3.47029 12.4873 3.39049 12.4312C3.3107 12.3752 3.24875 12.2986 3.21168 12.2102C3.17462 12.1218 3.16393 12.0251 3.18084 11.9311L3.76477 8.622C3.77957 8.54136 3.77331 8.45841 3.74656 8.3807C3.71981 8.303 3.67342 8.233 3.61161 8.17709L1.16101 5.88763C1.08851 5.82098 1.03753 5.73541 1.01423 5.64127C0.990935 5.54714 0.996329 5.44848 1.02976 5.35725C1.06319 5.26603 1.12322 5.18614 1.20259 5.12728C1.28195 5.06842 1.37724 5.0331 1.47691 5.02561L4.83691 4.54362C4.92172 4.53452 5.00258 4.50406 5.07145 4.45527C5.14031 4.40648 5.19477 4.34107 5.22938 4.26555L6.75143 1.29018C6.79288 1.20352 6.85907 1.13016 6.94218 1.07874C7.02529 1.02732 7.12186 1 7.22049 1C7.31912 1 7.41569 1.02732 7.4988 1.07874C7.58191 1.13016 7.6481 1.20352 7.68955 1.29018Z" fill="#F7BF2E" stroke="#F7BF2E" stroke-width="0.960692" stroke-linecap="round" stroke-linejoin="round"/>
<path d="M26.1046 1.29018L27.6266 4.26555C27.6613 4.34107 27.7157 4.40648 27.7846 4.45527C27.8534 4.50406 27.9343 4.53452 28.0191 4.54362L31.3791 5.02561C31.4764 5.03772 31.5681 5.07638 31.6436 5.13707C31.719 5.19777 31.7751 5.278 31.8052 5.36839C31.8353 5.45878 31.8382 5.5556 31.8136 5.64754C31.789 5.73949 31.7379 5.82276 31.6663 5.88763L29.2444 8.21416C29.1826 8.27008 29.1362 8.34007 29.1095 8.41778C29.0827 8.49548 29.0765 8.57843 29.0913 8.65908L29.6752 11.9311C29.6921 12.0251 29.6814 12.1218 29.6443 12.2102C29.6073 12.2986 29.5453 12.3752 29.4655 12.4312C29.3857 12.4873 29.2913 12.5205 29.193 12.5271C29.0947 12.5337 28.9964 12.5134 28.9094 12.4687L25.8844 10.9207C25.807 10.8839 25.7218 10.8648 25.6355 10.8648C25.5492 10.8648 25.4641 10.8839 25.3866 10.9207L22.3617 12.4687C22.2747 12.5134 22.1764 12.5337 22.0781 12.5271C21.9798 12.5205 21.8853 12.4873 21.8055 12.4312C21.7257 12.3752 21.6638 12.2986 21.6267 12.2102C21.5897 12.1218 21.579 12.0251 21.5959 11.9311L22.1798 8.622C22.1946 8.54136 22.1883 8.45841 22.1616 8.3807C22.1348 8.303 22.0885 8.233 22.0266 8.17709L19.5761 5.88763C19.5036 5.82098 19.4526 5.73541 19.4293 5.64127C19.406 5.54714 19.4114 5.44848 19.4448 5.35725C19.4782 5.26603 19.5383 5.18614 19.6176 5.12728C19.697 5.06842 19.7923 5.0331 19.8919 5.02561L23.2519 4.54362C23.3368 4.53452 23.4176 4.50406 23.4865 4.45527C23.5554 4.40648 23.6098 4.34107 23.6444 4.26555L25.1665 1.29018C25.2079 1.20352 25.2741 1.13016 25.3572 1.07874C25.4403 1.02732 25.5369 1 25.6355 1C25.7342 1 25.8307 1.02732 25.9138 1.07874C25.997 1.13016 26.0631 1.20352 26.1046 1.29018Z" fill="#F7BF2E" stroke="#F7BF2E" stroke-width="0.960692" stroke-linecap="round" stroke-linejoin="round"/>
<path d="M44.5196 1.29018L46.0417 4.26555C46.0763 4.34107 46.1307 4.40648 46.1996 4.45527C46.2685 4.50406 46.3493 4.53452 46.4342 4.54362L49.7941 5.02561C49.8914 5.03772 49.9832 5.07638 50.0586 5.13707C50.134 5.19777 50.1901 5.278 50.2202 5.36839C50.2503 5.45878 50.2533 5.5556 50.2287 5.64754C50.2041 5.73949 50.153 5.82276 50.0813 5.88763L47.6595 8.21416C47.5976 8.27008 47.5513 8.34008 47.5245 8.41778C47.4978 8.49548 47.4915 8.57843 47.5063 8.65908L48.0902 11.9311C48.1071 12.0251 48.0964 12.1218 48.0594 12.2102C48.0223 12.2986 47.9604 12.3752 47.8806 12.4312C47.8008 12.4873 47.7063 12.5205 47.608 12.5271C47.5097 12.5337 47.4114 12.5134 47.3244 12.4687L44.2995 10.9207C44.222 10.8839 44.1369 10.8648 44.0506 10.8648C43.9643 10.8648 43.8791 10.8839 43.8017 10.9207L40.7767 12.4687C40.6897 12.5134 40.5914 12.5337 40.4931 12.5271C40.3948 12.5205 40.3004 12.4873 40.2206 12.4312C40.1408 12.3752 40.0788 12.2986 40.0418 12.2102C40.0047 12.1218 39.994 12.0251 40.0109 11.9311L40.5948 8.622C40.6096 8.54136 40.6034 8.45841 40.5766 8.3807C40.5499 8.303 40.5035 8.233 40.4417 8.17709L37.9911 5.88763C37.9186 5.82098 37.8676 5.73541 37.8443 5.64127C37.821 5.54714 37.8264 5.44848 37.8598 5.35725C37.8933 5.26603 37.9533 5.18614 38.0327 5.12728C38.112 5.06842 38.2073 5.0331 38.307 5.02561L41.667 4.54362C41.7518 4.53452 41.8327 4.50406 41.9015 4.45527C41.9704 4.40648 42.0248 4.34107 42.0595 4.26555L43.5815 1.29018C43.623 1.20352 43.6891 1.13016 43.7723 1.07874C43.8554 1.02732 43.9519 1 44.0506 1C44.1492 1 44.2458 1.02732 44.3289 1.07874C44.412 1.13016 44.4782 1.20352 44.5196 1.29018Z" fill="#F7BF2E" stroke="#F7BF2E" stroke-width="0.960692" stroke-linecap="round" stroke-linejoin="round"/>
<path d="M62.9347 1.29018L64.4567 4.26555C64.4913 4.34107 64.5458 4.40648 64.6147 4.45527C64.6835 4.50406 64.7644 4.53452 64.8492 4.54362L68.2092 5.02561C68.3065 5.03772 68.3982 5.07638 68.4736 5.13707C68.5491 5.19777 68.6051 5.278 68.6352 5.36839C68.6654 5.45878 68.6683 5.5556 68.6437 5.64754C68.6191 5.73949 68.568 5.82276 68.4964 5.88763L66.0745 8.21416C66.0127 8.27008 65.9663 8.34007 65.9395 8.41778C65.9128 8.49548 65.9065 8.57843 65.9213 8.65908L66.5053 11.9311C66.5222 12.0251 66.5115 12.1218 66.4744 12.2102C66.4374 12.2986 66.3754 12.3752 66.2956 12.4312C66.2158 12.4873 66.1214 12.5205 66.0231 12.5271C65.9247 12.5337 65.8265 12.5134 65.7394 12.4687L62.7145 10.9207C62.637 10.8839 62.5519 10.8648 62.4656 10.8648C62.3793 10.8648 62.2942 10.8839 62.2167 10.9207L59.1918 12.4687C59.1047 12.5134 59.0065 12.5337 58.9082 12.5271C58.8098 12.5205 58.7154 12.4873 58.6356 12.4312C58.5558 12.3752 58.4939 12.2986 58.4568 12.2102C58.4197 12.1218 58.409 12.0251 58.426 11.9311L59.0099 8.622C59.0247 8.54136 59.0184 8.45841 58.9917 8.3807C58.9649 8.303 58.9185 8.233 58.8567 8.17709L56.4061 5.88763C56.3336 5.82098 56.2826 5.73541 56.2593 5.64127C56.2361 5.54714 56.2414 5.44848 56.2749 5.35725C56.3083 5.26603 56.3683 5.18614 56.4477 5.12728C56.5271 5.06842 56.6224 5.0331 56.722 5.02561L60.082 4.54362C60.1668 4.53452 60.2477 4.50406 60.3166 4.45527C60.3854 4.40648 60.4399 4.34107 60.4745 4.26555L61.9965 1.29018C62.038 1.20352 62.1042 1.13016 62.1873 1.07874C62.2704 1.02732 62.367 1 62.4656 1C62.5642 1 62.6608 1.02732 62.7439 1.07874C62.827 1.13016 62.8932 1.20352 62.9347 1.29018Z" fill="#F7BF2E" stroke="#F7BF2E" stroke-width="0.960692" stroke-linecap="round" stroke-linejoin="round"/>
<path d="M81.3497 1.29018L82.8718 4.26555C82.9064 4.34107 82.9608 4.40648 83.0297 4.45527C83.0986 4.50406 83.1794 4.53452 83.2642 4.54362L86.6242 5.02561C86.7215 5.03772 86.8132 5.07638 86.8887 5.13707C86.9641 5.19777 87.0202 5.278 87.0503 5.36839C87.0804 5.45878 87.0833 5.5556 87.0587 5.64754C87.0341 5.73949 86.983 5.82276 86.9114 5.88763L84.4895 8.21416C84.4277 8.27008 84.3813 8.34008 84.3546 8.41778C84.3278 8.49548 84.3216 8.57843 84.3364 8.65908L84.9203 11.9311C84.9372 12.0251 84.9265 12.1218 84.8895 12.2102C84.8524 12.2986 84.7904 12.3752 84.7106 12.4312C84.6308 12.4873 84.5364 12.5205 84.4381 12.5271C84.3398 12.5337 84.2415 12.5134 84.1545 12.4687L81.1295 10.9207C81.0521 10.8839 80.9669 10.8648 80.8806 10.8648C80.7944 10.8648 80.7092 10.8839 80.6318 10.9207L77.6068 12.4687C77.5198 12.5134 77.4215 12.5337 77.3232 12.5271C77.2249 12.5205 77.1304 12.4873 77.0507 12.4312C76.9709 12.3752 76.9089 12.2986 76.8718 12.2102C76.8348 12.1218 76.8241 12.0251 76.841 11.9311L77.4249 8.622C77.4397 8.54136 77.4335 8.45841 77.4067 8.3807C77.38 8.303 77.3336 8.233 77.2718 8.17709L74.8212 5.88763C74.7487 5.82098 74.6977 5.73541 74.6744 5.64127C74.6511 5.54714 74.6565 5.44848 74.6899 5.35725C74.7233 5.26603 74.7834 5.18614 74.8627 5.12728C74.9421 5.06842 75.0374 5.0331 75.1371 5.02561L78.4971 4.54362C78.5819 4.53452 78.6627 4.50406 78.7316 4.45527C78.8005 4.40648 78.8549 4.34107 78.8895 4.26555L80.4116 1.29018C80.453 1.20352 80.5192 1.13016 80.6023 1.07874C80.6854 1.02732 80.782 1 80.8806 1C80.9793 1 81.0758 1.02732 81.159 1.07874C81.2421 1.13016 81.3083 1.20352 81.3497 1.29018Z" fill="#F7BF2E" stroke="#F7BF2E" stroke-width="0.960692" stroke-linecap="round" stroke-linejoin="round"/>
</svg>
