<svg width="28" height="28" viewBox="0 0 28 28" fill="none" xmlns="http://www.w3.org/2000/svg">
<path d="M9.44961 4.9C8.61418 4.9 7.81296 5.23187 7.22222 5.82261C6.63148 6.41335 6.29961 7.21457 6.29961 8.05C6.29961 8.88543 6.63148 9.68665 7.22222 10.2774C7.81296 10.8681 8.61418 11.2 9.44961 11.2C10.285 11.2 11.0863 10.8681 11.677 10.2774C12.2677 9.68665 12.5996 8.88543 12.5996 8.05C12.5996 7.21457 12.2677 6.41335 11.677 5.82261C11.0863 5.23187 10.285 4.9 9.44961 4.9ZM4.89961 8.05C4.89961 6.84326 5.37898 5.68595 6.23227 4.83266C7.08556 3.97937 8.24287 3.5 9.44961 3.5C10.6563 3.5 11.8137 3.97937 12.6669 4.83266C13.5202 5.68595 13.9996 6.84326 13.9996 8.05C13.9996 9.25673 13.5202 10.414 12.6669 11.2673C11.8137 12.1206 10.6563 12.6 9.44961 12.6C8.24287 12.6 7.08556 12.1206 6.23227 11.2673C5.37898 10.414 4.89961 9.25673 4.89961 8.05ZM20.2996 12.6C19.3714 12.6 18.4811 12.2313 17.8247 11.5749C17.1684 10.9185 16.7996 10.0283 16.7996 9.1C16.7996 8.17174 17.1684 7.2815 17.8247 6.62513C18.4811 5.96875 19.3714 5.6 20.2996 5.6C21.2279 5.6 22.1181 5.96875 22.7745 6.62513C23.4309 7.2815 23.7996 8.17174 23.7996 9.1C23.7996 10.0283 23.4309 10.9185 22.7745 11.5749C22.1181 12.2313 21.2279 12.6 20.2996 12.6ZM15.7356 14.602C15.2417 14.2108 14.6297 13.9986 13.9996 14H4.89961C4.157 14 3.44481 14.295 2.91971 14.8201C2.39461 15.3452 2.09961 16.0574 2.09961 16.8V16.9176C2.10103 16.9995 2.10664 17.0813 2.11641 17.1626C2.21552 18.0699 2.53778 18.9386 3.05441 19.691C4.03581 21.112 5.93141 22.4 9.44961 22.4C10.6914 22.4 11.7316 22.239 12.5996 21.9702V20.4876C11.81 20.797 10.7838 21 9.44961 21C6.31781 21 4.88841 19.8814 4.20661 18.8958C3.82467 18.3388 3.58527 17.6965 3.50941 17.0254C3.50561 16.9867 3.50281 16.948 3.50101 16.9092L3.49961 16.8854V16.8C3.49961 16.4287 3.64711 16.0726 3.90966 15.8101C4.17221 15.5475 4.52831 15.4 4.89961 15.4H13.9996C14.2964 15.4 14.5722 15.4924 14.7976 15.6492C15.0076 15.5652 15.2302 15.5008 15.4584 15.4588C15.5144 15.1578 15.6082 14.8694 15.7356 14.602ZM20.2996 7C19.7427 7 19.2085 7.22125 18.8147 7.61508C18.4209 8.0089 18.1996 8.54305 18.1996 9.1C18.1996 9.65695 18.4209 10.1911 18.8147 10.5849C19.2085 10.9788 19.7427 11.2 20.2996 11.2C20.8566 11.2 21.3907 10.9788 21.7845 10.5849C22.1784 10.1911 22.3996 9.65695 22.3996 9.1C22.3996 8.54305 22.1784 8.0089 21.7845 7.61508C21.3907 7.22125 20.8566 7 20.2996 7ZM16.7996 16.8V16.1C16.7996 15.543 17.0209 15.0089 17.4147 14.6151C17.8085 14.2212 18.3427 14 18.8996 14H21.6996C22.2566 14 22.7907 14.2212 23.1845 14.6151C23.5784 15.0089 23.7996 15.543 23.7996 16.1V16.8H24.4996C25.0566 16.8 25.5907 17.0212 25.9845 17.4151C26.3784 17.8089 26.5996 18.343 26.5996 18.9V21H23.7996V20.3C23.7996 20.1143 23.7259 19.9363 23.5946 19.805C23.4633 19.6737 23.2853 19.6 23.0996 19.6C22.914 19.6 22.7359 19.6737 22.6046 19.805C22.4734 19.9363 22.3996 20.1143 22.3996 20.3V21H18.1996V20.3C18.1996 20.1143 18.1259 19.9363 17.9946 19.805C17.8633 19.6737 17.6853 19.6 17.4996 19.6C17.314 19.6 17.1359 19.6737 17.0046 19.805C16.8734 19.9363 16.7996 20.1143 16.7996 20.3V21H13.9996V18.9C13.9996 18.343 14.2209 17.8089 14.6147 17.4151C15.0085 17.0212 15.5427 16.8 16.0996 16.8H16.7996ZM18.1996 16.1V16.8H22.3996V16.1C22.3996 15.9143 22.3259 15.7363 22.1946 15.605C22.0633 15.4737 21.8853 15.4 21.6996 15.4H18.8996C18.714 15.4 18.5359 15.4737 18.4046 15.605C18.2734 15.7363 18.1996 15.9143 18.1996 16.1ZM23.7996 22.4H26.5996V24.5C26.5996 25.057 26.3784 25.5911 25.9845 25.9849C25.5907 26.3787 25.0566 26.6 24.4996 26.6H16.0996C15.5427 26.6 15.0085 26.3787 14.6147 25.9849C14.2209 25.5911 13.9996 25.057 13.9996 24.5V22.4H16.7996V23.1C16.7996 23.2857 16.8734 23.4637 17.0046 23.595C17.1359 23.7262 17.314 23.8 17.4996 23.8C17.6853 23.8 17.8633 23.7262 17.9946 23.595C18.1259 23.4637 18.1996 23.2857 18.1996 23.1V22.4H22.3996V23.1C22.3996 23.2857 22.4734 23.4637 22.6046 23.595C22.7359 23.7262 22.914 23.8 23.0996 23.8C23.2853 23.8 23.4633 23.7262 23.5946 23.595C23.7259 23.4637 23.7996 23.2857 23.7996 23.1V22.4Z" fill="white"/>
</svg>
