<svg width="40" height="31" viewBox="0 0 40 31" fill="none" xmlns="http://www.w3.org/2000/svg">
<path d="M40 3.66966C38.528 4.28965 36.948 4.71591 35.288 4.90191C36.984 3.93316 38.28 2.39866 38.896 0.573538C37.2799 1.48597 35.5165 2.12788 33.68 2.47228C32.9075 1.68788 31.9782 1.06414 30.9487 0.639096C29.9192 0.21405 28.8111 -0.00338878 27.692 3.99261e-05C23.16 3.99261e-05 19.488 3.50691 19.488 7.82753C19.488 8.43977 19.56 9.03652 19.7 9.61002C16.4493 9.46048 13.2665 8.65617 10.3546 7.24839C7.44271 5.84062 4.8657 3.8603 2.788 1.43379C2.05825 2.6238 1.67404 3.98275 1.676 5.3669C1.676 8.0794 3.128 10.4819 5.328 11.8808C4.02578 11.8412 2.75144 11.5054 1.608 10.9004V10.9973C1.62036 12.8164 2.2832 14.5752 3.48367 15.9741C4.68414 17.3731 6.34801 18.3257 8.192 18.6698C6.98143 18.9798 5.71477 19.0249 4.484 18.8015C5.02051 20.3665 6.0467 21.7308 7.42009 22.7051C8.79349 23.6793 10.4459 24.2151 12.148 24.2381C9.22785 26.418 5.64256 27.5958 1.956 27.5861C1.296 27.5861 0.644 27.5474 0 27.4776C3.76189 29.7843 8.12385 31.0061 12.576 31C27.672 31 35.924 19.0728 35.924 8.72652L35.896 7.71127C37.5052 6.61574 38.8957 5.24633 40 3.66966Z" fill="white"/>
</svg>
