<svg width="41" height="31" viewBox="0 0 41 31" fill="none" xmlns="http://www.w3.org/2000/svg">
<path d="M40.5 3.66966C39.028 4.28965 37.448 4.71591 35.788 4.90191C37.484 3.93316 38.78 2.39866 39.396 0.573538C37.7799 1.48597 36.0165 2.12788 34.18 2.47228C33.4075 1.68788 32.4782 1.06414 31.4487 0.639096C30.4192 0.21405 29.3111 -0.00338878 28.192 3.99261e-05C23.66 3.99261e-05 19.988 3.50691 19.988 7.82753C19.988 8.43977 20.06 9.03652 20.2 9.61002C16.9493 9.46048 13.7665 8.65617 10.8546 7.24839C7.94271 5.84062 5.3657 3.8603 3.288 1.43379C2.55825 2.6238 2.17404 3.98275 2.176 5.3669C2.176 8.0794 3.628 10.4819 5.828 11.8808C4.52578 11.8412 3.25144 11.5054 2.108 10.9004V10.9973C2.12036 12.8164 2.7832 14.5752 3.98367 15.9741C5.18414 17.3731 6.84801 18.3257 8.692 18.6698C7.48143 18.9798 6.21477 19.0249 4.984 18.8015C5.52051 20.3665 6.5467 21.7308 7.92009 22.7051C9.29349 23.6793 10.9459 24.2151 12.648 24.2381C9.72785 26.418 6.14256 27.5958 2.456 27.5861C1.796 27.5861 1.144 27.5474 0.5 27.4776C4.26189 29.7843 8.62385 31.0061 13.076 31C28.172 31 36.424 19.0728 36.424 8.72652L36.396 7.71127C38.0052 6.61574 39.3957 5.24633 40.5 3.66966Z" fill="#9A9A9A"/>
</svg>
