<svg width="289" height="152" viewBox="0 0 289 152" fill="none" xmlns="http://www.w3.org/2000/svg">
<g clip-path="url(#clip0_0_6)">
<path d="M0 0H289V152H0V0Z" fill="#012169"/>
<path d="M33.8672 0L144.048 57.3167L253.778 0H289V19.6333L180.625 76.3167L289 132.683V152H252.875L144.5 95.3167L36.5766 152H0V133L107.923 76.6333L0 20.2667V0H33.8672Z" fill="white"/>
<path d="M191.462 88.9833L289 139.333V152L166.627 88.9833H191.462ZM108.375 95.3167L111.084 106.4L24.3844 152H0L108.375 95.3167ZM289 0V0.95L176.561 60.4833L177.464 46.55L266.422 0H289ZM0 0L107.923 55.7333H80.8297L0 13.3V0Z" fill="#C8102E"/>
<path d="M108.827 0V152H181.077V0H108.827ZM0 50.6667V101.333H289V50.6667H0Z" fill="white"/>
<path d="M0 61.1167V91.5167H289V61.1167H0ZM123.277 0V152H166.627V0H123.277Z" fill="#C8102E"/>
</g>
<defs>
<clipPath id="clip0_0_6">
<rect width="289" height="152" fill="white"/>
</clipPath>
</defs>
</svg>
