<svg width="47" height="37" viewBox="0 0 47 37" fill="none" xmlns="http://www.w3.org/2000/svg">
<g clip-path="url(#clip0_0_30)" filter="url(#filter0_d_0_30)">
<path d="M8.38695 6.70961H38.613V26.8603H8.38695" fill="#BD3D44"/>
<path d="M8.38695 9.03118H38.613H8.38695ZM8.38695 12.1252H38.613H8.38695ZM8.38695 15.2317H38.613H8.38695ZM8.38695 18.3383H38.613H8.38695ZM8.38695 21.4449H38.613H8.38695ZM8.38695 24.5514H38.613H8.38695Z" fill="#0E0E0E"/>
<path d="M8.38695 9.03118H38.613M8.38695 12.1252H38.613M8.38695 15.2317H38.613M8.38695 18.3383H38.613M8.38695 21.4449H38.613M8.38695 24.5514H38.613" stroke="white" stroke-width="1.925"/>
<path d="M8.38695 6.70961H25.6158V17.5616H8.38695" fill="#192F5D"/>
</g>
<defs>
<filter id="filter0_d_0_30" x="-0.000106656" y="-3.62725e-05" width="47.0002" height="36.9248" filterUnits="userSpaceOnUse" color-interpolation-filters="sRGB">
<feFlood flood-opacity="0" result="BackgroundImageFix"/>
<feColorMatrix in="SourceAlpha" type="matrix" values="0 0 0 0 0 0 0 0 0 0 0 0 0 0 0 0 0 0 127 0" result="hardAlpha"/>
<feOffset dy="1.66486"/>
<feGaussianBlur stdDeviation="4.16216"/>
<feComposite in2="hardAlpha" operator="out"/>
<feColorMatrix type="matrix" values="0 0 0 0 0.719767 0 0 0 0 0.731331 0 0 0 0 0.755 0 0 0 1 0"/>
<feBlend mode="normal" in2="BackgroundImageFix" result="effect1_dropShadow_0_30"/>
<feBlend mode="normal" in="SourceGraphic" in2="effect1_dropShadow_0_30" result="shape"/>
</filter>
<clipPath id="clip0_0_30">
<rect width="30" height="20" fill="white" transform="translate(8.38695 6.70961) scale(1.00754)"/>
</clipPath>
</defs>
</svg>
