<svg width="63" height="63" viewBox="0 0 63 63" fill="none" xmlns="http://www.w3.org/2000/svg">
<path d="M15.327 26.6055C9.54812 27.9798 5.25 33.1753 5.25 39.3748C5.25 46.6235 11.1263 52.4998 18.375 52.4998C19.6185 52.4998 20.8215 52.3269 21.9614 52.0038" stroke="#C6C8CC" stroke-width="5.25" stroke-linecap="round" stroke-linejoin="round"/>
<path d="M47.3219 26.6055C53.1009 27.9798 57.3989 33.1753 57.3989 39.3748C57.3989 46.6235 51.5227 52.4998 44.2739 52.4998C43.0304 52.4998 41.8274 52.3269 40.6875 52.0038" stroke="#C6C8CC" stroke-width="5.25" stroke-linecap="round" stroke-linejoin="round"/>
<path d="M47.25 26.25C47.25 17.5515 40.1985 10.5 31.5 10.5C22.8015 10.5 15.75 17.5515 15.75 26.25" stroke="#C6C8CC" stroke-width="5.25" stroke-linecap="round" stroke-linejoin="round"/>
<path d="M22.3984 36.5945L31.5 27.4629L40.8606 36.7507" stroke="#C6C8CC" stroke-width="5.25" stroke-linecap="round" stroke-linejoin="round"/>
<path d="M31.5 49.8744V32.1055" stroke="#C6C8CC" stroke-width="5.25" stroke-linecap="round" stroke-linejoin="round"/>
</svg>
