<svg width="9" height="12" viewBox="0 0 9 12" fill="none" xmlns="http://www.w3.org/2000/svg">
<path d="M4.19999 5.69999C3.80217 5.69999 3.42064 5.54196 3.13933 5.26065C2.85803 4.97935 2.7 4.59782 2.7 4.19999C2.7 3.80217 2.85803 3.42064 3.13933 3.13933C3.42064 2.85803 3.80217 2.7 4.19999 2.7C4.59782 2.7 4.97935 2.85803 5.26065 3.13933C5.54196 3.42064 5.69999 3.80217 5.69999 4.19999C5.69999 4.39698 5.66119 4.59203 5.58581 4.77402C5.51043 4.95601 5.39994 5.12136 5.26065 5.26065C5.12136 5.39994 4.95601 5.51043 4.77402 5.58581C4.59203 5.66119 4.39698 5.69999 4.19999 5.69999ZM4.19999 0C3.08609 0 2.0178 0.442498 1.23015 1.23015C0.442498 2.0178 0 3.08609 0 4.19999C0 7.34999 4.19999 12 4.19999 12C4.19999 12 8.39999 7.34999 8.39999 4.19999C8.39999 3.08609 7.95749 2.0178 7.16984 1.23015C6.38218 0.442498 5.3139 0 4.19999 0Z" fill="white"/>
</svg>
