<svg width="20" height="20" viewBox="0 0 20 20" fill="none" xmlns="http://www.w3.org/2000/svg">
<path d="M0.00142809 0.714133C0.00142809 0.524733 0.0766632 0.34309 0.210582 0.209164C0.344501 0.0752386 0.526135 0 0.715525 0H1.34107C2.37937 0 2.97636 0.675569 3.32198 1.34971C3.55763 1.81104 3.72759 2.37378 3.86898 2.86224H18.5722C18.7929 2.86231 19.0106 2.91352 19.2081 3.01185C19.4057 3.11017 19.5778 3.25295 19.7109 3.42897C19.844 3.60499 19.9345 3.80947 19.9754 4.02635C20.0162 4.24323 20.0062 4.46663 19.9462 4.679L17.8096 12.2131C17.6396 12.8108 17.2794 13.3369 16.7835 13.7114C16.2876 14.0859 15.6831 14.2884 15.0617 14.2884H7.80793C7.18135 14.2886 6.57208 14.0827 6.07399 13.7026C5.5759 13.3224 5.21663 12.789 5.05152 12.1845L4.13462 8.82097C4.12936 8.80589 4.1246 8.79065 4.12034 8.77526L2.64787 3.78062L2.50505 3.29929C2.36223 2.80511 2.23655 2.36806 2.04803 2.001C1.82095 1.55824 1.61243 1.42969 1.33965 1.42969H0.714097C0.524707 1.42969 0.343073 1.35445 0.209154 1.22053C0.0752348 1.0866 0 0.904961 0 0.715561M5.49712 8.38963L6.42973 11.8118C6.51241 12.1139 6.69211 12.3804 6.94114 12.5703C7.19017 12.7603 7.49474 12.8631 7.80793 12.863H15.0632C15.3737 12.8626 15.6757 12.7611 15.9234 12.5737C16.171 12.3864 16.3509 12.1234 16.4357 11.8246L18.5722 4.29051H4.29029L5.49712 8.38963ZM10.0031 17.8576C10.0031 18.4258 9.77736 18.9707 9.37561 19.3725C8.97385 19.7743 8.42895 20 7.86078 20C7.29261 20 6.74771 19.7743 6.34595 19.3725C5.94419 18.9707 5.71849 18.4258 5.71849 17.8576C5.71849 17.2894 5.94419 16.7445 6.34595 16.3427C6.74771 15.9409 7.29261 15.7152 7.86078 15.7152C8.42895 15.7152 8.97385 15.9409 9.37561 16.3427C9.77736 16.7445 10.0031 17.2894 10.0031 17.8576ZM8.57487 17.8576C8.57487 17.6682 8.49964 17.4866 8.36572 17.3526C8.2318 17.2187 8.05017 17.1435 7.86078 17.1435C7.67139 17.1435 7.48975 17.2187 7.35583 17.3526C7.22192 17.4866 7.14668 17.6682 7.14668 17.8576C7.14668 18.047 7.22192 18.2286 7.35583 18.3626C7.48975 18.4965 7.67139 18.5717 7.86078 18.5717C8.05017 18.5717 8.2318 18.4965 8.36572 18.3626C8.49964 18.2286 8.57487 18.047 8.57487 17.8576ZM17.144 17.8576C17.144 18.4258 16.9183 18.9707 16.5166 19.3725C16.1148 19.7743 15.5699 20 15.0017 20C14.4336 20 13.8887 19.7743 13.4869 19.3725C13.0852 18.9707 12.8595 18.4258 12.8595 17.8576C12.8595 17.2894 13.0852 16.7445 13.4869 16.3427C13.8887 15.9409 14.4336 15.7152 15.0017 15.7152C15.5699 15.7152 16.1148 15.9409 16.5166 16.3427C16.9183 16.7445 17.144 17.2894 17.144 17.8576ZM15.7158 17.8576C15.7158 17.6682 15.6406 17.4866 15.5067 17.3526C15.3728 17.2187 15.1911 17.1435 15.0017 17.1435C14.8124 17.1435 14.6307 17.2187 14.4968 17.3526C14.3629 17.4866 14.2876 17.6682 14.2876 17.8576C14.2876 18.047 14.3629 18.2286 14.4968 18.3626C14.6307 18.4965 14.8124 18.5717 15.0017 18.5717C15.1911 18.5717 15.3728 18.4965 15.5067 18.3626C15.6406 18.2286 15.7158 18.047 15.7158 17.8576Z" fill="#0E0E0E"/>
</svg>
