<svg width="13" height="6" viewBox="0 0 13 6" fill="none" xmlns="http://www.w3.org/2000/svg">
<path d="M0.902338 0.134519L6.50057 4.91646L12.0988 0.134519C12.1988 0.0489095 12.3331 0.000981443 12.4729 0.000981443C12.6127 0.000981443 12.747 0.0489095 12.847 0.134519C12.8955 0.176101 12.9339 0.225731 12.9602 0.280506C12.9865 0.335281 13 0.394097 13 0.453511C13 0.512925 12.9865 0.571742 12.9602 0.626516C12.9339 0.681291 12.8955 0.730922 12.847 0.772503L6.89149 5.86067C6.7869 5.95 6.64663 6 6.50057 6C6.35452 6 6.21425 5.95 6.10966 5.86067L0.154115 0.773485C0.105342 0.731873 0.066576 0.68212 0.0401068 0.627164C0.0136375 0.572208 0 0.513162 0 0.453511C0 0.393861 0.0136375 0.334815 0.0401068 0.279859C0.066576 0.224903 0.105342 0.17515 0.154115 0.133538C0.254137 0.0479276 0.388409 0 0.528227 0C0.668045 0 0.802316 0.0489095 0.902338 0.134519Z" fill="#606060"/>
</svg>
