<svg width="34" height="44" viewBox="0 0 34 44" fill="none" xmlns="http://www.w3.org/2000/svg">
<path fill-rule="evenodd" clip-rule="evenodd" d="M19.4285 0H4.85714C3.56894 0 2.33351 0.511732 1.42262 1.42262C0.511732 2.33351 0 3.56894 0 4.85714V38.8571C0 40.1453 0.511732 41.3807 1.42262 42.2916C2.33351 43.2025 3.56894 43.7142 4.85714 43.7142H29.1428C30.431 43.7142 31.6664 43.2025 32.5773 42.2916C33.4882 41.3807 34 40.1453 34 38.8571V14.5714H25.5C23.8897 14.5714 22.3454 13.9317 21.2068 12.7931C20.0682 11.6545 19.4285 10.1102 19.4285 8.49999V0ZM33.558 12.1428C33.3146 11.6116 32.9772 11.1287 32.5622 10.7173L23.1588 1.40857C22.7781 1.03104 22.3374 0.719201 21.8547 0.485714V8.49999C21.8547 8.97858 21.949 9.45248 22.1322 9.89461C22.3154 10.3367 22.584 10.7384 22.9225 11.0767C23.261 11.415 23.6629 11.6833 24.1052 11.8662C24.5474 12.0492 25.0214 12.1432 25.5 12.1428H33.558Z" fill="#EDF0F7"/>
<mask id="path-2-inside-1_0_12" fill="white">
<path d="M12.2778 32.624V22.7538C12.2777 22.5475 12.3413 22.345 12.462 22.1668C12.5828 21.9886 12.7564 21.8411 12.965 21.7394C13.1737 21.6378 13.4101 21.5855 13.6499 21.588C13.8898 21.5905 14.1245 21.6477 14.3303 21.7537L23.8962 26.6888C24.0972 26.7923 24.2637 26.9388 24.3792 27.1141C24.4948 27.2894 24.5555 27.4874 24.5555 27.6889C24.5555 27.8904 24.4948 28.0884 24.3792 28.2637C24.2637 28.439 24.0972 28.5855 23.8962 28.689L14.3303 33.6241C14.1243 33.7302 13.8893 33.7874 13.6492 33.7898C13.4092 33.7922 13.1726 33.7398 12.9639 33.6378C12.7551 33.5358 12.5816 33.388 12.461 33.2095C12.3405 33.031 12.2772 32.8281 12.2778 32.6217"/>
</mask>
<path d="M12.2778 32.624V22.7538C12.2777 22.5475 12.3413 22.345 12.462 22.1668C12.5828 21.9886 12.7564 21.8411 12.965 21.7394C13.1737 21.6378 13.4101 21.5855 13.6499 21.588C13.8898 21.5905 14.1245 21.6477 14.3303 21.7537L23.8962 26.6888C24.0972 26.7923 24.2637 26.9388 24.3792 27.1141C24.4948 27.2894 24.5555 27.4874 24.5555 27.6889C24.5555 27.8904 24.4948 28.0884 24.3792 28.2637C24.2637 28.439 24.0972 28.5855 23.8962 28.689L14.3303 33.6241C14.1243 33.7302 13.8893 33.7874 13.6492 33.7898C13.4092 33.7922 13.1726 33.7398 12.9639 33.6378C12.7551 33.5358 12.5816 33.388 12.461 33.2095C12.3405 33.031 12.2772 32.8281 12.2778 32.6217" fill="#0040C3"/>
<path d="M12.2778 22.7538H13.2222L13.2222 22.7535L12.2778 22.7538ZM14.3303 21.7537L14.7633 20.9144L14.7628 20.9141L14.3303 21.7537ZM23.8962 26.6888L23.4632 27.5281L23.4639 27.5286L23.8962 26.6888ZM23.8962 28.689L23.4639 27.8493L23.4632 27.8497L23.8962 28.689ZM14.3303 33.6241L14.7628 34.4637L14.7633 34.4635L14.3303 33.6241ZM13.2222 32.624V22.7538H11.3333V32.624H13.2222ZM13.2222 22.7535C13.2222 22.7448 13.2243 22.7256 13.2439 22.6966L11.6802 21.637C11.4584 21.9644 11.3332 22.3502 11.3333 22.754L13.2222 22.7535ZM13.2439 22.6966C13.2647 22.6658 13.3065 22.6236 13.3787 22.5885L12.5514 20.8904C12.2062 21.0586 11.9008 21.3113 11.6802 21.637L13.2439 22.6966ZM13.3787 22.5885C13.4511 22.5532 13.5418 22.5314 13.6401 22.5324L13.6598 20.6436C13.2783 20.6396 12.8964 20.7223 12.5514 20.8904L13.3787 22.5885ZM13.6401 22.5324C13.7383 22.5334 13.8276 22.5571 13.8978 22.5933L14.7628 20.9141C14.4215 20.7382 14.0412 20.6476 13.6598 20.6436L13.6401 22.5324ZM13.8973 22.593L23.4632 27.5281L24.3292 25.8495L14.7633 20.9144L13.8973 22.593ZM23.4639 27.5286C23.5322 27.5637 23.5713 27.6045 23.5907 27.634L25.1677 26.5943C24.956 26.2731 24.6622 26.0209 24.3284 25.8491L23.4639 27.5286ZM23.5907 27.634C23.6091 27.6618 23.6111 27.6803 23.6111 27.6889H25.5C25.5 27.2946 25.3805 26.917 25.1677 26.5943L23.5907 27.634ZM23.6111 27.6889C23.6111 27.6975 23.6091 27.716 23.5907 27.7438L25.1677 28.7835C25.3805 28.4608 25.5 28.0832 25.5 27.6889H23.6111ZM23.5907 27.7438C23.5713 27.7733 23.5322 27.8141 23.4639 27.8493L24.3284 29.5287C24.6622 29.3569 24.956 29.1047 25.1677 28.7835L23.5907 27.7438ZM23.4632 27.8497L13.8973 32.7848L14.7633 34.4635L24.3292 29.5283L23.4632 27.8497ZM13.8978 32.7846C13.8276 32.8207 13.7381 32.8444 13.6398 32.8454L13.6587 34.7342C14.0405 34.7304 14.4211 34.6397 14.7628 34.4637L13.8978 32.7846ZM13.6398 32.8454C13.5415 32.8464 13.4507 32.8245 13.3783 32.7892L12.5494 34.4864C12.8946 34.655 13.2768 34.738 13.6587 34.7342L13.6398 32.8454ZM13.3783 32.7892C13.3062 32.7539 13.2645 32.7117 13.2437 32.681L11.6783 33.738C11.8987 34.0644 12.204 34.3178 12.5494 34.4864L13.3783 32.7892ZM13.2437 32.681C13.2242 32.652 13.2222 32.6329 13.2222 32.6241L11.3333 32.6193C11.3323 33.0234 11.4568 33.4099 11.6783 33.738L13.2437 32.681Z" fill="white" mask="url(#path-2-inside-1_0_12)"/>
</svg>
