<svg width="34" height="44" viewBox="0 0 34 44" fill="none" xmlns="http://www.w3.org/2000/svg">
<path fill-rule="evenodd" clip-rule="evenodd" d="M19.4285 0H4.85714C3.56894 0 2.33351 0.511732 1.42262 1.42262C0.511732 2.33351 0 3.56894 0 4.85714V38.8571C0 40.1453 0.511732 41.3807 1.42262 42.2916C2.33351 43.2025 3.56894 43.7142 4.85714 43.7142H29.1428C30.431 43.7142 31.6664 43.2025 32.5773 42.2916C33.4882 41.3807 34 40.1453 34 38.8571V14.5714H25.5C23.8897 14.5714 22.3454 13.9317 21.2068 12.7931C20.0682 11.6545 19.4285 10.1102 19.4285 8.49999V0ZM33.558 12.1428C33.3146 11.6116 32.9772 11.1287 32.5622 10.7173L23.1588 1.40857C22.7781 1.03104 22.3374 0.719201 21.8547 0.485714V8.49999C21.8547 8.97858 21.949 9.45248 22.1322 9.89461C22.3154 10.3367 22.584 10.7384 22.9225 11.0767C23.261 11.415 23.6629 11.6833 24.1052 11.8662C24.5474 12.0492 25.0214 12.1432 25.5 12.1428H33.558Z" fill="#EDF0F7"/>
<mask id="path-2-inside-1_0_12" fill="white">
<path d="M12.2778 32.6243V22.754C12.2777 22.5478 12.3413 22.3452 12.462 22.167C12.5828 21.9888 12.7564 21.8414 12.965 21.7397C13.1737 21.638 13.4101 21.5857 13.6499 21.5882C13.8898 21.5908 14.1245 21.6479 14.3303 21.7539L23.8962 26.6891C24.0972 26.7926 24.2637 26.9391 24.3792 27.1144C24.4948 27.2896 24.5555 27.4877 24.5555 27.6892C24.5555 27.8906 24.4948 28.0887 24.3792 28.2639C24.2637 28.4392 24.0972 28.5857 23.8962 28.6892L14.3303 33.6244C14.1243 33.7305 13.8893 33.7877 13.6492 33.7901C13.4092 33.7925 13.1726 33.74 12.9639 33.638C12.7551 33.5361 12.5816 33.3883 12.461 33.2098C12.3405 33.0312 12.2772 32.8284 12.2778 32.622"/>
</mask>
<path d="M12.2778 32.6243V22.754C12.2777 22.5478 12.3413 22.3452 12.462 22.167C12.5828 21.9888 12.7564 21.8414 12.965 21.7397C13.1737 21.638 13.4101 21.5857 13.6499 21.5882C13.8898 21.5908 14.1245 21.6479 14.3303 21.7539L23.8962 26.6891C24.0972 26.7926 24.2637 26.9391 24.3792 27.1144C24.4948 27.2896 24.5555 27.4877 24.5555 27.6892C24.5555 27.8906 24.4948 28.0887 24.3792 28.2639C24.2637 28.4392 24.0972 28.5857 23.8962 28.6892L14.3303 33.6244C14.1243 33.7305 13.8893 33.7877 13.6492 33.7901C13.4092 33.7925 13.1726 33.74 12.9639 33.638C12.7551 33.5361 12.5816 33.3883 12.461 33.2098C12.3405 33.0312 12.2772 32.8284 12.2778 32.622" fill="#0040C3"/>
<path d="M12.2778 22.754H13.2222L13.2222 22.7538L12.2778 22.754ZM14.3303 21.7539L14.7633 20.9146L14.7628 20.9144L14.3303 21.7539ZM23.8962 26.6891L23.4632 27.5284L23.4639 27.5288L23.8962 26.6891ZM23.8962 28.6892L23.4639 27.8495L23.4632 27.8499L23.8962 28.6892ZM14.3303 33.6244L14.7628 34.4639L14.7633 34.4637L14.3303 33.6244ZM13.2222 32.6243V22.754H11.3333V32.6243H13.2222ZM13.2222 22.7538C13.2222 22.7451 13.2243 22.7258 13.2439 22.6968L11.6802 21.6373C11.4584 21.9646 11.3332 22.3505 11.3333 22.7542L13.2222 22.7538ZM13.2439 22.6968C13.2647 22.6661 13.3065 22.6239 13.3787 22.5887L12.5514 20.8907C12.2062 21.0589 11.9008 21.3116 11.6802 21.6373L13.2439 22.6968ZM13.3787 22.5887C13.4511 22.5534 13.5418 22.5316 13.6401 22.5326L13.6598 20.6439C13.2783 20.6399 12.8964 20.7226 12.5514 20.8907L13.3787 22.5887ZM13.6401 22.5326C13.7383 22.5337 13.8276 22.5574 13.8978 22.5935L14.7628 20.9144C14.4215 20.7385 14.0412 20.6478 13.6598 20.6439L13.6401 22.5326ZM13.8973 22.5933L23.4632 27.5284L24.3292 25.8497L14.7633 20.9146L13.8973 22.5933ZM23.4639 27.5288C23.5322 27.5639 23.5713 27.6048 23.5907 27.6342L25.1677 26.5945C24.956 26.2734 24.6622 26.0212 24.3284 25.8493L23.4639 27.5288ZM23.5907 27.6342C23.6091 27.662 23.6111 27.6805 23.6111 27.6892H25.5C25.5 27.2948 25.3805 26.9172 25.1677 26.5945L23.5907 27.6342ZM23.6111 27.6892C23.6111 27.6978 23.6091 27.7163 23.5907 27.7441L25.1677 28.7838C25.3805 28.4611 25.5 28.0835 25.5 27.6892H23.6111ZM23.5907 27.7441C23.5713 27.7735 23.5322 27.8144 23.4639 27.8495L24.3284 29.529C24.6622 29.3571 24.956 29.1049 25.1677 28.7838L23.5907 27.7441ZM23.4632 27.8499L13.8973 32.785L14.7633 34.4637L24.3292 29.5286L23.4632 27.8499ZM13.8978 32.7848C13.8276 32.821 13.7381 32.8447 13.6398 32.8457L13.6587 34.7345C14.0405 34.7306 14.4211 34.64 14.7628 34.4639L13.8978 32.7848ZM13.6398 32.8457C13.5415 32.8466 13.4507 32.8247 13.3783 32.7894L12.5494 34.4867C12.8946 34.6553 13.2768 34.7383 13.6587 34.7345L13.6398 32.8457ZM13.3783 32.7894C13.3062 32.7542 13.2645 32.7119 13.2437 32.6812L11.6783 33.7383C11.8987 34.0646 12.204 34.318 12.5494 34.4867L13.3783 32.7894ZM13.2437 32.6812C13.2242 32.6523 13.2222 32.6331 13.2222 32.6244L11.3333 32.6195C11.3323 33.0237 11.4568 33.4102 11.6783 33.7383L13.2437 32.6812Z" fill="white" mask="url(#path-2-inside-1_0_12)"/>
</svg>
