<svg width="17" height="13" viewBox="0 0 17 13" fill="none" xmlns="http://www.w3.org/2000/svg">
<g id="Vector">
<path id="Vector_2" d="M6.8 9.07143L11.2115 6.5L6.8 3.92857V9.07143ZM16.626 2.36C16.7365 2.76286 16.813 3.30286 16.864 3.98857C16.9235 4.67429 16.949 5.26571 16.949 5.78L17 6.5C17 8.37714 16.864 9.75714 16.626 10.64C16.4135 11.4114 15.9205 11.9086 15.1555 12.1229C14.756 12.2343 14.025 12.3114 12.903 12.3629C11.798 12.4229 10.7865 12.4486 9.8515 12.4486L8.5 12.5C4.9385 12.5 2.72 12.3629 1.8445 12.1229C1.0795 11.9086 0.5865 11.4114 0.374 10.64C0.2635 10.2371 0.187 9.69714 0.136 9.01143C0.0765001 8.32571 0.051 7.73429 0.051 7.22L0 6.5C0 4.62286 0.136 3.24286 0.374 2.36C0.5865 1.58857 1.0795 1.09143 1.8445 0.877143C2.244 0.765714 2.975 0.688571 4.097 0.637143C5.202 0.577143 6.2135 0.551429 7.1485 0.551429L8.5 0.5C12.0615 0.5 14.28 0.637143 15.1555 0.877143C15.9205 1.09143 16.4135 1.58857 16.626 2.36Z" fill="#0040C3"/>
</g>
</svg>
