<svg width="41" height="27" viewBox="0 0 41 27" fill="none" xmlns="http://www.w3.org/2000/svg">
<path d="M16.5 18.7755L26.88 13.1429L16.5 7.5102V18.7755ZM39.62 4.07429C39.88 4.95674 40.06 6.13959 40.18 7.64163C40.32 9.14367 40.38 10.4392 40.38 11.5657L40.5 13.1429C40.5 17.2547 40.18 20.2776 39.62 22.2114C39.12 23.9012 37.96 24.9902 36.16 25.4596C35.22 25.7037 33.5 25.8727 30.86 25.9853C28.26 26.1167 25.88 26.1731 23.68 26.1731L20.5 26.2857C12.12 26.2857 6.9 25.9853 4.84 25.4596C3.04 24.9902 1.88 23.9012 1.38 22.2114C1.12 21.329 0.94 20.1461 0.82 18.6441C0.68 17.142 0.62 15.8465 0.62 14.72L0.5 13.1429C0.5 9.03102 0.82 6.00816 1.38 4.07429C1.88 2.38449 3.04 1.29551 4.84 0.826123C5.78 0.582041 7.5 0.413061 10.14 0.300408C12.74 0.168979 15.12 0.112653 17.32 0.112653L20.5 0C28.88 0 34.1 0.300408 36.16 0.826123C37.96 1.29551 39.12 2.38449 39.62 4.07429Z" fill="#9A9A9A"/>
</svg>
