<svg width="40" height="27" viewBox="0 0 40 27" fill="none" xmlns="http://www.w3.org/2000/svg">
<path d="M16 18.7755L26.38 13.1429L16 7.5102V18.7755ZM39.12 4.07429C39.38 4.95674 39.56 6.13959 39.68 7.64163C39.82 9.14367 39.88 10.4392 39.88 11.5657L40 13.1429C40 17.2547 39.68 20.2776 39.12 22.2114C38.62 23.9012 37.46 24.9902 35.66 25.4596C34.72 25.7037 33 25.8727 30.36 25.9853C27.76 26.1167 25.38 26.1731 23.18 26.1731L20 26.2857C11.62 26.2857 6.4 25.9853 4.34 25.4596C2.54 24.9902 1.38 23.9012 0.88 22.2114C0.62 21.329 0.44 20.1461 0.32 18.6441C0.18 17.142 0.12 15.8465 0.12 14.72L0 13.1429C0 9.03102 0.32 6.00816 0.88 4.07429C1.38 2.38449 2.54 1.29551 4.34 0.826123C5.28 0.582041 7 0.413061 9.64 0.300408C12.24 0.168979 14.62 0.112653 16.82 0.112653L20 0C28.38 0 33.6 0.300408 35.66 0.826123C37.46 1.29551 38.62 2.38449 39.12 4.07429Z" fill="white"/>
</svg>
