<svg width="50" height="50" viewBox="0 0 50 50" fill="none" xmlns="http://www.w3.org/2000/svg">
<g clip-path="url(#clip0_6470_54651)">
<path d="M10.9875 19.791C13.1507 19.791 15.2654 20.4325 17.0641 21.6343C18.8627 22.8361 20.2646 24.5444 21.0924 26.5429C21.9203 28.5415 22.1369 30.7407 21.7148 32.8623C21.2928 34.984 20.2511 36.9329 18.7215 38.4625C17.1918 39.9921 15.243 41.0338 13.1213 41.4559C10.9996 41.8779 8.80047 41.6613 6.8019 40.8335C4.80333 40.0056 3.09513 38.6037 1.8933 36.8051C0.691473 35.0064 0.05 32.8918 0.05 30.7285L0 29.166C0 23.3644 2.30468 17.8004 6.40704 13.6981C10.5094 9.5957 16.0734 7.29102 21.875 7.29102V13.541C19.8222 13.5355 17.7887 13.937 15.892 14.7223C13.9953 15.5075 12.2731 16.661 10.825 18.116C10.2622 18.6778 9.74296 19.2816 9.27188 19.9223C9.83125 19.8348 10.4031 19.7879 10.9844 19.7879L10.9875 19.791ZM39.1125 19.791C41.2757 19.791 43.3904 20.4325 45.1891 21.6343C46.9877 22.8361 48.3896 24.5444 49.2174 26.5429C50.0453 28.5415 50.2619 30.7407 49.8398 32.8623C49.4178 34.984 48.3761 36.9329 46.8465 38.4625C45.3168 39.9921 43.368 41.0338 41.2463 41.4559C39.1246 41.8779 36.9255 41.6613 34.9269 40.8335C32.9283 40.0056 31.2201 38.6037 30.0183 36.8051C28.8165 35.0064 28.175 32.8918 28.175 30.7285L28.125 29.166C28.125 23.3644 30.4297 17.8004 34.532 13.6981C38.6344 9.5957 44.1984 7.29102 50 7.29102V13.541C47.9472 13.5355 45.9137 13.937 44.017 14.7223C42.1203 15.5075 40.3981 16.661 38.95 18.116C38.3872 18.6778 37.868 19.2816 37.3969 19.9223C37.9563 19.8348 38.5281 19.7879 39.1125 19.7879V19.791Z" fill="#3E66DF"/>
</g>
<defs>
<clipPath id="clip0_6470_54651">
<rect width="50" height="50" fill="white"/>
</clipPath>
</defs>
</svg>
