<svg width="71" height="11" viewBox="0 0 71 11" fill="none" xmlns="http://www.w3.org/2000/svg">
<path d="M5.82866 0.681792L7.05709 3.26791C7.08503 3.33355 7.12898 3.3904 7.18456 3.43281C7.24014 3.47522 7.3054 3.50169 7.37385 3.5096L10.0857 3.92854C10.1642 3.93906 10.2382 3.97266 10.2991 4.02542C10.36 4.07817 10.4052 4.14791 10.4295 4.22647C10.4539 4.30504 10.4562 4.38919 10.4364 4.46911C10.4165 4.54902 10.3753 4.6214 10.3175 4.67778L8.36278 6.69995C8.31289 6.74855 8.27545 6.80939 8.25386 6.87693C8.23227 6.94447 8.22722 7.01656 8.23917 7.08666L8.71045 9.93058C8.7241 10.0123 8.71547 10.0964 8.68556 10.1732C8.65564 10.2501 8.60564 10.3166 8.54124 10.3653C8.47684 10.414 8.40063 10.4429 8.32127 10.4486C8.24192 10.4544 8.16261 10.4368 8.09237 10.3979L5.65096 9.05243C5.58844 9.02043 5.51972 9.00379 5.45008 9.00379C5.38044 9.00379 5.31172 9.02043 5.24921 9.05243L2.80779 10.3979C2.73755 10.4368 2.65824 10.4544 2.57889 10.4486C2.49954 10.4429 2.42332 10.414 2.35892 10.3653C2.29452 10.3166 2.24452 10.2501 2.21461 10.1732C2.18469 10.0964 2.17607 10.0123 2.18971 9.93058L2.661 7.05443C2.67294 6.98434 2.66789 6.91224 2.6463 6.8447C2.62471 6.77716 2.58727 6.71633 2.53738 6.66772L0.559526 4.67778C0.501012 4.61985 0.459861 4.54548 0.441059 4.46366C0.422257 4.38184 0.426611 4.29609 0.453593 4.21679C0.480575 4.1375 0.529027 4.06807 0.593081 4.01691C0.657135 3.96574 0.734041 3.93505 0.814484 3.92854L3.52631 3.5096C3.59476 3.50169 3.66003 3.47522 3.71561 3.43281C3.77119 3.3904 3.81514 3.33355 3.84307 3.26791L5.07151 0.681792C5.10496 0.606471 5.15838 0.542702 5.22546 0.498011C5.29254 0.45332 5.37048 0.429574 5.45008 0.429574C5.52968 0.429574 5.60762 0.45332 5.6747 0.498011C5.74178 0.542702 5.7952 0.606471 5.82866 0.681792Z" fill="#F7BF2E" stroke="#F7BF2E" stroke-width="0.858183" stroke-linecap="round" stroke-linejoin="round"/>
<path d="M20.8588 0.681792L22.0873 3.26791C22.1152 3.33355 22.1592 3.3904 22.2147 3.43281C22.2703 3.47522 22.3356 3.50169 22.404 3.5096L25.1159 3.92854C25.1944 3.93906 25.2684 3.97266 25.3293 4.02542C25.3902 4.07817 25.4354 4.14791 25.4597 4.22647C25.484 4.30504 25.4864 4.38919 25.4666 4.46911C25.4467 4.54902 25.4055 4.6214 25.3476 4.67778L23.393 6.69995C23.3431 6.74855 23.3056 6.80939 23.284 6.87693C23.2625 6.94447 23.2574 7.01656 23.2693 7.08666L23.7406 9.93058C23.7543 10.0123 23.7457 10.0964 23.7157 10.1732C23.6858 10.2501 23.6358 10.3166 23.5714 10.3653C23.507 10.414 23.4308 10.4429 23.3515 10.4486C23.2721 10.4544 23.1928 10.4368 23.1226 10.3979L20.6811 9.05243C20.6186 9.02043 20.5499 9.00379 20.4803 9.00379C20.4106 9.00379 20.3419 9.02043 20.2794 9.05243L17.838 10.3979C17.7677 10.4368 17.6884 10.4544 17.6091 10.4486C17.5297 10.4429 17.4535 10.414 17.3891 10.3653C17.3247 10.3166 17.2747 10.2501 17.2448 10.1732C17.2149 10.0964 17.2062 10.0123 17.2199 9.93058L17.6912 7.05443C17.7031 6.98434 17.6981 6.91224 17.6765 6.8447C17.6549 6.77716 17.6175 6.71633 17.5676 6.66772L15.5897 4.67778C15.5312 4.61985 15.49 4.54548 15.4712 4.46366C15.4524 4.38184 15.4568 4.29609 15.4838 4.21679C15.5108 4.1375 15.5592 4.06807 15.6233 4.01691C15.6873 3.96574 15.7642 3.93505 15.8447 3.92854L18.5565 3.5096C18.6249 3.50169 18.6902 3.47522 18.7458 3.43281C18.8014 3.3904 18.8453 3.33355 18.8733 3.26791L20.1017 0.681792C20.1351 0.606471 20.1886 0.542702 20.2556 0.498011C20.3227 0.45332 20.4007 0.429574 20.4803 0.429574C20.5599 0.429574 20.6378 0.45332 20.7049 0.498011C20.772 0.542702 20.8254 0.606471 20.8588 0.681792Z" fill="#F7BF2E" stroke="#F7BF2E" stroke-width="0.858183" stroke-linecap="round" stroke-linejoin="round"/>
<path d="M35.889 0.681792L37.1175 3.26791C37.1454 3.33355 37.1893 3.3904 37.2449 3.43281C37.3005 3.47522 37.3658 3.50169 37.4342 3.5096L40.146 3.92854C40.2246 3.93906 40.2986 3.97266 40.3595 4.02542C40.4204 4.07817 40.4656 4.14791 40.4899 4.22647C40.5142 4.30504 40.5166 4.38919 40.4967 4.46911C40.4769 4.54902 40.4356 4.6214 40.3778 4.67778L38.4231 6.69995C38.3733 6.74855 38.3358 6.80939 38.3142 6.87693C38.2926 6.94447 38.2876 7.01656 38.2995 7.08666L38.7708 9.93058C38.7845 10.0123 38.7758 10.0964 38.7459 10.1732C38.716 10.2501 38.666 10.3166 38.6016 10.3653C38.5372 10.414 38.461 10.4429 38.3816 10.4486C38.3023 10.4544 38.223 10.4368 38.1527 10.3979L35.7113 9.05243C35.6488 9.02043 35.5801 9.00379 35.5104 9.00379C35.4408 9.00379 35.3721 9.02043 35.3096 9.05243L32.8682 10.3979C32.7979 10.4368 32.7186 10.4544 32.6393 10.4486C32.5599 10.4429 32.4837 10.414 32.4193 10.3653C32.3549 10.3166 32.3049 10.2501 32.275 10.1732C32.2451 10.0964 32.2364 10.0123 32.2501 9.93058L32.7214 7.05443C32.7333 6.98434 32.7283 6.91224 32.7067 6.8447C32.6851 6.77716 32.6476 6.71633 32.5977 6.66772L30.6199 4.67778C30.5614 4.61985 30.5202 4.54548 30.5014 4.46366C30.4826 4.38184 30.487 4.29609 30.514 4.21679C30.5409 4.1375 30.5894 4.06807 30.6534 4.01691C30.7175 3.96574 30.7944 3.93505 30.8748 3.92854L33.5867 3.5096C33.6551 3.50169 33.7204 3.47522 33.776 3.43281C33.8316 3.3904 33.8755 3.33355 33.9034 3.26791L35.1319 0.681792C35.1653 0.606471 35.2187 0.542702 35.2858 0.498011C35.3529 0.45332 35.4308 0.429574 35.5104 0.429574C35.59 0.429574 35.668 0.45332 35.7351 0.498011C35.8021 0.542702 35.8556 0.606471 35.889 0.681792Z" fill="#F7BF2E" stroke="#F7BF2E" stroke-width="0.858183" stroke-linecap="round" stroke-linejoin="round"/>
<path d="M50.9192 0.681792L52.1476 3.26791C52.1756 3.33355 52.2195 3.3904 52.2751 3.43281C52.3307 3.47522 52.396 3.50169 52.4644 3.5096L55.1762 3.92854C55.2547 3.93906 55.3288 3.97266 55.3897 4.02542C55.4506 4.07817 55.4958 4.14791 55.5201 4.22647C55.5444 4.30504 55.5468 4.38919 55.5269 4.46911C55.5071 4.54902 55.4658 4.6214 55.408 4.67778L53.4533 6.69995C53.4034 6.74855 53.366 6.80939 53.3444 6.87693C53.3228 6.94447 53.3178 7.01656 53.3297 7.08666L53.801 9.93058C53.8146 10.0123 53.806 10.0964 53.7761 10.1732C53.7462 10.2501 53.6962 10.3166 53.6318 10.3653C53.5674 10.414 53.4912 10.4429 53.4118 10.4486C53.3325 10.4544 53.2532 10.4368 53.1829 10.3979L50.7415 9.05243C50.679 9.02043 50.6103 9.00379 50.5406 9.00379C50.471 9.00379 50.4023 9.02043 50.3398 9.05243L47.8983 10.3979C47.8281 10.4368 47.7488 10.4544 47.6694 10.4486C47.5901 10.4429 47.5139 10.414 47.4495 10.3653C47.3851 10.3166 47.3351 10.2501 47.3052 10.1732C47.2752 10.0964 47.2666 10.0123 47.2803 9.93058L47.7515 7.05443C47.7635 6.98434 47.7584 6.91224 47.7368 6.8447C47.7153 6.77716 47.6778 6.71633 47.6279 6.66772L45.6501 4.67778C45.5916 4.61985 45.5504 4.54548 45.5316 4.46366C45.5128 4.38184 45.5172 4.29609 45.5441 4.21679C45.5711 4.1375 45.6196 4.06807 45.6836 4.01691C45.7477 3.96574 45.8246 3.93505 45.905 3.92854L48.6169 3.5096C48.6853 3.50169 48.7506 3.47522 48.8062 3.43281C48.8617 3.3904 48.9057 3.33355 48.9336 3.26791L50.1621 0.681792C50.1955 0.606471 50.2489 0.542702 50.316 0.498011C50.3831 0.45332 50.461 0.429574 50.5406 0.429574C50.6202 0.429574 50.6982 0.45332 50.7653 0.498011C50.8323 0.542702 50.8858 0.606471 50.9192 0.681792Z" fill="#F7BF2E" stroke="#F7BF2E" stroke-width="0.858183" stroke-linecap="round" stroke-linejoin="round"/>
<path d="M65.9494 0.681792L67.1778 3.26791C67.2058 3.33355 67.2497 3.3904 67.3053 3.43281C67.3609 3.47522 67.4261 3.50169 67.4946 3.5096L70.2064 3.92854C70.2849 3.93906 70.359 3.97266 70.4198 4.02542C70.4807 4.07817 70.526 4.14791 70.5503 4.22647C70.5746 4.30504 70.5769 4.38919 70.5571 4.46911C70.5373 4.54902 70.496 4.6214 70.4382 4.67778L68.4835 6.69995C68.4336 6.74855 68.3962 6.80939 68.3746 6.87693C68.353 6.94447 68.348 7.01656 68.3599 7.08666L68.8312 9.93058C68.8448 10.0123 68.8362 10.0964 68.8063 10.1732C68.7764 10.2501 68.7264 10.3166 68.662 10.3653C68.5976 10.414 68.5214 10.4429 68.442 10.4486C68.3626 10.4544 68.2833 10.4368 68.2131 10.3979L65.7717 9.05243C65.7092 9.02043 65.6405 9.00379 65.5708 9.00379C65.5012 9.00379 65.4325 9.02043 65.3699 9.05243L62.9285 10.3979C62.8583 10.4368 62.779 10.4544 62.6996 10.4486C62.6203 10.4429 62.5441 10.414 62.4797 10.3653C62.4153 10.3166 62.3653 10.2501 62.3353 10.1732C62.3054 10.0964 62.2968 10.0123 62.3104 9.93058L62.7817 7.05443C62.7937 6.98434 62.7886 6.91224 62.767 6.8447C62.7454 6.77716 62.708 6.71633 62.6581 6.66772L60.6803 4.67778C60.6217 4.61985 60.5806 4.54548 60.5618 4.46366C60.543 4.38184 60.5473 4.29609 60.5743 4.21679C60.6013 4.1375 60.6498 4.06807 60.7138 4.01691C60.7779 3.96574 60.8548 3.93505 60.9352 3.92854L63.647 3.5096C63.7155 3.50169 63.7808 3.47522 63.8363 3.43281C63.8919 3.3904 63.9359 3.33355 63.9638 3.26791L65.1922 0.681792C65.2257 0.606471 65.2791 0.542702 65.3462 0.498011C65.4133 0.45332 65.4912 0.429574 65.5708 0.429574C65.6504 0.429574 65.7284 0.45332 65.7954 0.498011C65.8625 0.542702 65.9159 0.606471 65.9494 0.681792Z" fill="#F7BF2E" stroke="#F7BF2E" stroke-width="0.858183" stroke-linecap="round" stroke-linejoin="round"/>
</svg>
