<svg width="17" height="17" viewBox="0 0 17 17" fill="none" xmlns="http://www.w3.org/2000/svg">
<rect x="0.25" y="0.25" width="16.5" height="16.5" rx="8.25" stroke="black" stroke-width="0.5"/>
<path d="M14.1569 2.84314C13.414 2.10028 12.5321 1.511 11.5615 1.10896C10.5909 0.706926 9.55057 0.5 8.5 0.5C7.44942 0.5 6.40914 0.706926 5.43853 1.10896C4.46793 1.511 3.58601 2.10028 2.84314 2.84315C2.10028 3.58602 1.511 4.46793 1.10896 5.43853C0.706926 6.40914 0.5 7.44943 0.5 8.5C0.5 9.55058 0.706927 10.5909 1.10896 11.5615C1.511 12.5321 2.10028 13.414 2.84315 14.1569L8.5 8.5L14.1569 2.84314Z" fill="#0040C3"/>
<path d="M2.84315 14.1569C3.58602 14.8997 4.46793 15.489 5.43853 15.891C6.40914 16.2931 7.44943 16.5 8.5 16.5C9.55058 16.5 10.5909 16.2931 11.5615 15.891C12.5321 15.489 13.414 14.8997 14.1569 14.1569C14.8997 13.414 15.489 12.5321 15.891 11.5615C16.2931 10.5909 16.5 9.55057 16.5 8.5C16.5 7.44942 16.2931 6.40914 15.891 5.43853C15.489 4.46793 14.8997 3.58601 14.1569 2.84314L8.5 8.5L2.84315 14.1569Z" fill="white"/>
</svg>
