<svg width="103" height="28" viewBox="0 0 103 28" fill="none" xmlns="http://www.w3.org/2000/svg">
<path d="M9.85331 5.67092C9.68142 4.27219 10.3681 2.78781 11.1323 1.87572C12.0001 0.842875 13.5115 0.0519118 14.7141 0C14.8689 1.45905 14.3018 2.89151 13.4682 3.94266C12.6014 4.97563 11.2097 5.77475 9.85331 5.67092Z" fill="white"/>
<path d="M19.7812 18.0453C19.7641 18.1317 19.2834 19.8256 18.0899 21.5357C17.0843 23.0473 16.0457 24.5235 14.3795 24.5488C12.7645 24.5835 12.2236 23.5851 10.3684 23.5851C8.50517 23.5851 7.92105 24.5234 6.37442 24.5835C4.78564 24.6444 3.58403 22.969 2.54427 21.4756C0.474915 18.4185 -1.13198 12.8612 1.02394 9.08339C2.0637 7.22598 3.97816 6.03527 6.0144 6.00078C7.59401 5.97533 9.07119 7.08654 10.0425 7.08654C10.9958 7.08654 12.8158 5.74875 14.6881 5.94887C15.4704 5.97533 17.7027 6.27025 19.1456 8.38898C19.034 8.45807 16.492 9.9699 16.5181 13.0778C16.5524 16.7948 19.7389 18.0279 19.7812 18.0453Z" fill="white"/>
<path d="M33.8669 11.1116H31.3509L27.2856 24.1767H29.3828L30.503 20.3377H34.6112L35.7925 24.1767H37.9489L33.8669 11.1116ZM30.8628 18.7275L31.916 15.3223C32.1895 14.2434 32.3859 13.4211 32.5151 12.8638H32.5573C32.8659 14.1554 33.0793 14.9681 33.1906 15.3223L34.2607 18.7275H30.8628Z" fill="white"/>
<path d="M47.3036 15.8811C46.5841 15.0059 45.6944 14.564 44.6162 14.564C43.2465 14.564 42.2194 15.1291 41.5441 16.2528H41.509L41.3977 14.7575H39.6182C39.6693 15.819 39.6954 16.8453 39.6954 17.8539V27.9999H41.7235V23.0546C42.2535 23.9486 43.1184 24.3905 44.3247 24.3905C45.438 24.3905 46.3788 23.9835 47.1323 23.1521C47.9801 22.2233 48.3989 20.9585 48.3989 19.3578C48.3988 17.9161 48.039 16.7656 47.3036 15.8811ZM45.6944 21.8337C45.2665 22.4356 44.6762 22.7452 43.9137 22.7452C43.2635 22.7452 42.7334 22.5071 42.3305 22.038C41.9287 21.5688 41.7233 20.9849 41.7233 20.3042V18.7292C41.7233 18.5614 41.7574 18.3491 41.8176 18.0933C41.9368 17.5351 42.2113 17.0929 42.6132 16.7481C43.024 16.4125 43.4779 16.2355 43.9738 16.2355C44.7102 16.2355 45.3005 16.5452 45.7374 17.1643C46.1392 17.7567 46.3366 18.5085 46.3366 19.4284C46.3367 20.4273 46.1222 21.2238 45.6944 21.8337Z" fill="white"/>
<path d="M57.7775 15.8811C57.0591 15.0059 56.1692 14.564 55.0902 14.564C53.7214 14.564 52.6942 15.1291 52.0179 16.2528H51.984L51.8728 14.7575H50.0923C50.1443 15.819 50.1695 16.8453 50.1695 17.8539V27.9999H52.1974V23.0546C52.7285 23.9486 53.5934 24.3905 54.7998 24.3905C55.912 24.3905 56.8537 23.9835 57.6063 23.1521C58.454 22.2233 58.874 20.9585 58.874 19.3578C58.8738 17.9161 58.5139 16.7656 57.7775 15.8811ZM56.1692 21.8337C55.7495 22.4356 55.1502 22.7452 54.3887 22.7452C53.7383 22.7452 53.2073 22.5071 52.8055 22.038C52.4026 21.5688 52.1971 20.9849 52.1971 20.3042V18.7292C52.1971 18.5614 52.2323 18.3491 52.2915 18.0933C52.4197 17.5351 52.6853 17.0929 53.0879 16.7481C53.4988 16.4125 53.9517 16.2355 54.4488 16.2355C55.1842 16.2355 55.7753 16.5452 56.2113 17.1643C56.6141 17.7567 56.8107 18.5085 56.8107 19.4284C56.8107 20.4273 56.6052 21.2238 56.1692 21.8337Z" fill="white"/>
<path d="M69.8222 18.2422C70.3442 18.852 70.6008 19.6134 70.6008 20.5154C70.6008 21.6297 70.224 22.5317 69.4797 23.2308C68.658 23.9908 67.5116 24.3719 66.0397 24.3719C64.6779 24.3719 63.5917 24.0977 62.77 23.5579L63.2411 21.815C64.1309 22.3548 65.107 22.629 66.168 22.629C66.9294 22.629 67.5288 22.4517 67.9476 22.0988C68.3753 21.7446 68.5897 21.2673 68.5897 20.675C68.5897 20.1438 68.4094 19.7015 68.0677 19.3388C67.7169 18.9764 67.1348 18.64 66.3213 18.3304C64.0878 17.4726 62.9834 16.2248 62.9834 14.5887C62.9834 13.5188 63.3773 12.6426 64.1557 11.953C64.9354 11.2715 65.9704 10.9266 67.263 10.9266C68.4093 10.9266 69.3683 11.1309 70.1297 11.5461L69.6167 13.2445C68.8973 12.8469 68.0928 12.6426 67.186 12.6426C66.4754 12.6426 65.9104 12.828 65.5086 13.1824C65.1749 13.5095 65.0035 13.8989 65.0035 14.3681C65.0035 14.8806 65.201 15.3148 65.5858 15.6419C65.9195 15.9515 66.5356 16.287 67.4255 16.6498C68.5127 17.1009 69.3081 17.6311 69.8222 18.2422Z" fill="white"/>
<path d="M75.0758 14.7565H77.3093V16.3317H75.0758V20.9048C75.0758 22.0638 75.4696 22.6467 76.2572 22.6467C76.616 22.6467 76.9156 22.6116 77.1559 22.5494L77.2151 24.1421C76.8133 24.2923 76.2913 24.3721 75.6411 24.3721C74.8364 24.3721 74.2202 24.1153 73.7663 23.6109C73.3134 23.1069 73.0899 22.2575 73.0899 21.0729V16.3225H71.7642V14.7566H73.0899V13.0324L75.0758 12.4132V14.7565Z" fill="white"/>
<path d="M86.1931 15.9526C85.3804 15.0322 84.3012 14.572 82.9667 14.572C81.5799 14.572 80.4767 15.0413 79.6551 15.9704C78.8413 16.8983 78.4307 18.093 78.4307 19.5526C78.4307 20.9495 78.8245 22.1085 79.62 23.0195C80.4165 23.931 81.4857 24.3905 82.8214 24.3905C84.2082 24.3905 85.3203 23.9135 86.159 22.9573C86.9546 22.0285 87.3575 20.8436 87.3575 19.393C87.3575 17.9866 86.9718 16.8371 86.1931 15.9526ZM84.7041 21.6837C84.259 22.4449 83.651 22.8251 82.8813 22.8251C82.0939 22.8251 81.4777 22.4531 81.0406 21.7014C80.6819 21.0914 80.5016 20.3488 80.5016 19.481C80.5016 18.5885 80.6731 17.8366 81.0406 17.217C81.4605 16.4653 82.0849 16.0936 82.8985 16.0936C83.6861 16.0936 84.2931 16.4653 84.7209 17.217C85.0807 17.8366 85.26 18.5706 85.26 19.4373C85.26 20.3041 85.072 21.0468 84.7041 21.6837Z" fill="white"/>
<path d="M93.9379 14.5991L93.9458 16.5975C93.7493 16.5626 93.5349 16.5449 93.3045 16.5449C92.5939 16.5449 92.038 16.8191 91.6522 17.3764C91.3185 17.8622 91.1471 18.4909 91.1471 19.2334V24.1783H89.1191V17.7212C89.1191 16.6329 89.1021 15.6429 89.0591 14.7573H90.8226L90.8998 16.5626H90.9599C91.1733 15.943 91.5069 15.439 91.9688 15.067C92.4229 14.7314 92.9108 14.564 93.4329 14.564C93.621 14.5638 93.7924 14.5812 93.9379 14.5991Z" fill="white"/>
<path d="M103 19.02C103 17.8434 102.727 16.8618 102.187 16.0477C101.519 15.0399 100.518 14.5355 99.2086 14.5355C97.8738 14.5355 96.8129 15.0399 96.0253 16.0477C95.2717 16.9944 94.896 18.18 94.896 19.5955C94.896 21.0371 95.2978 22.196 96.1024 23.0533C96.9069 23.9121 98.0192 24.3448 99.4311 24.3448C100.604 24.3448 101.622 24.1501 102.487 23.7605L102.171 22.3108C101.434 22.6029 100.613 22.7531 99.7136 22.7531C98.901 22.7531 98.2417 22.5315 97.7286 22.0985C97.1636 21.6119 96.8729 20.895 96.8467 19.9662H102.923C102.974 19.7107 103 19.3918 103 19.02ZM96.8548 18.472C96.9148 17.8434 97.1202 17.2957 97.454 16.844C97.8648 16.2787 98.404 15.995 99.0633 15.995C99.7825 15.995 100.322 16.2869 100.672 16.8712C100.946 17.3215 101.083 17.8611 101.066 18.4805L96.8548 18.472Z" fill="white"/>
<path d="M31.8138 0.682861C33.9056 0.682861 35.1441 1.9154 35.1441 4.03923C35.1441 6.16801 33.9104 7.41906 31.8138 7.41906H29.332V0.682861H31.8138ZM30.4241 6.51361H31.7114C33.2034 6.51361 34.0274 5.64059 34.0274 4.04866C34.0274 2.46157 33.1985 1.58418 31.7114 1.58418H30.4241V6.51361Z" fill="white"/>
<path d="M35.8281 4.96363C35.8281 3.38585 36.7984 2.41956 38.2611 2.41956C39.7239 2.41956 40.6943 3.38585 40.6943 4.96363C40.6943 6.54613 39.7288 7.51242 38.2611 7.51242C36.7936 7.51242 35.8281 6.54613 35.8281 4.96363ZM39.6216 4.96363C39.6216 3.87601 39.0852 3.25048 38.2611 3.25048C37.4372 3.25048 36.9007 3.87613 36.9007 4.96363C36.9007 6.05608 37.4371 6.68161 38.2611 6.68161C39.09 6.68172 39.6216 6.05608 39.6216 4.96363Z" fill="white"/>
<path d="M46.851 7.41922H45.7541L44.6764 3.74072H44.6521L43.5843 7.41922H42.497L41.0879 2.5083H42.141L43.0772 6.37358H43.0966L44.1644 2.5083H45.1785L46.2511 6.37358H46.2755L47.2116 2.5083H48.2552L46.851 7.41922Z" fill="white"/>
<path d="M48.9014 2.50815H49.9057V3.32976H49.9301C50.208 2.76956 50.7541 2.42419 51.544 2.42419C52.6752 2.42419 53.3237 3.11516 53.3237 4.24016V7.41907H52.2658V4.43601C52.2658 3.69859 51.905 3.2925 51.1735 3.2925C50.4325 3.2925 49.9546 3.79645 49.9546 4.55758V7.41918H48.9015V2.50815H48.9014Z" fill="white"/>
<path d="M54.374 0.682861H55.4273V7.41906H54.374V0.682861Z" fill="white"/>
<path d="M56.2822 4.96363C56.2822 3.38585 57.2527 2.41956 58.7154 2.41956C60.1781 2.41956 61.1485 3.38585 61.1485 4.96363C61.1485 6.54613 60.1831 7.51242 58.7154 7.51242C57.2478 7.51242 56.2822 6.54613 56.2822 4.96363ZM60.0755 4.96363C60.0755 3.87601 59.5393 3.25048 58.7153 3.25048C57.8913 3.25048 57.355 3.87613 57.355 4.96363C57.355 6.05608 57.8912 6.68161 58.7153 6.68161C59.5442 6.68172 60.0755 6.05608 60.0755 4.96363Z" fill="white"/>
<path d="M61.7573 6.02342C61.7573 5.16443 62.4448 4.63689 63.6638 4.57157L65.068 4.49221V4.11395C65.068 3.56766 64.6827 3.24105 64.0391 3.24105C63.4297 3.24105 63.0494 3.52133 62.9568 3.95996H61.9623C62.0208 3.07314 62.8106 2.41956 64.0784 2.41956C65.3217 2.41956 66.1164 3.04991 66.1164 4.03471V7.41915H65.1071V6.61145H65.0829C64.7853 7.15773 64.1369 7.5031 63.464 7.5031C62.4595 7.5031 61.7573 6.90576 61.7573 6.02342ZM65.0681 5.57984V5.19249L63.8052 5.26713C63.1762 5.30923 62.8203 5.57524 62.8203 5.99547C62.8203 6.42515 63.1908 6.70507 63.7566 6.70507C64.4928 6.70495 65.0681 6.21939 65.0681 5.57984Z" fill="white"/>
<path d="M66.9028 4.96342C66.9028 3.41347 67.7609 2.42867 69.0482 2.42867C69.7844 2.42867 70.3695 2.78346 70.6571 3.32491H70.6766V0.682861H71.7348V7.41906H70.7108V6.58353H70.6914C70.3891 7.14362 69.804 7.50301 69.0579 7.50301C67.7609 7.50289 66.9028 6.5135 66.9028 4.96342ZM67.9802 4.96342C67.9802 5.99987 68.5021 6.64874 69.3357 6.64874C70.1453 6.64874 70.6864 5.99044 70.6864 4.96342C70.6864 3.94584 70.1453 3.27846 69.3357 3.27846C68.5022 3.27846 67.9802 3.93193 67.9802 4.96342Z" fill="white"/>
<path d="M74.6094 4.96363C74.6094 3.38585 75.5795 2.41956 77.0425 2.41956C78.5052 2.41956 79.4757 3.38585 79.4757 4.96363C79.4757 6.54613 78.51 7.51242 77.0425 7.51242C75.5748 7.51242 74.6094 6.54613 74.6094 4.96363ZM78.4028 4.96363C78.4028 3.87601 77.8665 3.25048 77.0425 3.25048C76.2185 3.25048 75.682 3.87613 75.682 4.96363C75.682 6.05608 76.2183 6.68161 77.0425 6.68161C77.8713 6.68172 78.4028 6.05608 78.4028 4.96363Z" fill="white"/>
<path d="M80.29 2.50815H81.2945V3.32976H81.3189C81.5969 2.76956 82.1427 2.42419 82.9328 2.42419C84.0642 2.42419 84.7126 3.11516 84.7126 4.24016V7.41907H83.6544V4.43601C83.6544 3.69859 83.2937 3.2925 82.5622 3.2925C81.821 3.2925 81.3434 3.79645 81.3434 4.55758V7.41918H80.29V2.50815Z" fill="white"/>
<path d="M89.1156 1.34644V2.50858H90.0907V3.30696H89.1156V6.01446C89.1156 6.43941 89.3107 6.63067 89.7396 6.63067C89.847 6.63067 90.0177 6.62135 90.0859 6.60744V7.4057C89.9688 7.43365 89.7348 7.45239 89.5008 7.45239C88.4621 7.45239 88.0575 7.07425 88.0575 6.12659V3.30708H87.3115V2.5087H88.0575V1.34655H89.1156V1.34644Z" fill="white"/>
<path d="M90.9922 0.682861H92.0356V3.32963H92.0599C92.3428 2.75552 92.9035 2.42407 93.6835 2.42407C94.81 2.42407 95.4828 3.14298 95.4828 4.25407V7.41906H94.4247V4.45003C94.4247 3.72641 94.0443 3.29249 93.3034 3.29249C92.5232 3.29249 92.0453 3.80588 92.0453 4.58091V7.41906H90.9922V0.682861Z" fill="white"/>
<path d="M100.895 5.97661C100.749 6.87298 99.8613 7.51242 98.6862 7.51242C97.1796 7.51242 96.2676 6.53681 96.2676 4.98709C96.2676 3.44669 97.194 2.41956 98.6421 2.41956C100.066 2.41956 100.953 3.38125 100.953 4.87036V5.21596H97.3306V5.27657C97.3306 6.13072 97.8669 6.69564 98.7105 6.69564C99.3101 6.69564 99.754 6.40628 99.8953 5.97661H100.895ZM97.3356 4.51084H99.9001C99.8759 3.75939 99.3785 3.23173 98.6421 3.23173C97.906 3.23185 97.3891 3.7687 97.3356 4.51084Z" fill="white"/>
</svg>
