<svg width="22" height="22" viewBox="0 0 22 22" fill="none" xmlns="http://www.w3.org/2000/svg">
<path d="M11 7.3335V11.0002L13.2917 13.2918" stroke="#0040C3" stroke-width="1.5" stroke-linecap="round" stroke-linejoin="round"/>
<path d="M3.97644 6.29854L3.28894 6.30129C3.28966 6.48252 3.36191 6.65613 3.48997 6.78436C3.61803 6.91259 3.79155 6.98507 3.97277 6.98604L3.97644 6.29854ZM6.3066 6.99704C6.39689 6.99746 6.48637 6.98009 6.56994 6.94593C6.65351 6.91177 6.72954 6.86149 6.79368 6.79794C6.85782 6.7344 6.90881 6.65885 6.94375 6.5756C6.97869 6.49235 6.99689 6.40303 6.99731 6.31275C6.99773 6.22246 6.98037 6.13298 6.94621 6.04941C6.91205 5.96584 6.86176 5.88981 6.79822 5.82567C6.73467 5.76153 6.65912 5.71054 6.57587 5.6756C6.49262 5.64066 6.4033 5.62246 6.31302 5.62204L6.3066 6.99704ZM4.65202 3.96104C4.65154 3.87076 4.63328 3.78145 4.59828 3.69822C4.56329 3.615 4.51224 3.53948 4.44806 3.47598C4.38388 3.41248 4.30782 3.36224 4.22423 3.32814C4.14063 3.29403 4.05114 3.27672 3.96085 3.27721C3.87057 3.27769 3.78126 3.29595 3.69804 3.33094C3.61481 3.36594 3.53929 3.41698 3.47579 3.48116C3.41229 3.54534 3.36205 3.6214 3.32795 3.705C3.29384 3.78859 3.27654 3.87809 3.27702 3.96837L4.65202 3.96104ZM3.50802 9.88637C3.52119 9.79652 3.51643 9.70495 3.49402 9.61695C3.4716 9.52894 3.43197 9.44625 3.37742 9.37365C3.32287 9.30105 3.25447 9.23998 3.17618 9.19396C3.09789 9.14794 3.01126 9.11789 2.9213 9.10554C2.83133 9.09318 2.7398 9.09878 2.65201 9.122C2.56421 9.14522 2.48189 9.1856 2.40979 9.24082C2.33769 9.29603 2.27724 9.36498 2.23194 9.44369C2.18664 9.52239 2.15738 9.6093 2.14585 9.69937L3.50802 9.88637ZM17.2901 4.70996C13.7884 1.20829 8.12985 1.17162 4.6511 4.65129L5.62277 5.62296C8.5561 2.69054 13.3439 2.70796 16.3184 5.68162L17.2901 4.70996ZM4.70977 17.2903C8.21144 20.792 13.87 20.8286 17.3488 17.349L16.3771 16.3773C13.4438 19.3097 8.65602 19.2923 5.68144 16.3186L4.70977 17.2903ZM17.3488 17.349C20.8275 13.8702 20.7918 8.21162 17.2901 4.70996L16.3184 5.68162C19.2921 8.65621 19.3095 13.444 16.3771 16.3773L17.3488 17.349ZM4.6511 4.65129L3.48969 5.81179L4.46227 6.78346L5.62277 5.62296L4.6511 4.65129ZM3.97277 6.98604L6.3066 6.99704L6.31302 5.62204L3.9801 5.61104L3.97277 6.98604ZM4.66394 6.29487L4.65202 3.96104L3.27702 3.96837L3.28894 6.30129L4.66394 6.29487ZM2.14494 9.69846C1.9566 11.0758 2.0901 12.4781 2.53496 13.7952C2.97982 15.1123 3.72392 16.3083 4.70885 17.2894L5.68052 16.3177C4.84564 15.4866 4.21487 14.4731 3.83775 13.357C3.46064 12.241 3.34746 11.0527 3.5071 9.88546L2.14494 9.69846Z" fill="#0040C3"/>
</svg>
