<svg width="24" height="24" viewBox="0 0 24 24" fill="none" xmlns="http://www.w3.org/2000/svg">
<path d="M12.0008 2.40039C8.02878 2.40039 4.80078 5.62839 4.80078 9.60039C4.80078 12.0244 6.20478 14.0524 7.83678 15.4684C8.35278 15.9124 9.25278 16.6204 10.0568 17.6644C10.9448 18.8284 11.7488 20.0764 12.0008 20.9164C12.2528 20.0764 13.0568 18.8284 13.9448 17.6644C14.7488 16.6204 15.6488 15.9124 16.1648 15.4684C17.7968 14.0524 19.2008 12.0244 19.2008 9.60039C19.2008 5.62839 15.9728 2.40039 12.0008 2.40039ZM12.0008 5.47239C12.5429 5.47239 13.0797 5.57916 13.5805 5.78662C14.0813 5.99407 14.5364 6.29813 14.9197 6.68145C15.303 7.06477 15.6071 7.51984 15.8146 8.02067C16.022 8.52151 16.1288 9.05829 16.1288 9.60039C16.1288 10.1425 16.022 10.6793 15.8146 11.1801C15.6071 11.6809 15.303 12.136 14.9197 12.5193C14.5364 12.9026 14.0813 13.2067 13.5805 13.4142C13.0797 13.6216 12.5429 13.7284 12.0008 13.7284C10.906 13.7284 9.85599 13.2935 9.08184 12.5193C8.30769 11.7452 7.87278 10.6952 7.87278 9.60039C7.87278 8.50558 8.30769 7.4556 9.08184 6.68145C9.85599 5.9073 10.906 5.47239 12.0008 5.47239Z" fill="#F7BF2E"/>
</svg>
